<svg preserveAspectRatio="none" width="100%" height="100%" overflow="visible" style="display: block;" viewBox="0 0 21.6 11.7823" fill="none" xmlns="http://www.w3.org/2000/svg">
<path id="arrow" d="M0.8 5.09117C0.358172 5.09117 0 5.44934 0 5.89117C0 6.333 0.358172 6.69117 0.8 6.69117V5.89117V5.09117ZM21.3657 6.45685C21.6781 6.14443 21.6781 5.6379 21.3657 5.32548L16.2745 0.234314C15.9621 -0.078105 15.4556 -0.078105 15.1431 0.234314C14.8307 0.546734 14.8307 1.05327 15.1431 1.36568L19.6686 5.89117L15.1431 10.4167C14.8307 10.7291 14.8307 11.2356 15.1431 11.548C15.4556 11.8604 15.9621 11.8604 16.2745 11.548L21.3657 6.45685ZM0.8 5.89117V6.69117H20.8V5.89117V5.09117H0.8V5.89117Z" fill="var(--stroke-0, #141414)"/>
</svg>
