<svg preserveAspectRatio="none" width="100%" height="100%" overflow="visible" style="display: block;" viewBox="0 0 52 42.2454" fill="none" xmlns="http://www.w3.org/2000/svg">
<g id="Group">
<path id="Vector" d="M50.9495 30.9739H47.5353V4.17574C47.5353 1.87322 45.6621 0 43.3596 0H8.64043C6.33791 0 4.46469 1.87322 4.46469 4.17574V30.9739H1.05046C0.470336 30.9739 0 31.4443 0 32.0244V33.53C0 36.4649 2.38773 38.8526 5.32259 38.8526H43.0708L46.1559 41.9377C46.361 42.1428 46.6299 42.2454 46.8987 42.2454C47.1676 42.2454 47.4364 42.1428 47.6415 41.9377L50.9843 38.5951C51.1812 38.3981 51.292 38.1308 51.292 37.8522C51.292 37.5737 51.1813 37.3065 50.9843 37.1094L50.7839 36.909C51.5424 35.9892 52 34.8126 52 33.5299V32.0244C52 31.4443 51.5296 30.9739 50.9495 30.9739ZM6.56561 4.17574C6.56561 3.03164 7.49633 2.10102 8.64033 2.10102H43.3596C44.5037 2.10102 45.4343 3.03164 45.4343 4.17574V30.9739H44.8488L36.5394 22.6647H41.4844C42.0645 22.6647 42.5349 22.1943 42.5349 21.6142C42.5349 21.0342 42.0644 20.5638 41.4844 20.5638H36.5374C37.414 18.1325 37.4511 15.4643 36.648 13.013H37.3454C37.9256 13.013 38.3959 12.5426 38.3959 11.9625C38.3959 11.3824 37.9255 10.9121 37.3454 10.9121H35.7177C35.2178 10.0332 34.5942 9.20583 33.8454 8.45701C33.7875 8.39912 33.7289 8.34224 33.67 8.28577H36.9647C37.5448 8.28577 38.0151 7.81534 38.0151 7.23531C38.0151 6.65519 37.5447 6.18485 36.9647 6.18485H30.8744C30.806 6.18485 30.7393 6.19186 30.6746 6.20435C29.1339 5.46386 27.4344 5.07254 25.6744 5.07254C23.9299 5.07254 22.2443 5.45685 20.7142 6.18485H10.2425C9.66225 6.18485 9.19202 6.65529 9.19202 7.23531C9.19202 7.81544 9.66235 8.28577 10.2425 8.28577H17.6789C17.62 8.34235 17.5614 8.39912 17.5035 8.45701C16.7614 9.19913 16.1329 10.0246 15.6262 10.9121H12.7112C12.1309 10.9121 11.6607 11.3825 11.6607 11.9625C11.6607 12.5427 12.131 13.013 12.7112 13.013H14.6929C14.4158 13.8578 14.237 14.7379 14.1611 15.6393H10.2425C9.66225 15.6393 9.19202 16.1097 9.19202 16.6898C9.19202 17.2698 9.66235 17.7402 10.2425 17.7402H14.1718C14.2574 18.6424 14.4474 19.5224 14.735 20.3665H12.7112C12.1309 20.3665 11.6607 20.837 11.6607 21.417C11.6607 21.9971 12.131 22.4675 12.7112 22.4675H15.6983C16.1921 23.3079 16.796 24.0913 17.5034 24.7988C17.604 24.8995 17.7066 24.9973 17.8102 25.0937H12.7112C12.1309 25.0937 11.6607 25.5641 11.6607 26.1441C11.6607 26.7242 12.131 27.1946 12.7112 27.1946H20.9825C22.4404 27.8425 24.0312 28.1833 25.6744 28.1833C27.5863 28.1833 29.4271 27.7216 31.0702 26.8519L35.1921 30.9736H6.56561V4.17574ZM32.3597 23.3131C30.574 25.0989 28.1997 26.0824 25.6743 26.0824C24.2736 26.0824 22.9199 25.7787 21.6867 25.2045C21.663 25.1926 21.639 25.1811 21.6142 25.1712C20.6519 24.713 19.7647 24.089 18.9888 23.3132C17.2031 21.5275 16.2197 19.1533 16.2197 16.6278C16.2197 14.1024 17.2032 11.7281 18.9889 9.94236C20.7747 8.15659 23.1489 7.17326 25.6743 7.17326C28.1997 7.17326 30.574 8.15659 32.3597 9.94236C36.0461 13.6288 36.0461 19.6269 32.3597 23.3131ZM5.32259 36.7516C3.54616 36.7516 2.10102 35.3065 2.10102 33.53V33.0748H5.51515H37.293L40.9698 36.7516H5.32259ZM46.8986 39.7092L32.8644 25.6749C33.2049 25.4031 33.5328 25.1114 33.8454 24.7988C34.1594 24.4848 34.4506 24.1567 34.7208 23.8172L48.7557 37.8521L46.8986 39.7092ZM49.899 33.53C49.899 34.233 49.6715 34.8829 49.2877 35.4129L46.9498 33.0749H49.899V33.53Z" fill="var(--fill-0, #00CB62)"/>
<path id="Vector_2" d="M29.3512 14.2983V13.2101C29.3512 11.1827 27.7018 9.53337 25.6744 9.53337C23.647 9.53337 21.9976 11.1827 21.9976 13.2101V14.2983C21.2482 14.4593 20.6845 15.1263 20.6845 15.9231V21.0022C20.6845 21.9189 21.4303 22.6647 22.3469 22.6647H29.0019C29.9186 22.6647 30.6644 21.9188 30.6644 21.0023V15.9232C30.6643 15.1263 30.1006 14.4593 29.3512 14.2983ZM24.0985 13.21C24.0985 12.3412 24.8054 11.6343 25.6743 11.6343C26.5432 11.6343 27.25 12.3412 27.25 13.21V14.2605H24.0985V13.21ZM28.5632 20.5636H22.7854V16.3615H23.0481H28.3006H28.5632V20.5636Z" fill="var(--fill-0, #00CB62)"/>
<path id="Vector_3" d="M41.3899 8.28557H41.4844C42.0645 8.28557 42.5349 7.81513 42.5349 7.23511C42.5349 6.65498 42.0644 6.18465 41.4844 6.18465H41.3899C40.8097 6.18465 40.3394 6.65509 40.3394 7.23511C40.3394 7.81513 40.8098 8.28557 41.3899 8.28557Z" fill="var(--fill-0, #00CB62)"/>
</g>
</svg>
