<svg preserveAspectRatio="none" width="100%" height="100%" overflow="visible" style="display: block;" viewBox="0 0 52 52" fill="none" xmlns="http://www.w3.org/2000/svg">
<g id="microchip 1">
<path id="Vector" d="M47 16.6667H39.5739M47 26H40M47 35.3333H39.5739M12.426 16.6667H5M16.6667 12.426V5M16.6667 47V39.5739M26 12V5M26 47V40M35.3333 12.426V5M35.3333 47V39.5739M12 26H5M12.426 35.3333H5M23.2 40H28.8C32.7205 40 34.6805 40 36.178 39.237C37.4952 38.5659 38.5659 37.4952 39.237 36.178C40 34.6805 40 32.7205 40 28.8V23.2C40 19.2796 40 17.3194 39.237 15.8221C38.5659 14.5049 37.4952 13.4341 36.178 12.763C34.6805 12 32.7205 12 28.8 12H23.2C19.2796 12 17.3194 12 15.8221 12.763C14.5049 13.4341 13.4341 14.5049 12.763 15.8221C12 17.3194 12 19.2796 12 23.2V28.8C12 32.7205 12 34.6805 12.763 36.178C13.4341 37.4952 14.5049 38.5659 15.8221 39.237C17.3194 40 19.2796 40 23.2 40ZM21.3333 21.3333H30.6667V30.6667H21.3333V21.3333Z" stroke="var(--stroke-0, #00CB62)" stroke-width="2.3" stroke-linecap="round" stroke-linejoin="round"/>
</g>
</svg>
