<svg preserveAspectRatio="none" width="100%" height="100%" overflow="visible" style="display: block;" viewBox="0 0 254.544 73.0998" fill="none" xmlns="http://www.w3.org/2000/svg">
<g id="Frame" style="mix-blend-mode:luminosity" clip-path="url(#clip0_2025_320)">
<path id="Vector" d="M89.5689 51.4123V53.3214H92.7751C92.6075 55.0478 91.8132 56.5451 90.0584 56.5451C88.7905 56.5451 87.8739 55.7654 87.5986 54.4069H85.293C85.7519 56.8192 87.3245 58.5005 90.1024 58.5005C93.0505 58.5005 95.1884 56.4988 95.1884 52.6806C95.1884 48.8002 92.9281 46.8289 90.073 46.8289C86.7591 46.8289 85.4154 49.1206 85.293 50.7556H87.5986C87.7821 50.0831 88.164 48.7843 90.073 48.7843C91.019 48.7843 92.2881 49.3813 92.6846 51.4123H89.5689ZM98.0802 47.1201V53.52C98.0802 55.9189 97.8207 56.6511 96.783 56.6511C96.477 56.6511 96.2323 56.606 96.0952 56.5597V58.3324C96.4917 58.4542 96.9812 58.5005 97.5001 58.5005C99.6833 58.5005 100.386 56.6365 100.386 53.7649V49.0292H103.516V58.2093H105.822V47.1201H98.0802ZM107.955 47.1201V58.2106H116.384V56.299H110.262V53.2288H115.651V51.3197H110.262V49.028H116.139V47.1189L107.955 47.1201ZM120.446 47.1201H118.14V58.2106H120.446V54.452L121.53 53.3372L124.95 58.2106H127.928L123.149 51.6559L127.668 47.1201H124.675L120.446 51.6255V47.1201ZM133.866 49.0292H137.209V47.1201H128.215V49.0292H131.56V58.2093H133.866V49.0292ZM140.801 54.2083H143.457C146.435 54.2083 146.986 51.6572 146.986 50.663C146.986 48.4798 145.702 47.1201 143.565 47.1201H138.495V58.2106H140.801V54.2083ZM140.801 49.0292H142.649C144.084 49.0292 144.679 49.4873 144.679 50.5716C144.679 51.26 144.481 52.298 142.953 52.298H140.801V49.0292ZM148.357 52.6647C148.357 57.8585 152.206 58.5005 153.672 58.5005C155.138 58.5005 158.986 57.8585 158.986 52.6647C158.986 47.471 155.138 46.8289 153.672 46.8289C152.206 46.8289 148.357 47.471 148.357 52.6647ZM150.664 52.6647C150.664 49.5641 152.419 48.7843 153.672 48.7843C154.924 48.7843 156.68 49.5641 156.68 52.6647C156.68 55.7654 154.924 56.5451 153.672 56.5451C152.42 56.5451 150.664 55.7654 150.664 52.6647ZM160.744 47.1201V58.2106H163.05V49.0292H168.639V47.1201H160.744ZM170.109 47.1201V58.2106H178.538V56.299H172.414V53.2288H177.805V51.3197H172.414V49.028H178.293V47.1189L170.109 47.1201ZM182.6 47.1201H180.294V58.2106H182.6V53.2288H186.921V58.2081H189.226V47.1189H186.921V51.3197H182.6V47.1201ZM191.358 47.1201V58.2106H199.788V56.299H193.664V53.2288H199.055V51.3197H193.664V49.028H199.543V47.1189L191.358 47.1201ZM203.849 54.2083H206.506C209.483 54.2083 210.033 51.6572 210.033 50.663C210.033 48.4798 208.75 47.1201 206.613 47.1201H201.544V58.2106H203.849V54.2083ZM203.849 49.0292H205.697C207.133 49.0292 207.727 49.4873 207.727 50.5716C207.727 51.26 207.529 52.298 206.002 52.298H203.849V49.0292ZM214.189 47.1201L210.25 58.2106H212.678L213.456 55.9189H217.533L218.251 58.2093H220.756L216.862 47.1201H214.189ZM215.487 49.625H215.518L217.029 54.0098H214.066L215.487 49.625ZM224.458 47.1201H222.152V58.2106H230.031V60.5619H232.184V56.3002H231.084V47.1201H228.779V56.3002H224.458V47.1201ZM235.88 47.1201H233.575V58.2106H236.048L240.568 50.3121H240.599V58.2106H242.905V47.1201H240.309L235.896 54.8492H235.88V47.1201ZM253.822 47.1201H248.218C246.08 47.1201 244.737 48.7393 244.737 50.4949C244.737 52.2529 245.988 53.2459 247.24 53.6577L244.538 58.2093H247.24L249.805 53.8721H251.516V58.2093H253.822V47.1201ZM251.516 51.9618H248.844C247.638 51.9618 247.042 51.3355 247.042 50.4193C247.042 49.8236 247.485 49.0292 248.661 49.0292H251.516V51.9618Z" fill="var(--fill-0, #004781)"/>
<path id="Vector_2" fill-rule="evenodd" clip-rule="evenodd" d="M38.8118 52.7317C28.8136 52.7317 20.7135 44.6725 20.7135 34.7395C20.7135 24.8076 28.8136 16.7484 38.8118 16.7484C48.81 16.7484 56.9199 24.8076 56.9199 34.7395C56.9101 44.6725 48.81 52.7317 38.8118 52.7317ZM73.7259 37.8474C72.3516 36.8045 70.6653 36.0833 69.1405 35.2914C68.4331 34.9198 66.8178 33.7173 66.3331 33.286C64.8181 31.9531 63.9089 30.5399 62.0806 29.5079C62.0806 29.5079 62.4746 29.2277 62.8784 29.0572C64.2221 28.4845 65.7372 28.4748 67.0491 27.8742C65.3835 25.3985 62.455 25.7299 60.5557 23.9645C61.6767 24.1753 63.1624 24.045 64.2919 23.9353C66.3833 23.7343 66.7064 23.0033 67.6964 21.5401C67.9779 21.1185 68.3732 20.697 68.7158 20.4679C70.2712 19.4348 74.2913 19.9355 76.0474 19.9355C74.4932 19.1034 72.0579 17.5598 70.2712 17.4002C63.3435 16.5583 60.6867 18.9536 56.1122 16.6692C55.6068 16.4779 58.3334 14.8441 59.9904 14.7844C59.6477 14.5639 57.5967 13.8524 56.8391 13.8719C55.0316 13.9121 54.1432 14.5335 52.7591 15.5252C52.7591 14.213 52.8497 13.2603 54.142 12.4391C54.9411 11.9274 56.5161 11.5668 57.1023 11.1453C57.697 10.725 58.304 9.56145 58.5157 8.8999C58.7274 8.24931 58.6968 6.57533 58.6968 6.57533C57.7986 7.68766 57.1023 8.52953 55.6374 8.82071C55.6374 8.82071 49.7291 9.93304 48.3156 10.424C46.9009 10.915 45.3565 12.4391 45.3565 12.4391C45.3565 12.4391 45.1436 12.1784 45.124 11.5169C45.1142 10.8651 48.2348 5.20227 47.82 5.47274C47.4063 5.73346 45.4973 6.29389 44.3665 6.68497C43.2357 7.07606 41.2655 7.48664 38.9538 8.51978C36.6298 9.5517 35.3069 11.8068 35.0854 11.4962C34.8725 11.1855 34.3377 10.5446 34.2472 9.5517C34.1456 8.55024 35.0952 6.89575 35.4795 6.00393C36.2872 4.06922 36.6409 1.74343 35.1858 0C34.6608 0.410577 29.5503 5.73346 28.5003 7.52684C27.4601 9.32144 25.9659 13.281 25.9659 13.281L24.2184 18.5625C24.2184 18.5625 23.6922 18.1019 23.3801 17.6304C23.0668 17.1395 23.2284 15.2754 23.2284 15.2754C23.653 12.4781 23.7032 9.06194 21.1284 7.11626C20.3696 6.54487 19.36 6.61553 19.36 6.61553C19.36 6.61553 20.0368 7.5573 19.9866 8.75979C19.9254 9.95375 19.5925 11.1964 19.5925 11.1964L18.2794 16.4779C17.1585 20.7676 17.6027 23.2335 17.462 23.2128C15.4525 23.0033 13.9167 21.2391 13.5129 19.4043C13.3207 18.5028 13.3207 15.4253 13.3207 15.4253C11.0788 18.7135 9.83665 20.8273 10.5244 24.8174C10.9992 27.5732 12.5559 30.4595 13.9583 32.8754C14.6852 34.1181 15.2114 36.344 15.2114 36.344C14.3621 35.5021 13.5753 34.7797 12.2524 34.7797C10.3225 34.7797 7.60572 36.4536 5.94017 35.4619C5.79822 35.3718 5.3136 35.1817 5.3136 35.1817C5.3136 35.1817 5.5657 35.7421 5.70766 35.9736C7.50537 38.8489 9.77791 38.3372 12.5045 39.631C13.9791 40.3231 14.8174 40.8335 15.8466 42.1664C15.1001 41.796 13.1102 42.0762 12.3625 42.337C11.1204 42.7682 10.0802 43.721 8.73771 44.162C6.58632 44.8735 3.54648 44.5921 1.48565 43.6199C0.991252 43.3896 0 42.7999 0 42.7999C0 42.7999 0.171328 43.3007 0.394053 43.7319C0.626569 44.1523 2.21135 46.3574 2.71677 46.8594C4.54508 48.6735 6.47374 49.4252 8.9384 49.7152C13.1396 49.9064 16.795 49.0938 20.8151 49.8358C22.1784 50.0867 23.7644 50.9883 23.7644 50.9883C19.4616 52.2615 21.088 54.6567 15.7756 55.6387C19.4004 57.2627 22.2187 56.6913 25.693 55.6387C28.0965 54.9077 30.7325 54.8772 30.7325 54.8772C29.1563 55.5985 27.1273 56.9423 26.1972 58.3958C23.9553 61.9131 21.3707 63.8478 17.1891 64.3388C18.7555 66.7852 23.6628 65.7118 25.8044 65.1002C28.329 64.3887 30.7117 63.1558 32.5706 61.2917C33.2007 60.6608 33.8237 60.0227 34.4393 59.3777C34.9369 58.8507 35.4885 58.377 36.0853 57.9645C36.7106 57.5429 37.8426 57.0629 38.4386 56.9216C39.0333 56.7815 40.448 56.9825 40.448 56.9825L40.3379 57.0629C40.2253 57.1531 39.852 57.7939 39.5693 58.2154C38.6393 59.608 38.2562 61.483 38.1559 63.1168C38.0947 63.9879 37.8426 65.4511 37.8426 65.4511C40.0845 63.3556 41.5494 59.4484 44.3567 58.0437C44.8107 57.8146 45.3565 57.8439 45.3565 57.8439C45.2146 60.6095 43.4266 62.9657 43.4266 65.7325C43.4266 71.3746 48.8406 72.4078 48.8112 72.2067C48.5983 70.6838 48.6693 67.8975 49.0425 66.4038C49.7095 63.7576 51.1327 61.1212 51.9612 58.436C52.3651 57.1226 52.3039 55.3889 52.1325 54.0451C52.8998 53.9452 54.8493 57.5332 54.7392 57.9949C54.7392 57.0227 55.3547 55.2988 55.4453 54.1353C55.5468 52.923 55.2837 51.3891 54.9399 50.2269C56.4047 50.7581 57.4449 51.5 58.3946 52.7025C58.818 53.2337 59.4751 54.1645 59.8386 54.7566C60.6769 56.0907 61.3634 58.0144 62.7267 58.866C63.3839 59.2778 64.555 59.0975 65.3027 59.0061C64.6358 58.3958 64.0496 57.984 63.6666 57.1531C62.9201 55.529 62.7671 52.8231 62.7671 50.9786C62.7671 48.0119 62.1111 45.0343 60.5863 42.4685C61.3634 42.5587 62.0708 42.7597 62.7071 43.23C63.04 43.481 63.8685 44.1316 64.3225 43.8818C63.4842 43.1203 63.7571 41.6364 63.3325 40.6142C63.1917 40.2731 62.7071 39.2107 62.7071 39.2107C63.3129 39.3204 63.959 39.8028 64.5146 40.0526C65.7971 40.6349 67.5545 40.8043 68.9385 40.875C71.2209 40.9956 73.5436 40.9749 75.624 41.9983C75.8455 42.1079 76.8355 42.9303 76.8355 42.9303C76.8355 42.3284 76.8453 41.7071 76.6336 41.1259C76.1196 39.6627 74.9069 38.7599 73.7247 37.8486" fill="var(--fill-0, #F28A01)"/>
<path id="Vector_3" fill-rule="evenodd" clip-rule="evenodd" d="M34.3683 18.945C34.8737 18.733 34.8737 18.733 34.9141 18.733C34.7526 18.794 34.5507 18.9036 34.3683 18.9438M45.4373 19.5042C43.3973 18.6819 41.4282 18.2908 39.2365 18.1714C39.2365 18.0508 39.2463 17.9302 39.256 17.8108C41.6803 17.8595 43.9835 18.4211 46.0639 19.3836C45.8509 19.4141 45.6392 19.464 45.4373 19.5042ZM39.2267 19.5042V18.8122C39.265 18.8204 39.3087 18.8236 39.3576 18.822C39.3882 18.8731 39.3882 18.8731 39.4188 18.9828C39.9732 19.0827 39.5289 19.4043 39.2267 19.5042ZM39.2267 19.6943V19.514C39.279 19.5287 39.3294 19.5491 39.3772 19.5749C39.3772 19.704 39.3478 19.6846 39.2267 19.6943ZM32.9243 19.704C32.9035 19.6846 32.9035 19.6846 32.8435 19.6651C32.8741 19.6541 32.9047 19.6346 32.9438 19.6249C32.9341 19.6541 32.9243 19.6736 32.9243 19.704ZM44.8511 19.7248C44.8817 19.6346 44.9025 19.6443 44.9833 19.6638C44.9364 19.6775 44.8919 19.698 44.8511 19.7248ZM38.2868 19.765C38.206 19.7443 38.1253 19.715 38.0445 19.6943C38.1547 19.6846 38.2562 19.6651 38.3676 19.6541C38.337 19.704 38.337 19.7564 38.2868 19.765ZM32.2781 19.9343C32.3185 19.9039 32.3185 19.9039 32.3393 19.9136C32.3174 19.9149 32.2963 19.9221 32.2781 19.9343ZM38.2158 20.2949C38.1351 20.2547 38.0849 20.1548 38.0139 20.0842C38.1852 19.9843 38.348 19.9745 38.5401 19.9745C38.4178 20.0744 38.277 20.1451 38.2158 20.2949ZM45.0934 20.3948C45.0836 20.2547 45.0836 20.1244 45.0738 19.994C45.0934 19.9843 45.0934 19.9843 45.2048 20.1146L45.1436 20.1439C45.1338 20.2852 45.1338 20.2852 45.1546 20.3851C45.1448 20.3835 45.1244 20.3867 45.0934 20.3948ZM44.9319 20.8456C44.8107 20.7664 44.9221 20.7153 45.0127 20.6361C45.0432 20.6556 45.0432 20.6556 45.0641 20.7555C44.9931 20.7555 44.9723 20.7859 44.9319 20.8456ZM38.6503 20.8663C38.6503 20.7567 38.5291 20.6556 38.4581 20.5752C38.6001 20.5752 38.6001 20.5752 38.7421 20.5849C38.791 20.6556 38.7616 20.736 38.7421 20.8164C38.7213 20.8456 38.6809 20.8554 38.6503 20.8651M39.6709 20.9346L39.6403 20.8152C39.6709 20.8249 39.7113 20.8249 39.7504 20.8347C39.762 20.8611 39.7726 20.8879 39.7823 20.9151C39.7407 20.9248 39.7003 20.9248 39.6709 20.9346ZM38.2158 20.9553C38.1771 20.8692 38.1334 20.7854 38.0849 20.7043C37.9038 20.7043 37.7618 20.8249 37.6003 20.8249C37.4779 20.6543 37.0043 20.7043 36.8024 20.6945C36.8024 20.3632 35.9335 20.5045 35.7414 20.5045V20.3741L36.3888 20.3437C36.4181 20.3132 36.4181 20.3132 36.4181 20.2438C36.3888 20.2231 36.3888 20.2231 35.712 20.0232C35.712 20.0025 35.712 19.9733 35.7218 19.9526C36.1464 19.8917 36.4193 19.8722 36.8232 19.983C36.8232 20.0025 36.833 20.0232 36.833 20.044C36.8573 20.0618 36.8846 20.075 36.9137 20.0829C36.9137 20.1634 36.833 20.2036 36.833 20.2937C37.1964 20.5045 37.5501 20.6543 37.9637 20.5045C38.2868 20.524 38.2868 20.524 38.337 20.5447L38.3676 20.8858C38.2966 20.9248 38.2574 20.9346 38.2158 20.9553ZM41.055 21.1953C40.9938 21.0454 40.7613 21.0649 40.6205 21.0552C40.6095 20.965 40.6095 20.8846 40.5496 20.8152C40.4578 20.8152 40.4076 20.8846 40.3366 20.9346C40.3073 20.6945 40.3171 20.6848 40.1347 20.5544V20.5142C40.1771 20.4934 40.2213 20.4767 40.2669 20.4643C40.5997 20.6641 40.913 20.5837 41.2667 20.6738C41.2863 20.714 41.3071 20.7652 41.3279 20.8152C41.2263 20.7944 41.044 20.7055 40.9534 20.775C40.9534 20.8042 40.9436 20.8359 40.9436 20.8651L41.1859 20.9845C41.1553 21.0052 41.1345 21.015 41.1149 21.0357V21.1051C41.1345 21.1258 41.1651 21.1453 41.1859 21.166C41.1345 21.1855 41.1358 21.1855 41.055 21.1953ZM38.9428 21.3049C38.922 21.2854 38.9011 21.2659 38.8816 21.2562C38.9122 21.2562 38.9317 21.2452 38.9623 21.2452V21.2964C38.9509 21.2948 38.9444 21.298 38.9428 21.3062M38.2856 21.3171C38.255 21.2867 38.255 21.2867 38.255 21.2465H38.5487V21.2672C38.3774 21.2976 38.3774 21.2976 38.2856 21.3171ZM40.1335 21.5279C40.1237 21.5072 40.1139 21.4974 40.1041 21.4779C40.1237 21.4572 40.1445 21.4268 40.1739 21.4377V21.5279H40.1335ZM40.5373 21.668C40.5177 21.6473 40.4982 21.618 40.4774 21.5973L40.5985 21.6278C40.5985 21.6375 40.6083 21.6473 40.6083 21.6582C40.5789 21.6582 40.5569 21.668 40.5373 21.668ZM38.397 21.668C38.3774 21.5876 38.3174 21.5876 38.2366 21.5376C38.3774 21.5376 38.7922 21.4877 38.4581 21.5778C38.4424 21.6108 38.4218 21.6411 38.397 21.668ZM39.5693 21.908L39.5387 21.8788C39.5497 21.8788 39.5693 21.8885 39.5901 21.8885L39.5693 21.908ZM33.984 22.84C33.913 22.8397 33.8422 22.8331 33.7723 22.8205C33.8335 22.7401 33.8739 22.6305 33.984 22.6707L34.0146 22.8303C34.0049 22.84 33.9951 22.84 33.984 22.84ZM34.1664 22.851C34.1441 22.845 34.1233 22.8347 34.1052 22.8205C34.1468 22.7998 34.1872 22.7901 34.2374 22.7998C34.239 22.812 34.2455 22.8291 34.2569 22.851H34.1664ZM39.7101 23.2409C39.6807 23.2116 39.6807 23.2116 39.5901 23.1921C39.5901 22.9606 41.2863 21.7789 41.509 21.6083C41.2765 21.5973 41.2361 21.5876 41.0941 21.417C41.2655 21.3878 41.7305 21.3269 41.8419 21.3768C42.2261 21.1271 42.2261 21.1271 42.2763 21.0661C42.0536 20.9358 41.8321 20.7957 41.6094 20.6763C41.7709 20.4545 41.2153 20.4545 41.0746 20.3546C40.8824 20.0342 40.8726 20.1548 40.5288 20.3449C40.2351 20.1341 40.0246 20.0939 39.6599 20.0744C39.6501 20.0842 39.6403 20.0842 39.6305 20.0939C39.4592 19.9441 39.398 20.033 39.2267 20.1841C39.2267 20.3449 39.3074 20.3753 39.4176 20.4752C39.4176 20.5459 39.3564 20.5849 39.3172 20.6349C39.2897 20.6056 39.2594 20.579 39.2267 20.5557C39.2157 21.4073 39.2059 22.2589 39.2059 23.1215H39.0541C39.0541 22.8205 39.0443 22.5099 39.0443 22.2089C39.02 22.2345 38.9884 22.2519 38.9538 22.2589C38.8828 22.1785 38.8118 22.109 38.7408 22.0286C38.7519 21.9982 38.7519 21.9982 38.802 21.9677C38.8118 21.9884 38.8326 22.0189 38.8522 22.0481C38.9134 22.0591 38.9844 22.0688 39.0541 22.0786C39.0749 21.8288 39.0749 21.8288 39.0749 20.2145C39.0137 20.1743 38.9648 20.1244 38.9134 20.1049C38.873 20.1341 38.8326 20.1841 38.7714 20.1841C38.7086 20.1045 38.6515 20.0245 38.6001 19.9441L38.9134 19.9136C38.944 19.8844 38.944 19.8844 38.944 19.8137C38.9134 19.793 38.9134 19.793 38.6503 19.7235L39.0847 19.6931C39.0847 19.3922 39.0945 19.0924 39.0945 18.8013C37.7006 18.7209 37.7006 18.7209 37.6003 18.7111C37.3066 18.4906 37.3066 18.4906 37.2368 18.4711C36.9333 18.5503 36.3068 18.6417 36.8942 18.8208C36.7828 18.8719 36.6812 18.9316 36.5797 18.9913C36.5797 19.1619 36.8122 19.1521 36.9443 19.1923V19.2216C36.762 19.302 37.0655 19.4226 37.1059 19.4324C37.1042 19.4713 37.1075 19.5051 37.1157 19.5335C36.8122 19.5432 36.5099 19.5627 36.2162 19.5725V19.4823C36.1758 19.4336 36.0853 19.4421 36.0241 19.4336V19.3629C35.9543 19.2923 35.8527 19.3629 35.772 19.3922C35.5603 19.1826 35.247 19.5225 35.1968 19.743C35.0353 19.7235 34.8737 19.7138 34.7122 19.7028C34.6718 19.6638 34.6914 19.6127 34.6608 19.5725C34.4393 19.5725 34.1958 19.6529 33.9755 19.6943C34.0127 19.6765 34.0466 19.6526 34.0758 19.6236V19.5432C34.055 19.5335 34.0354 19.5128 34.0146 19.503C33.4089 19.7138 33.4089 19.7138 33.3783 19.7028C33.8433 19.1826 34.6314 19.1521 35.1662 18.7611V18.6916C35.1447 18.6718 35.1209 18.6546 35.0952 18.6404C37.2674 17.7791 39.7921 18.4699 41.9532 18.822C42.9531 19.2423 43.9431 19.6529 44.9429 20.0744C44.9429 20.4448 44.9319 20.4947 44.6798 20.7457C44.6798 20.9163 44.9319 20.926 44.9527 21.1271C44.9833 21.1368 45.0237 21.1465 45.0628 21.166C45.0836 21.3171 45.1142 21.4779 45.1448 21.6375C44.8107 21.7374 43.8317 22.1492 43.5294 22.0883C43.1746 21.3975 43.1954 21.4779 42.428 21.3671C42.428 21.3061 42.417 21.2465 42.417 21.177C41.4787 21.8163 40.5743 22.5053 39.7101 23.2409ZM30.8145 19.793C32.8447 19.6224 34.9459 20.7555 36.5711 21.8276C36.5405 21.8276 36.5405 21.8276 35.9751 21.6473C35.865 21.5072 35.865 21.5072 35.8442 21.4974C35.7132 21.6278 35.4501 21.5973 35.2886 21.5376C35.2788 21.4974 35.258 21.467 35.2886 21.428C35.269 21.4073 35.0255 21.428 34.9753 21.4073C34.9753 21.2976 34.9961 21.2367 35.0365 21.1161C34.5103 20.6653 33.4407 20.8968 32.8753 21.1563C32.8753 21.2574 33.2486 21.166 33.2486 21.4073C33.3501 21.4572 33.4603 21.4974 33.5716 21.5474C33.5726 21.6317 33.5515 21.7148 33.5104 21.7886C33.5406 21.8073 33.5712 21.8304 33.6022 21.8581C33.6006 21.88 33.6039 21.9068 33.612 21.9385C33.5508 21.9994 33.4603 21.9994 33.4199 22.0688C33.4603 22.1492 33.5117 22.2296 33.5521 22.3088C33.601 22.3088 33.6622 22.3198 33.7234 22.3295C33.8139 22.4697 33.6426 22.5001 33.5313 22.5403C33.5038 22.6159 33.4801 22.6927 33.4603 22.7706C31.1474 22.6707 28.7439 22.5696 26.5117 23.2823C26.3208 23.3615 26.1886 23.4224 26.0981 23.4626C27.4501 21.9823 29.045 20.7415 30.8145 19.793ZM31.9771 23.8232C31.9355 23.8025 31.9049 23.7928 31.8645 23.7623C31.8755 23.6319 31.8755 23.4918 31.8853 23.3615C31.9954 23.2811 32.097 23.1714 32.2279 23.1312C32.2279 23.342 32.2585 23.2214 32.3197 23.3322C32.239 23.4114 32.1973 23.4114 32.2181 23.5418C32.2793 23.5625 32.2793 23.5625 32.3503 23.5527C32.2989 23.6721 32.0884 23.772 31.9771 23.8232ZM35.2678 25.2657C35.2874 25.2462 35.2874 25.2462 35.3583 25.256C35.3277 25.256 35.2972 25.2657 35.2678 25.2657ZM36.1464 25.3169C36.1159 25.3169 36.0853 25.3059 36.0657 25.3059V25.2657L36.1868 25.2962C36.166 25.3059 36.1464 25.3059 36.1464 25.3169ZM29.9542 25.3169L29.8942 25.2864C29.9248 25.2767 29.9554 25.2657 29.975 25.2657C29.9652 25.2864 29.9652 25.2962 29.9554 25.3169M29.2493 25.697C29.2395 25.6471 29.2395 25.6069 29.2395 25.5666C29.4414 25.4862 29.5626 25.3766 29.7535 25.3352C29.7241 25.4168 29.7143 25.4972 29.6935 25.5764C29.4414 25.5874 29.461 25.5874 29.2493 25.6982M32.1374 26.4499C32.0746 26.4093 32.0175 26.3691 31.9661 26.3293H32.4715V26.35C32.3601 26.3902 32.239 26.4195 32.1374 26.4499ZM28.2899 26.64C28.1993 26.1588 28.1993 26.1588 28.1993 26.0893C28.2996 26.1697 28.34 26.2099 28.4612 26.199C28.482 26.0796 28.5126 25.9687 28.5419 25.8578L29.007 25.9492C28.7843 26.1685 28.6227 26.2794 28.5419 26.5803C28.4514 26.5998 28.3706 26.6205 28.2899 26.6412M25.775 26.7716C25.917 26.612 26.0577 26.562 26.2596 26.4719C26.2694 26.5109 26.2694 26.5109 26.2498 26.601C26.0867 26.6538 25.9284 26.7107 25.775 26.7716ZM30.6224 26.8118L30.593 26.7509C30.5026 26.7483 30.4127 26.7658 30.3299 26.802C30.2685 26.7528 30.2005 26.7122 30.128 26.6814C30.128 26.601 30.1585 26.5511 30.1989 26.4816C30.3495 26.4609 30.7129 26.5011 30.7129 26.311C30.6835 26.2903 30.6529 26.2708 30.6334 26.2611C30.6334 26.2513 30.6529 26.2404 30.6627 26.2306C30.6831 26.2323 30.7035 26.2392 30.7239 26.2513C30.7545 26.3415 30.7545 26.3415 30.7949 26.4012C30.8145 26.4012 30.8353 26.4109 30.8561 26.4109C30.8757 26.3915 30.8953 26.3817 30.905 26.3707C30.8855 26.2903 30.8647 26.2209 30.8561 26.1514C30.8647 26.1514 30.8855 26.1612 30.905 26.1612C30.905 26.1709 30.9161 26.1904 30.9258 26.2002C31.1584 26.2111 31.2281 26.1904 31.3909 26.3513C31.0678 26.7021 31.0874 26.7618 30.6224 26.8118ZM28.6533 27.2333C28.6839 27.2029 28.7243 27.1931 28.7549 27.1724C28.7647 27.1931 28.7647 27.2029 28.7745 27.2236C28.7341 27.2236 28.6937 27.2333 28.6533 27.2333ZM29.3998 27.2821C29.532 27.1834 29.6837 27.0018 29.8648 27.0822V27.1127C29.7344 27.2215 29.57 27.2806 29.3998 27.2821ZM23.7656 28.0959C23.7949 27.9253 23.8284 27.7548 23.8659 27.5842C23.9773 27.5452 24.0984 27.505 24.2208 27.4746C24.2294 27.5952 24.2502 27.6756 24.189 27.7962C24.0275 27.7962 23.8769 27.996 23.7656 28.0959ZM47.1053 28.1166C46.863 27.8851 46.6097 27.6549 46.3674 27.4343C46.4995 27.5245 46.4995 27.5245 46.5289 27.5245C46.4677 27.3247 46.0149 26.9641 46.4481 26.9129C46.8116 27.2747 46.923 27.6049 47.1151 28.0862C47.1151 28.0959 47.1151 28.0959 47.1053 28.1166ZM24.1596 28.1264C24.1691 28.0515 24.1854 27.9777 24.2086 27.9058H24.2294C24.2404 27.9558 24.2502 28.0057 24.2698 28.0459L24.1596 28.1264ZM25.6135 28.1666C25.5425 28.1361 25.4825 28.1056 25.4115 28.0862L25.3504 27.6853C25.4018 27.4343 25.5731 27.2345 25.6037 26.9738C25.8558 26.8837 26.1079 26.8033 26.3612 26.7228C26.4114 26.573 26.4518 26.2221 26.6843 26.2221C26.6133 26.7728 26.3906 27.8461 25.7542 28.0252C25.715 28.0862 25.6844 28.1568 25.6135 28.1666ZM26.311 28.197C26.24 28.1056 26.1886 28.0362 26.0785 28.0057C26.1593 27.8851 26.4016 27.5745 26.5435 27.3442H26.6439C26.5423 27.6049 26.5215 27.7852 26.5019 28.0752C26.4366 28.1138 26.3738 28.1544 26.311 28.197ZM33.6108 28.3274C33.53 28.0959 33.4395 27.8766 33.3489 27.6451C33.3264 27.6351 33.3024 27.6285 33.2779 27.6256C33.3991 27.4746 33.5802 27.2041 33.7625 27.1541C33.8935 27.2845 33.9241 27.9765 33.9449 28.2263C33.8335 28.3067 33.7613 28.3079 33.6108 28.3274ZM32.3283 28.3554C32.2977 28.3262 32.2977 28.3262 31.8633 28.1751C31.8633 28.1349 31.8633 28.1349 32.2071 27.6037C32.54 27.6037 32.5914 27.5342 32.6722 27.1931C32.8741 27.0323 33.0858 26.8824 33.2975 26.7326V26.5121C34.4993 25.8505 35.6508 25.128 36.8734 24.4872C37.0447 24.4068 38.0139 23.8659 38.1559 23.9146C38.1657 23.9658 38.206 24.006 38.1755 24.0559C36.5503 24.7175 35.0047 25.6397 33.53 26.5718C33.5202 26.5815 33.5202 26.601 33.5202 26.6217C33.661 26.7021 33.661 26.7521 33.8433 26.7825C33.8335 26.802 33.8335 26.8313 33.8225 26.852C33.3991 27.2431 32.7517 28.2153 32.3283 28.3554ZM34.2888 28.4358C34.3169 28.3853 34.351 28.3382 34.3903 28.2957C34.4307 28.3249 34.4307 28.3249 34.4515 28.3761C34.4197 28.3956 34.4197 28.3956 34.2888 28.4358ZM26.836 28.6466C26.783 28.6076 26.7357 28.5739 26.6941 28.5455C26.7344 28.0459 26.6231 27.7535 26.8458 27.2431C26.967 27.1822 27.0979 27.1334 27.2191 27.0822C27.3512 26.9324 27.492 26.5413 27.6339 26.4719C27.6339 26.5413 27.6339 26.6217 27.6437 26.6912C27.7049 26.7521 27.7649 26.7021 27.8248 26.6619C27.8762 27.0031 27.8248 26.9019 28.2495 27.0323C28.2996 27.103 28.351 27.1627 28.4012 27.2333C28.4208 27.2333 28.5725 27.1931 28.5725 27.2431C28.0072 27.3637 28.1283 27.7645 27.815 27.9351C27.6841 27.9351 27.5519 27.9448 27.4308 27.9546C27.2288 28.1861 27.0379 28.4163 26.836 28.6466ZM24.8254 28.6758C24.785 28.4955 24.785 28.5053 24.5928 28.476C24.5231 28.3152 24.3114 27.9448 24.3518 27.7743C24.4729 27.7036 24.6442 27.5428 24.785 27.5428C24.8768 27.7243 24.9269 27.7341 25.1191 27.6939C25.0677 27.9448 25.0579 28.526 24.8254 28.6758ZM31.5524 28.9475C31.0164 28.4553 31.0164 28.4553 31.0066 28.4358C31.4508 27.9753 31.6026 28.4565 31.6528 28.8866C31.6406 28.902 31.6303 28.9187 31.6222 28.9365C31.6026 28.9365 31.5732 28.9365 31.5524 28.9475ZM30.6835 29.218L30.5122 29.1875C30.4608 29.0572 30.2895 28.7465 30.3201 28.6064C30.3495 28.5857 30.3813 28.5662 30.4009 28.5455C30.4009 28.6161 30.4106 28.6868 30.4204 28.7562C30.5526 28.6368 30.5526 28.6368 30.6224 28.5857C30.6933 28.6953 30.905 28.967 30.905 29.0974C30.8388 29.15 30.7638 29.1908 30.6835 29.218ZM30.8757 29.3179C30.905 29.2277 31.047 29.1973 31.0874 29.1071C30.9968 28.9475 30.7545 28.6259 30.7545 28.4565C30.9564 28.2957 31.1376 28.1556 31.2281 27.9241C31.6626 27.6634 32.0774 27.3734 32.491 27.0835C32.491 27.0725 32.4813 27.0628 32.4813 27.0628C32.4507 27.0628 32.4201 27.0725 32.3797 27.0725C31.8853 27.3332 31.2783 26.9823 30.7545 27.3527C30.7545 27.4636 30.7839 27.4746 30.8855 27.5135C30.8634 27.5541 30.8467 27.5944 30.8353 27.6342C30.7031 27.6342 30.6028 27.6342 30.4926 27.5537C30.0472 27.5537 30.0472 28.0545 29.6629 27.7036C29.9358 27.4636 30.2185 27.2236 30.4914 26.9823C30.6835 26.9519 30.8757 26.9324 31.0666 26.9129L31.4704 26.4512C31.6222 26.4512 31.6222 26.5218 31.6418 26.3305C31.7947 26.4207 31.9355 26.5011 32.0774 26.5913C32.562 26.5913 32.6526 26.311 33.1274 26.5218C33.1482 26.5815 33.1482 26.5815 33.1372 26.6924L32.168 27.4136C32.0468 27.5939 31.8351 28.0654 31.6418 28.1653C31.6736 28.5467 31.8253 28.7465 31.6332 29.0974C31.3909 29.168 31.129 29.2375 30.8757 29.3179ZM27.7538 29.5689V29.5384L27.6315 29.4775V29.3885C27.6927 29.3581 27.7428 29.3276 27.8028 29.3081C27.7942 29.1169 27.7942 29.1169 27.7135 28.6368C27.864 28.4663 27.8236 28.3359 27.8346 28.1056C28.0867 27.9546 28.0965 27.9241 28.1773 27.6549C28.3902 27.5233 28.6019 27.3235 28.8748 27.3625C28.8442 27.4331 28.8442 27.4538 28.8638 27.533C28.9862 27.533 29.0865 27.4733 29.1979 27.4136C28.9752 27.8035 28.8344 27.8449 28.4 27.9546C28.2287 28.2957 28.1871 28.8366 28.2678 29.2082C28.2482 29.257 28.2482 29.257 28.1675 29.3788C28.0451 29.3885 27.935 29.3983 27.8248 29.4178C27.7942 29.4275 27.7734 29.5689 27.7538 29.5689ZM28.794 29.8186C28.6227 29.4178 28.6521 28.9475 28.8038 28.5357C28.9348 28.4358 29.0657 28.3359 29.1979 28.225C29.5613 28.3152 29.4598 28.5053 29.6017 28.7367C29.6629 28.7367 29.7229 28.7465 29.7828 28.7465C29.7828 28.978 30.0668 28.727 30.1769 28.7063C30.2479 28.8768 30.3091 29.0474 30.3788 29.2082C30.2381 29.4482 29.9958 29.2277 29.8746 29.1278C29.6825 29.2277 29.4904 29.5384 29.3594 29.709C29.2676 29.7492 29.2676 29.7492 28.794 29.8186ZM28.5407 29.8588C28.2788 29.3374 28.4098 29.3179 28.3192 28.7562C28.4098 28.526 28.471 28.3055 28.5114 28.0545C28.7231 28.0143 29.0253 27.784 29.1673 27.784C29.1785 27.7969 29.1922 27.8072 29.2077 27.8145C29.1575 28.1653 28.925 28.275 28.6619 28.476C28.5921 28.9975 28.46 29.3581 28.6325 29.8393C28.6019 29.8491 28.5713 29.8491 28.5407 29.8588ZM22.9359 30.3206C22.8453 29.8588 22.8453 29.8588 22.8257 29.6688C23.0582 29.0072 23.2993 28.4565 23.6432 27.8535C23.6126 28.0155 23.593 28.1751 23.5624 28.3262C23.7644 28.5065 23.8561 28.0849 24.0165 28.0849C23.9969 28.1946 23.9663 28.2957 23.9761 28.3956C23.9915 28.4077 24.0083 28.418 24.0262 28.4261C23.9541 28.6326 23.8835 28.8398 23.8145 29.0474C23.7436 29.0072 23.6628 28.9475 23.593 28.9865C23.3703 29.4275 23.1586 29.8795 22.9359 30.3206ZM30.1169 30.4911C29.8342 30.4302 29.6617 29.9697 29.5112 29.7394C29.6205 29.5884 29.7449 29.4478 29.8844 29.3179C30.3287 29.6688 30.3189 29.1778 30.7019 29.3678C30.6407 29.4482 30.5918 30.1098 30.5514 30.2999C30.2883 30.2097 30.2883 30.2097 30.1965 30.4899L30.1169 30.4911ZM27.4002 30.5106C27.3781 30.5009 27.3614 30.4907 27.35 30.4802C27.35 30.3096 27.4712 30.0903 27.5213 29.9295C27.6621 29.899 27.7135 29.7589 27.7636 29.6286C27.7734 29.7991 27.8248 29.9989 27.8248 30.1293C27.7232 30.2304 27.5311 30.4802 27.4002 30.5106ZM24.6932 31.1527C24.8352 30.881 24.9759 30.6105 25.1276 30.3401C25.3198 30.3401 25.3601 30.3401 25.5009 30.2097C25.6624 30.3803 25.4005 30.5606 25.3088 30.6714C24.9355 30.6714 25.0163 30.7007 24.9355 31.0516C24.8645 31.0918 24.774 31.1125 24.6932 31.1527ZM27.5103 31.3525C27.4503 31.2428 27.3794 31.1417 27.3194 31.0418C27.4198 30.7616 27.6523 30.3108 27.9447 30.2194C27.875 30.4802 27.6829 30.8713 27.6829 31.121C27.6927 31.1417 27.7135 31.1527 27.733 31.1722C27.6425 31.2623 27.6425 31.2623 27.5115 31.3525M27.3304 31.3927C27.1787 31.2721 27.1187 31.2319 26.9364 31.2026C27.1285 30.881 27.1285 30.5606 27.1787 30.1792C27.3206 29.7894 27.5629 29.5092 27.3304 29.1376C26.825 29.1376 26.6635 30.3705 26.6231 30.7409C26.5827 30.7409 26.5423 30.7409 26.5129 30.7506C26.442 30.842 26.371 30.9919 26.2596 31.0114C26.5937 30.5606 26.6133 30.0891 26.7247 29.5384C26.8348 29.3678 27.1689 28.9171 26.967 28.716C27.1383 28.5065 27.3096 28.3063 27.4809 28.1154C27.5531 28.1044 27.6131 28.1044 27.6743 28.0947C27.6743 28.3055 27.7147 28.4358 27.5629 28.5857C27.5935 28.7964 27.6339 29.0072 27.6633 29.218C27.6021 29.2464 27.5417 29.2797 27.4822 29.3179C27.4822 29.3885 27.4822 29.4677 27.492 29.5494L27.5825 29.6091C27.5629 29.7894 27.4724 29.7187 27.3904 29.8393C27.3206 30.0696 27.2093 30.2999 27.1787 30.5411C27.2191 30.5606 27.2594 30.5813 27.3108 30.6105C27.3108 31.1527 27.0979 30.8518 27.3708 31.3927H27.3304ZM28.351 31.774C28.1883 31.5328 28.0378 31.2928 27.8762 31.0516C27.8762 30.7409 28.2299 30.3303 28.017 30.0891C27.9864 29.9697 27.9864 29.9697 27.9766 29.5579C28.1075 29.5287 28.1075 29.5287 28.2299 29.5384C28.4318 29.9283 28.5725 30.2999 28.8454 30.641C29.0376 31.0309 28.9458 31.132 28.7953 31.5426C28.6441 31.6136 28.4959 31.6909 28.351 31.774ZM27.8248 32.014C27.6229 31.8435 27.5017 31.7826 27.5017 31.5133C27.5825 31.4232 27.6841 31.2221 27.7954 31.1917C27.9362 31.4024 28.0671 31.6132 28.2189 31.824C28.1687 31.9141 27.9166 31.9141 27.8248 32.014ZM29.7547 32.3345C29.5724 32.2541 29.4316 32.2248 29.2995 32.1846C29.2383 31.9738 28.9972 31.9738 29.1783 31.7436C29.1281 31.6632 29.0474 31.6339 28.9666 31.5828C28.9666 31.4024 29.0877 31.1929 29.1587 31.0223C29.1587 30.641 28.7145 30.401 28.6631 30.0793C28.7745 30.0598 28.8344 30.0598 28.8552 29.949C29.0474 29.9295 29.2395 29.9002 29.4414 29.8795C29.8453 30.5106 29.8453 30.5106 29.9162 30.6008C30.4718 30.6714 30.2895 30.8323 30.2295 31.3427C30.4914 31.8642 30.4914 31.8642 30.5722 32.064L29.7547 32.3345ZM26.4212 32.3649C26.4212 32.2553 26.4322 32.2151 26.4823 32.1042C26.5827 32.1042 26.5827 32.1042 26.5827 32.1249H26.5533C26.5227 32.2346 26.4726 32.2748 26.4212 32.3649ZM29.0767 32.505L28.9862 32.4746C28.978 32.3844 28.9748 32.2943 28.9764 32.2041H29.1281V32.505H29.0767ZM23.7754 32.7658C23.604 32.6256 23.4217 32.4855 23.2406 32.3454C23.2406 30.9919 23.7852 29.5786 24.2196 28.3152C24.26 28.286 24.3004 28.2543 24.3518 28.2543C24.4423 28.4663 24.4325 28.6368 24.6748 28.6368C24.6846 28.7769 24.654 28.8866 24.8058 28.8866L25.1081 28.5857C25.3406 28.9975 25.3712 29.5177 25.4629 29.9794C25.3516 30.1098 25.1386 30.1001 25.0273 30.1902C24.6846 30.8518 24.4215 31.3525 23.9467 31.9141C23.8659 32.1749 23.8463 32.4648 23.806 32.7353C23.7852 32.756 23.7852 32.7658 23.7754 32.7658ZM22.089 33.007C22.22 32.0238 22.3619 30.9419 22.7352 30.0196C22.7755 30.2194 22.7144 30.6215 22.9775 30.591C23.6236 29.2472 23.6236 29.2472 23.7044 29.1376C23.7154 29.1571 23.735 29.168 23.7448 29.1778C23.4315 30.1695 23.2602 31.132 23.079 32.1639C22.8771 32.4149 22.8771 32.4149 22.8465 32.4246C22.745 31.9434 22.745 31.9434 22.7046 31.8532H22.614C22.4831 32.3954 22.4941 32.6561 22.089 33.007ZM29.5405 33.2263C29.5112 33.0764 29.4916 32.9266 29.4598 32.7865C29.4904 32.9266 29.5308 33.0764 29.5405 33.2263ZM41.2961 33.5772C41.2349 33.4773 41.1859 33.3969 41.1553 33.2872C41.2055 33.2775 41.2557 33.2775 41.3071 33.2665C41.3475 33.3164 41.3683 33.3469 41.3683 33.4078C41.3764 33.4062 41.3895 33.4094 41.4074 33.4176C41.4074 33.4578 41.3976 33.5077 41.3976 33.5479C41.3593 33.5577 41.3254 33.5674 41.2961 33.5772ZM48.4771 33.5979C48.4853 33.5175 48.4988 33.4371 48.5175 33.3566C48.4771 33.2665 48.3058 33.0155 48.3254 32.9266C48.5579 32.9558 48.5885 32.9668 48.7806 32.8364L48.9116 32.8657C48.7402 33.3067 48.9312 33.3688 48.4771 33.5979ZM48.5175 33.8367C48.5103 33.8213 48.4998 33.8076 48.4869 33.7965H48.5383C48.5481 33.8269 48.5481 33.8269 48.5175 33.8367ZM23.0974 34.9393C22.9873 34.7894 22.8759 34.6286 22.7645 34.4787C22.663 34.1071 22.9053 33.5967 22.6728 33.2957H22.603C22.4926 33.4895 22.3881 33.6865 22.2897 33.8866C22.2799 33.8866 22.2689 33.8976 22.2591 33.8976C22.1979 33.6661 22.1282 33.4358 22.078 33.2056C22.4513 32.8449 22.5222 32.784 22.6434 32.2833C22.7339 32.745 22.7339 32.7645 23.057 32.3929C23.6836 32.8644 23.9051 32.9948 23.9761 33.7867C23.7966 34.1376 23.6114 34.4885 23.4205 34.8394C23.1782 34.9295 23.1782 34.9295 23.0974 34.9393ZM27.7024 35.0903C27.7024 35.0794 27.6927 35.0696 27.6927 35.0696C27.7135 35.0501 27.733 35.0209 27.7538 35.0002C27.7538 35.0294 27.7636 35.0599 27.7636 35.0903H27.7024ZM29.9444 35.1391C29.8037 35.0002 29.844 34.7395 29.8342 34.5482C30.2075 34.5092 29.5405 34.1071 29.6629 33.8781C29.6629 33.7965 29.6519 33.7075 29.6421 33.6271C29.844 33.9682 30.0362 34.3082 30.2381 34.6493C30.2173 34.659 30.046 34.5884 29.9848 34.5884C29.8942 34.7187 29.9444 34.9904 29.9444 35.1403M30.9442 35.3523C30.8634 35.3218 30.8634 35.3218 30.1071 35.1915V34.7809C30.2283 34.8101 30.3592 34.8101 30.4094 34.9307C31.0152 34.9916 30.7937 34.4702 30.8133 33.9585L31.0556 33.7185C31.1265 33.7477 31.1168 33.8281 31.2073 33.8379C31.2575 34.4897 31.2575 34.4897 31.2575 34.6798C31.1168 34.9003 30.9148 35.0818 30.9846 35.3523H30.9442ZM27.9252 35.6422C27.8946 35.4924 27.733 35.4826 27.5923 35.4315C27.5923 35.362 27.5813 35.2914 27.5813 35.2219H27.875C28.0659 34.921 27.6927 34.5896 28.2886 34.6006C28.4808 34.7809 28.6827 34.9612 28.8846 35.1318C28.8748 35.1512 28.8748 35.1512 28.7622 35.1915C28.4098 35.8323 28.4 35.3316 27.9252 35.6422ZM22.6336 35.8932C22.603 35.7531 22.603 35.7531 22.5724 35.7032C22.5516 35.6922 22.5222 35.6922 22.5014 35.6922C22.4402 34.9405 22.2285 34.3191 22.5724 33.6576C22.5932 34.3788 22.5822 34.4702 22.9762 35.0221C22.9359 35.3511 22.9151 35.6824 22.6336 35.8932ZM24.632 36.0029C24.2894 35.7726 24.1376 34.6298 24.0666 34.179C24.3799 34.1388 23.9259 33.0167 23.9565 32.8267C23.9715 32.8146 23.988 32.8044 24.0054 32.7962C24.0262 32.6756 24.0568 32.0652 24.0776 32.0043C24.3395 31.7034 24.5512 31.3525 24.9257 31.1917C24.9453 31.3622 24.9453 31.3622 25.0163 33.0971C25.0872 33.1568 25.1472 33.1861 25.228 33.2275C25.31 33.1861 25.3797 33.0667 25.4409 32.9863C25.6832 32.9863 25.7946 33.7782 25.7946 33.989C24.6626 35.9834 24.6626 35.9834 24.632 36.0029ZM27.1469 36.1235C26.9755 35.7421 27.0857 35.4619 27.4406 35.2317C27.4406 35.3316 27.4601 35.4315 27.4601 35.5326C27.5719 35.574 27.6833 35.6106 27.7942 35.6422C27.8138 35.7823 27.8138 35.7823 27.8138 35.853C27.6217 35.7823 27.6217 35.7823 27.41 35.7324C27.4002 35.7531 27.3794 35.7726 27.3696 35.7933C27.4002 35.8725 27.4406 35.9529 27.4712 36.0431C27.3488 36.0735 27.2484 36.104 27.1469 36.1235ZM22.0168 36.3135C21.9618 35.3957 21.9618 34.4755 22.0168 33.5577C22.1992 34.2192 22.4109 34.9904 22.3301 35.6824C22.1074 36.104 22.1074 36.104 22.0168 36.3135ZM46.4983 36.5048C46.4983 36.3038 46.5387 36.0735 46.2854 36.0833C46.3258 35.864 46.3772 35.6422 46.4163 35.4315C46.4971 35.412 46.5681 35.4022 46.6488 35.3913C46.71 35.1915 46.71 34.9904 46.7908 34.7906C46.8312 34.7906 46.8716 34.7809 46.9119 34.7809C46.9022 34.9405 46.9021 34.9405 46.9217 35.3523C46.7198 35.7726 46.5485 35.8031 46.9119 36.0735C46.8104 36.4147 46.8226 36.4147 46.4983 36.5048ZM48.1834 36.6754C48.2838 36.3038 48.4453 36.2331 48.7488 36.0029C48.7488 35.8128 48.7488 35.8128 48.728 35.5618C48.7488 35.5521 48.7794 35.5521 48.8088 35.5521C49.1123 35.0306 48.7794 34.5701 48.8198 34.0389C49.1833 34.3094 49.3044 34.871 49.3546 35.3218C49.2126 35.3218 49.1833 35.7032 49.1429 35.8128C48.6778 35.9334 48.9911 35.9627 48.9104 36.294C48.9006 36.294 48.8896 36.3038 48.8798 36.3038C48.8394 36.2538 48.8088 36.2039 48.7696 36.1637H48.6876C48.5163 36.3342 48.3548 36.5048 48.1834 36.6754ZM36.8318 36.7241C36.5686 36.6352 35.9127 36.3038 35.6594 36.344C35.4685 36.5048 35.4783 36.4744 35.2959 36.3135C34.9826 36.3135 34.7208 36.584 34.3977 36.6145C34.3267 36.5527 34.2444 36.5051 34.1554 36.4744L33.973 35.6325C33.7711 35.5825 33.3979 35.5521 33.3477 35.3413C33.6096 34.9709 33.5998 35.0416 33.4578 34.5896C33.2865 34.5896 33.125 34.6505 32.9634 34.7102C32.7921 34.6603 32.6306 34.6103 32.458 34.5701C32.3271 34.1595 32.4091 34.0389 32.6807 33.7977L32.8325 33.3164C33.2767 33.3372 33.2865 33.2677 33.4382 33.6381C33.5288 33.6783 33.8115 33.6783 33.8825 33.6283L33.8519 33.3067C33.8923 33.2969 33.9326 33.2872 33.9938 33.2775C34.0053 33.2393 34.022 33.2056 34.044 33.1763C34.2557 33.1568 34.2361 33.1361 34.2459 32.9266C34.6804 32.9363 35.1148 32.9461 35.559 32.9668L35.6802 33.3164C35.8013 33.3566 35.9225 33.3969 36.0534 33.4273C36.0534 33.4882 36.0742 33.5479 36.1146 33.5881C36.5589 33.5077 36.5589 33.5077 36.6188 33.5077L36.9529 34.4702C37.0239 34.5396 37.0936 34.4799 37.1854 34.4799C37.276 34.6006 37.5281 34.6006 37.67 34.6103C37.8818 34.8101 37.9429 34.9307 38.2354 34.9405C38.266 34.9807 38.2966 35.0111 38.3358 35.0501C38.2746 35.2109 38.1449 35.1318 38.1033 35.4315C37.9221 35.4424 37.73 35.4619 37.5379 35.4717C37.4975 35.5618 37.4975 35.5618 37.4167 35.9127C36.751 36.0528 36.9223 35.9834 36.8611 36.7253L36.8318 36.7241ZM42.1233 36.7948C41.558 36.4646 41.1039 36.5852 40.5178 36.6949L39.9426 36.2441C39.2658 36.0528 39.2658 36.0528 39.1838 36.0126C39.0933 35.6227 39.0125 35.3511 38.6699 35.0806V35.0513C38.8314 34.9612 38.9929 34.8808 39.1643 34.7906C39.5583 34.8199 39.9426 34.8515 40.3464 34.8515C40.4872 34.6603 40.366 34.3886 40.508 34.1693C40.6585 34.179 40.6585 34.179 40.9216 34.2497C41.2447 34.5908 41.1945 34.7102 41.5788 34.4397C41.8504 34.4702 42.4366 34.6103 42.6789 34.5299C43.0926 34.2387 43.2137 34.14 43.7093 34.0791C43.8097 34.6907 43.7289 34.5494 44.2649 34.4397L44.446 34.6201C44.4155 34.7005 44.2955 34.7699 44.2245 34.8211C44.0422 35.0209 43.8611 35.2414 43.6885 35.4522C43.538 35.4717 43.3765 35.4814 43.2443 35.5521C43.2443 35.6727 43.3153 35.7628 43.3667 35.8725C43.3765 36.1442 42.3559 36.7546 42.1233 36.7948ZM34.8321 37.0957C34.7208 36.9958 34.6192 36.8947 34.5188 36.8045C34.5188 36.785 34.5286 36.7753 34.5286 36.7558C34.5996 36.7253 34.6804 36.7046 34.7514 36.6742C34.8321 36.796 34.9729 36.9458 35.0034 37.086C34.952 37.0843 34.8949 37.0876 34.8321 37.0957ZM47.1029 37.2565C46.9707 36.8155 46.8703 36.6242 47.0221 36.2039C47.0625 36.2234 47.0625 36.2234 47.4455 36.6145C47.3953 36.9056 47.3647 37.0762 47.1029 37.2565ZM35.1552 37.3966C34.8321 37.3662 34.4479 37.2163 34.3475 36.8654C34.4576 36.8654 34.7 37.1457 34.7807 37.2261C34.8823 37.2163 35.1148 37.2261 35.2054 37.1651C35.2054 36.9946 35.0034 36.7948 34.9031 36.6547C34.9031 36.6352 34.9129 36.6145 34.9129 36.5937C35.3779 36.3939 35.2152 36.6949 35.4978 36.6352C35.8919 36.3635 36.226 36.6949 36.6494 36.8155C36.6494 36.8252 36.6592 36.835 36.6592 36.8447C36.4377 36.9544 36.215 37.0652 36.0033 37.1761C35.2861 37.2858 35.2861 37.2858 35.2568 37.3065C35.2458 37.3357 35.236 37.3552 35.2262 37.3869C35.2054 37.3966 35.1858 37.3966 35.1552 37.3966ZM48.203 37.4965C48.1759 37.3658 48.1088 37.2466 48.0109 37.1554C48.0219 37.1359 48.0317 37.1164 48.0415 37.1067C48.1222 37.1262 48.1222 37.1262 48.2336 37.1761C48.2238 37.276 48.2238 37.3869 48.2128 37.4868C48.2046 37.4852 48.2014 37.4884 48.203 37.4965ZM23.5808 37.4965C23.3385 37.4356 23.1464 37.1457 22.9652 36.9751V36.0735C23.0154 35.7324 23.1366 35.412 23.1977 35.0708C23.2981 35.0416 23.4095 35.0221 23.5208 35.0014C23.713 34.6395 23.8941 34.2899 24.0862 33.939C24.096 33.9682 24.1058 34.0085 24.1168 34.0487C23.8133 34.1096 24.3591 35.864 24.4191 36.093C24.3383 36.3038 24.2673 36.534 24.1866 36.7546C23.6518 36.4646 23.6616 37.2663 23.6616 37.5063C23.6212 37.4965 23.6004 37.4965 23.5808 37.4965ZM33.7613 37.8474C33.7307 37.8279 33.7001 37.817 33.6806 37.8072C33.6708 37.2358 33.4077 37.0555 33.065 36.584C32.994 36.2843 33.0136 36.1637 32.7615 35.9931C32.7615 35.7738 32.9035 35.7531 32.5902 35.5521C32.4384 35.5423 32.2867 35.5423 32.1447 35.5423C32.2557 35.2702 32.367 35.003 32.4788 34.7407C32.6 34.7407 32.7309 34.7699 32.8521 34.8016C32.6709 35.4022 32.6905 35.2524 33.2767 35.4814C33.2963 35.5119 33.3073 35.5423 33.3269 35.5728C33.519 35.6215 33.7001 35.6824 33.8923 35.7324C33.9424 36.0029 34.0036 36.2733 34.0636 36.5438C34.115 36.584 34.2557 36.6547 34.3475 36.7144C34.1346 36.7448 34.2361 36.8045 34.2361 36.9861C33.8519 37.1664 33.9131 37.1359 34.0342 37.527C33.973 37.6269 33.9229 37.7268 33.8629 37.817C33.8277 37.8222 33.7935 37.8324 33.7613 37.8474ZM29.0045 37.8474L28.5799 37.3966C28.4086 36.9458 27.9435 36.2441 28.0451 35.7519C28.6509 35.7129 28.5799 35.7933 28.8932 35.3121C29.1061 35.2914 29.1661 35.3316 29.3582 35.4424C29.4084 35.9224 29.439 35.9541 29.1563 36.3135C29.1563 36.7948 29.2175 37.2858 29.2065 37.767L29.1159 37.7378C29.0547 37.767 29.0547 37.7767 29.0351 37.8474H29.0045ZM32.7309 37.9571C32.6581 37.9154 32.5843 37.8756 32.5094 37.8377C32.387 37.1067 31.9134 36.6352 31.4888 36.0224C31.55 36.0224 31.6907 36.0638 31.7923 36.0638C31.873 35.9334 31.873 35.9334 31.9734 35.7226C32.1655 35.7129 32.3479 35.7019 32.5388 35.7019C32.7101 35.8725 32.5694 35.8238 32.5694 36.0333C32.651 36.0942 32.7387 36.1543 32.8325 36.2136C32.9536 36.835 33.4982 37.1664 33.53 37.7573C33.1556 37.6476 33.0944 37.8364 32.7309 37.9571ZM22.2579 38.0886C22.1967 37.6878 22.1172 37.2967 22.0964 36.8861C22.4708 37.0774 22.4708 37.2979 22.6018 37.6878C22.5002 37.7975 22.3387 37.9388 22.2885 38.0789C22.2787 38.0886 22.2787 38.0886 22.2579 38.0886ZM34.711 38.1496C34.6902 38.0192 34.6804 37.8888 34.6596 37.7682C34.3573 37.7682 34.3071 38.0192 33.9632 37.9083C34.1444 37.5574 34.1652 37.5879 34.0636 37.2066C34.4185 37.0567 34.4381 37.2273 34.7403 37.4868C34.8937 37.5079 35.052 37.5282 35.2152 37.5477C35.2054 37.6184 35.2054 37.6781 35.2054 37.7487C35.3669 37.8986 35.4073 37.9083 35.3767 38.1386C35.1442 38.1386 34.9227 38.1496 34.711 38.1496ZM35.2555 38.4797C35.3167 38.431 35.3877 38.3299 35.4685 38.3299L35.559 38.42C35.5089 38.4505 35.5089 38.4493 35.2555 38.4797ZM46.1532 39.1924C46.0431 39.0828 46.2841 38.872 46.3551 38.8026C46.1838 38.7624 45.9611 38.7916 45.9917 38.5918C46.0822 38.5614 46.1838 38.5309 46.2744 38.5114C46.0321 38.2909 45.8803 38.1094 45.567 38.0399C45.4263 37.7597 45.7689 37.3089 45.9219 37.1079C45.8607 37.1079 45.7995 37.1079 45.7383 37.1188C45.6678 37.2163 45.6008 37.3162 45.5376 37.4186C45.3345 37.4186 45.1032 37.2285 44.9307 37.1286C44.9184 37.1001 44.9118 37.0695 44.9111 37.0384L45.5168 36.0455C45.5266 36.0455 45.5474 36.0358 45.567 36.0358C45.9305 37.0275 46.2438 38.0399 46.5167 39.0621C46.5167 39.073 46.5069 39.0828 46.4959 39.1023C46.2548 39.1827 46.2548 39.1827 46.1532 39.1924ZM23.9247 39.3338C23.6285 38.9762 23.3929 38.5729 23.2271 38.1398C22.8943 38.0911 22.8343 38.4712 22.7621 38.7015H22.7327C22.6116 38.5516 22.4806 38.4115 22.3595 38.2714C22.3999 38.0801 22.6214 37.8998 22.7425 37.7499C22.7131 37.4795 22.581 37.2078 22.4904 36.958C21.8638 36.6266 22.0658 36.6071 22.2885 36.0358C22.2885 36.2063 22.2383 36.5669 22.3387 36.7071H22.3999C22.5002 36.5864 22.45 36.0163 22.45 35.8542H22.4904C22.4904 35.9359 22.5002 36.0163 22.5516 36.0857C22.6617 36.0857 22.7425 36.0053 22.8233 35.9359C22.8233 36.2965 22.8135 36.6668 22.8135 37.0275C23.0962 37.2992 23.2675 37.5891 23.6616 37.6391C23.6616 37.8998 23.6616 38.1703 23.6726 38.431C23.9247 39.3228 23.9247 39.324 23.9247 39.3338ZM32.923 39.7127C32.5804 39.603 32.2255 39.4824 31.8828 39.3715C31.8828 39.2217 32.1557 39.1413 32.1557 38.961C32.0709 38.8681 31.9831 38.7779 31.8926 38.6905C31.9734 38.4395 32.0848 37.9692 32.4384 37.9692C32.7713 38.1191 32.983 38.1398 33.2559 37.8389C33.5594 37.929 33.8727 38.0289 34.175 38.1288C34.2851 38.0696 34.3993 38.0094 34.5176 37.9485C34.5592 38.2287 34.5592 38.2287 34.5788 38.2799C34.64 38.2994 34.64 38.2994 35.2555 38.3092C35.0842 38.4797 34.5996 38.3396 34.4479 38.5504C34.4479 38.721 34.4479 38.8014 34.3475 38.9403H34.0746C34.0036 39.0816 33.9326 39.2327 33.8629 39.3728C33.3673 39.3825 33.3673 39.3825 33.1653 39.402L32.983 39.7029C32.9634 39.7029 32.9438 39.7127 32.923 39.7127ZM30.0545 40.2439C29.9933 40.1829 29.9236 40.1342 29.8624 40.0843C29.8624 40.0343 30.287 39.893 30.3372 39.8735C30.3372 39.904 30.0741 40.2341 30.0545 40.2439ZM29.7939 40.9456C29.2884 40.8652 28.8944 40.6849 28.4306 40.4753C28.2482 40.5046 28.0757 40.6155 27.9044 40.6849C27.7734 40.1842 27.4601 40.094 26.9963 40.0026C26.9156 39.5823 26.825 39.162 26.743 38.7404C26.754 38.5309 26.8238 38.0996 26.8446 37.8584C26.7136 36.5353 26.7136 36.5353 26.7026 36.2953C26.7944 36.1856 26.8446 36.1344 26.8544 35.9943C26.7638 35.9334 26.6733 36.0443 26.6023 36.0942C26.6219 35.7336 26.6219 35.7336 26.6121 35.4826H26.5117C26.3795 36.0747 26.3086 36.7156 26.2278 37.3272C26.1579 37.3146 26.0871 37.3081 26.0161 37.3077C24.9661 35.8335 24.9661 35.8335 24.9453 35.7848C25.2488 35.2426 25.5621 34.7005 25.8643 34.1607C25.9867 34.4605 25.9867 34.4605 26.0063 34.4812C26.4713 33.7087 26.9559 32.9473 27.4809 32.2053C27.4406 32.0859 27.4002 31.9251 27.2986 31.8252C27.2288 31.835 27.1677 31.8544 27.1065 31.8654C27.1065 31.7947 27.1371 31.7046 27.0869 31.6546H26.9853C26.9364 31.7545 26.885 31.8447 26.8348 31.9446C26.6733 31.9251 26.6733 31.9653 26.6733 32.1152C26.655 32.1034 26.6338 32.0966 26.6121 32.0957C26.6427 32.0457 26.6219 31.9446 26.6121 31.8947C26.7222 31.5937 26.7026 31.4439 27.0159 31.3342C27.2986 31.4938 27.35 31.5438 27.4295 31.8654C27.5311 31.9446 27.6425 32.036 27.7428 32.1249C27.733 32.2053 27.7135 32.2857 27.7024 32.3759C27.6731 32.3259 27.6535 32.3259 27.6119 32.3064C27.4503 32.5257 27.4503 32.5257 27.4308 32.5867C27.5617 32.6963 27.7024 32.8571 27.8836 32.806C27.9656 32.9972 28.1675 32.9875 28.3596 33.0277C28.8344 33.4687 28.6729 34.2302 29.4904 34.19C29.5405 34.1205 29.5405 34.1205 29.5613 34.1205C29.6225 34.2107 29.6825 34.3106 29.7425 34.4008C29.7229 34.4105 29.7021 34.4202 29.6935 34.4312C29.7229 34.8722 29.7131 34.9624 29.4708 35.3133C28.9752 35.0416 28.6019 34.4812 28.0463 34.4507L27.5311 34.1802C27.3598 33.8196 27.5519 33.7989 27.1469 33.6795C27.1065 33.5784 27.0661 33.4785 27.0367 33.3786C27.0573 33.3648 27.0816 33.3576 27.1065 33.3579C27.1065 33.2677 27.1065 33.258 27.0453 33.1873H27.0061C26.9351 33.2982 26.0271 34.4605 26.1372 34.7821C26.2682 34.8613 26.4199 34.9319 26.4603 34.9624C26.5411 35.1123 26.7944 35.5838 26.9755 35.5435C26.9853 35.574 26.9853 35.574 26.885 35.8737C27.0061 36.1539 27.0061 36.1539 27.0869 36.2648C27.268 36.2648 27.4712 36.1954 27.6523 36.1552C27.6523 36.0747 27.6327 36.0248 27.6021 35.9444C27.7008 35.9736 27.8052 36.0069 27.9154 36.0443C28.1675 36.7058 28.3498 37.5477 28.985 37.9692C29.0559 38.5199 29.0963 39.1023 29.1171 39.653C29.3496 39.8528 30.6321 40.5947 29.7939 40.9456ZM25.1178 41.1869C24.6932 40.6142 24.4717 40.2938 24.178 39.6323C24.0568 39.2217 23.9357 38.8209 23.8243 38.42C23.8243 37.9595 23.8145 37.4977 23.8145 37.0372C23.9051 36.9763 23.9859 36.9154 24.0776 36.8569C24.1388 36.9264 24.1474 36.9361 24.2392 36.9568L24.5414 36.2051C24.6026 36.2551 24.6332 36.2745 24.703 36.2855C24.774 36.1954 24.8449 36.1052 24.9257 36.0138C25.7946 37.2468 25.7946 37.2468 25.9659 37.4575C26.0467 37.4673 26.1275 37.4673 26.2082 37.4783C26.2082 37.6878 26.2694 37.8888 26.2792 38.0996C26.2584 38.2093 26.2082 38.9512 26.0871 39.0219C25.9451 39.2619 25.8044 39.5129 25.6624 39.7626C25.5315 39.7626 25.4005 39.7626 25.2684 39.7736C25.1986 39.843 25.2194 40.0733 25.2194 40.1842C25.1374 40.1939 25.0775 40.1939 25.0261 40.2451C25.1178 41.1357 25.1178 41.1357 25.1178 41.1869ZM38.6307 41.2161C38.5291 40.8555 39.2157 41.1759 39.2365 41.1869L38.6307 41.2161ZM38.0041 41.3465C37.3984 41.1064 36.8832 40.9663 36.3888 40.5643C36.7522 40.0733 37.4485 40.836 37.7716 41.076C37.9038 41.076 38.0347 41.0857 38.1755 41.0967C38.1559 41.1966 38.0751 41.277 38.0041 41.3465ZM33.8837 41.4074C33.7222 41.327 33.541 41.1966 33.3697 41.1759C33.2975 41.2368 33.2375 41.2977 33.1666 41.3672C33.0564 41.3367 32.9243 41.0053 32.8631 40.9054C32.5123 40.7836 32.1655 40.6666 31.8229 40.5545C31.8229 40.2743 32.2879 40.6349 32.2879 40.3048C32.157 39.9636 32.157 39.9636 31.9746 39.5531C32.2879 39.653 32.7334 39.8637 33.0552 39.8637C33.1148 39.7614 33.1788 39.6542 33.2473 39.5421C33.9547 39.402 33.8837 39.7127 34.1664 39.0913C34.2472 39.0913 34.3377 39.0816 34.4295 39.0718C34.5604 38.8806 34.6106 38.8306 34.6204 38.6003C35.2874 38.4602 35.1356 38.4103 34.9337 39.0316C34.9239 39.0804 34.9239 39.1413 34.9239 39.1912C34.9643 39.2424 35.2568 39.5421 35.2372 39.603C35.176 39.5531 35.0952 39.4422 35.0243 39.5129C35.0243 39.6128 35.0854 39.7736 35.0353 39.8637C34.8027 40.0441 34.58 40.2244 34.3377 40.4047C34.1664 40.4351 34.0244 40.2841 33.8433 40.2841C33.4591 40.7251 33.7821 40.836 33.9241 41.3964C33.9033 41.4074 33.9033 41.4074 33.8837 41.4074ZM28.7928 41.7278C28.1369 41.6181 27.6217 41.4074 27.0061 41.1357C27.0159 40.8055 27.0257 40.4753 27.0257 40.144C27.4907 40.2244 27.6621 40.3547 27.7844 40.8262C27.9558 40.9359 28.2372 40.6349 28.4404 40.6349C28.6619 40.7349 28.8748 40.8457 29.1073 40.9456C29.1465 41.1564 29.1881 41.3964 29.1673 41.6072C29.0364 41.6571 28.9336 41.7071 28.7928 41.7278ZM27.0477 42.7902C26.2094 42.4393 25.9463 41.9788 25.2806 41.2465C25.1582 40.4449 25.1582 40.4449 25.1692 40.3547C25.4324 40.2938 25.3406 40.1939 25.3516 39.9234C25.9463 39.9234 25.8362 39.7224 26.1691 39.1522C26.1789 39.1522 26.1997 39.1413 26.2094 39.1413C26.229 39.1912 26.229 39.1912 26.2596 40.0428C26.442 40.4351 26.7149 40.7958 26.6635 41.2258C26.5325 41.277 26.9767 41.9276 27.0575 42.0482C27.2399 42.2687 27.421 42.4795 27.6033 42.7C27.4165 42.7194 27.231 42.7495 27.0477 42.7902ZM47.8922 42.8511L47.8628 42.8206C47.9118 42.7999 47.9118 42.7999 47.9326 42.8097C47.9326 42.8206 47.9326 42.8304 47.9436 42.8499L47.8922 42.8511ZM47.3476 42.8706C47.2864 42.75 47.2558 42.6598 47.2974 42.5197C47.317 42.6294 47.3378 42.75 47.3476 42.8706ZM44.1034 42.9705C43.9027 42.8206 44.3065 42.6501 44.4277 42.6001C44.3839 42.732 44.3154 42.8543 44.2258 42.9607C44.1854 42.9607 44.145 42.9705 44.1034 42.9705ZM43.084 43.1203C42.6899 42.8706 42.8821 43.0204 42.8821 42.7C42.701 42.6001 42.3473 42.4685 42.3473 42.2188C43.024 41.9178 42.8613 41.9678 43.5282 42.3991C43.5282 42.6099 43.1648 42.8901 43.084 43.1203ZM53.7895 43.2215C53.8997 42.5295 53.9303 41.8679 53.9511 41.1466C54.6641 40.1982 55.2545 39.1643 55.7084 38.0691C55.3591 39.8803 54.7107 41.6214 53.7895 43.2215ZM47.689 43.5017V43.4408H47.7404C47.7169 43.4548 47.6988 43.4762 47.689 43.5017ZM26.6928 43.6625C26.6121 43.3409 26.5411 43.0302 26.4713 42.7195C26.6733 42.7195 26.885 42.8998 27.0967 42.9205C28.0757 42.7804 27.8946 42.8206 27.279 42.058C27.5311 42.1676 28.0561 42.4186 28.4502 42.5794C28.4 43.0509 27.8542 43.2909 27.5005 43.5723L26.6928 43.6625ZM43.2149 43.9927C43.1342 43.481 43.0644 43.4712 42.6398 43.1106C42.4072 43.1605 42.1955 43.2604 41.9728 43.3518L41.9434 42.9607C41.8627 42.8901 41.7721 42.8206 41.7207 42.7293C41.7611 42.6501 41.7917 42.5697 41.8431 42.51C41.9031 42.499 41.9728 42.4892 42.034 42.4795C42.0646 42.4393 42.0536 42.3698 42.034 42.3284L42.2053 42.2992C42.3669 42.5599 42.4476 42.6099 42.7107 42.7597C42.7107 42.8499 42.6496 42.9108 42.6593 43.0107C42.8221 43.1106 43.6396 43.5516 43.538 43.8331C43.4279 43.8818 43.3165 43.9427 43.2149 43.9927ZM25.693 44.1425C25.2794 43.7527 24.3897 42.5295 24.5109 42.0287C24.6026 42.0677 24.6736 42.1189 24.774 42.1189C24.8449 42.0287 24.8241 41.768 24.8241 41.6474C24.8046 41.6279 24.8046 41.6279 24.4203 41.5475C24.4007 41.2258 24.4913 41.0358 24.5916 40.7349C24.8449 41.0857 25.0261 41.2868 25.1068 41.7071C24.3799 42.2285 25.7542 43.2617 25.9145 43.8331C25.7334 43.9232 25.8044 44.0036 25.6942 44.1437M47.913 44.1644C47.9632 44.1035 48.0133 44.0438 48.0647 43.9744C48.0745 43.9744 48.0843 43.9744 48.0953 43.9841C48.0264 44.0359 47.9659 44.0965 47.913 44.1644ZM48.3462 44.2351C48.3462 44.1242 48.3462 44.0438 48.2752 43.9744C48.3254 43.9135 48.3254 43.9135 48.5383 43.5029L48.6595 43.5334C48.6999 43.6235 48.7904 43.7429 48.7292 43.8233C48.4967 43.7831 48.5383 44.0743 48.5273 44.2144C48.4576 44.2241 48.4062 44.2351 48.3462 44.2351ZM51.6186 44.7151C51.5701 44.627 51.5195 44.5401 51.4668 44.4544C51.2955 44.4252 51.063 44.586 50.9112 44.6652C51.1034 44.3947 51.2845 44.134 51.4766 43.8733C51.6381 43.7831 52.8203 43.0716 52.9415 43.1118C52.9206 43.152 52.9206 43.152 52.9206 43.2117C53.0014 43.2726 53.092 43.2726 53.1935 43.2617C52.9818 43.4931 52.8301 43.5626 52.5376 43.6832C52.1827 43.9841 52.0322 44.4447 51.6186 44.7151ZM50.6787 44.7858C50.6175 44.7054 50.6175 44.7054 50.5784 44.6859C50.7289 44.6859 50.7289 44.6859 50.85 44.6956C50.7888 44.7151 50.7399 44.7566 50.6787 44.7858ZM42.3167 44.826C42.0438 44.5945 41.7709 44.4654 41.6399 44.7858C41.3267 44.3253 41.3267 44.3253 41.2863 44.2144C41.3573 43.8343 41.3573 43.7941 41.1247 43.4932C41.1455 43.1325 41.4282 42.7012 41.7819 42.9912C41.8223 43.152 41.7819 43.3628 41.8431 43.5029C42.105 43.5029 42.3473 43.3128 42.6092 43.2714C42.8625 43.5029 43.0644 43.6235 43.0436 44.0146C42.4281 44.0743 42.2359 44.134 42.3461 44.826H42.3167ZM24.8657 44.6761C24.7974 44.5804 24.736 44.4798 24.6822 44.3752C24.774 44.3545 24.7544 44.2741 24.7948 44.2656C24.8645 44.4045 25.299 44.8662 25.0469 44.9259C24.984 44.8438 24.9232 44.7601 24.8645 44.6749M41.416 44.9551C41.2948 44.5945 41.2948 44.5945 41.2851 44.5141C41.356 44.6238 41.4368 44.7334 41.5078 44.8552C41.4772 44.9149 41.4772 44.9149 41.416 44.9551ZM50.2944 44.9953C50.314 44.9551 50.3434 44.9344 50.3752 44.9052C50.385 44.9454 50.3238 44.9746 50.2944 44.9953ZM42.7095 45.0563C42.6621 44.9918 42.5995 44.9399 42.5272 44.9052C42.3767 44.1827 42.5578 44.2229 43.2737 44.1328C43.527 43.9927 43.527 43.9927 43.6286 43.9525L43.598 44.374C43.3043 44.5933 43.002 44.8248 42.7095 45.0563ZM43.2541 45.3365C43.2443 45.2451 43.2443 45.2451 43.2247 45.1757C43.144 45.1452 42.8821 45.1147 42.8821 45.105C43.7387 44.4434 43.7387 44.4434 43.7693 44.4142V43.883C43.6384 43.6625 43.6384 43.6625 43.6286 43.6028C43.7595 43.682 43.8905 43.7527 44.0324 43.8331C44.0936 44.0828 44.1426 44.324 44.2037 44.5738C43.9614 44.8053 43.7595 45.1854 43.4058 45.155C43.3251 45.2646 43.3251 45.2646 43.2541 45.3365ZM41.4674 45.3365C41.4772 45.2049 41.4772 45.1355 41.558 45.0258C41.5677 45.055 41.5677 45.055 41.4674 45.3365ZM35.2874 45.7263C34.8015 45.3158 34.6094 44.4642 34.3769 43.8526L34.1958 42.8292C34.2667 42.4698 34.5188 42.1481 34.0844 42.0372C33.9828 42.1189 33.9632 42.2188 33.9131 42.3296C33.8115 42.3187 33.7001 42.3187 33.5998 42.3089C33.5412 42.2128 33.4841 42.1157 33.4285 42.0178C33.5386 42.0178 33.7099 41.8984 33.7099 41.7777C33.6304 41.6973 33.4382 41.7168 33.3269 41.7071C33.2865 41.6279 33.2253 41.5767 33.2253 41.4878C33.5496 41.1954 33.7711 41.6376 34.044 41.4671C34.044 41.1466 33.8115 40.8762 33.7711 40.5655C33.973 40.3645 34.0746 40.5947 34.3267 40.5947C34.5996 40.3645 34.8921 40.144 35.1748 39.9234C35.1748 39.843 35.1748 39.7736 35.1552 39.692C35.3069 39.692 35.3069 39.692 35.3669 39.6627C35.3669 39.4727 35.165 39.3021 35.0438 39.1717C35.094 39.0012 35.1344 38.8403 35.1858 38.671C35.7108 38.5808 35.7108 38.5808 35.7707 38.5492C35.7724 38.5199 35.7793 38.4903 35.7916 38.4602C35.9935 38.5808 36.215 38.7002 36.3875 38.8501C36.3875 38.9512 36.1856 39.112 36.1244 39.1912C36.2052 39.4714 36.2052 39.4714 36.215 39.5628H35.9935C35.9017 39.6834 36.0033 40.0039 36.0742 40.1135C36.368 40.2938 36.3679 40.2938 36.3875 40.3145C36.3068 40.4144 36.2052 40.4948 36.2052 40.6155C36.7706 41.0455 37.276 41.2161 37.9429 41.4671C38.1547 41.4476 38.2146 41.2965 38.326 41.1259C38.4067 41.1162 38.4067 41.1162 38.4875 41.1259C38.4794 41.1966 38.4761 41.2669 38.4777 41.3367C38.0935 41.4171 38.4471 42.6891 38.4777 42.8206C38.4276 42.8097 38.397 42.7293 38.3762 42.6793H38.2954C37.7912 43.2215 37.2858 43.5516 36.6592 43.9525C36.084 44.1133 36.084 44.1133 36.0645 44.1425C35.8723 45.3158 35.8723 45.3158 35.8417 45.3962C35.6594 45.4961 35.4697 45.6155 35.2874 45.7263ZM26.2865 45.7263C26.1042 45.6264 25.9023 45.4863 25.7004 45.4559C25.3773 45.0453 25.0444 44.6238 24.7715 44.173C24.0887 42.3139 23.3339 40.4818 22.5088 38.6807C22.5908 38.7417 22.7621 38.9305 22.7927 38.9512C23.0142 38.8416 22.8416 38.3299 23.1353 38.3104C23.3679 38.8915 23.62 39.2119 24.0348 39.7029C24.4178 40.535 24.5292 40.4851 24.2563 41.277C24.2771 41.718 24.2465 41.6669 24.681 41.7473C24.6699 41.8082 24.6699 41.8776 24.6699 41.9386C24.5696 41.8984 24.4081 41.768 24.3065 41.8289C24.4081 42.8097 25.1448 43.8221 25.8423 44.4739C26.0136 44.8845 26.1752 45.2853 26.3073 45.7069C26.2963 45.7166 26.2865 45.7166 26.2865 45.7263ZM41.8602 46.0882C41.6952 46.0571 41.5375 45.9955 41.3952 45.9067C41.3952 45.8068 41.3952 45.8068 41.4564 45.5058C41.5665 45.6667 41.8198 45.9188 41.8602 46.0882ZM41.93 46.1869C41.93 46.1662 41.9202 46.1564 41.9202 46.1467C41.9508 46.1369 41.9508 46.1369 41.9912 46.1662C41.9704 46.1759 41.9508 46.1759 41.93 46.1869ZM47.4749 46.3172L47.3341 46.2563C47.525 46.1564 47.5251 46.1564 47.6058 46.1369C47.596 46.1857 47.5862 46.2271 47.5862 46.277C47.5476 46.2845 47.5092 46.298 47.4749 46.3172ZM36.1146 46.3172C36.084 46.2868 36.0534 46.2673 36.0228 46.2368C36.0339 45.8555 36.0339 45.8555 36.0645 45.7251C36.1632 45.8348 36.2672 45.9452 36.3765 46.0565C36.3574 46.1322 36.3439 46.2091 36.3361 46.2868C36.2554 46.2965 36.1856 46.2965 36.1146 46.3172ZM45.0114 46.6474C45.2953 46.2368 45.6478 45.8665 46.0822 45.6252C46.1838 45.5046 46.3955 45.1342 46.5375 45.094C46.6476 45.2037 46.699 45.1939 46.8703 45.2037C46.6072 45.4449 46.6072 45.5046 46.2646 45.585C46.103 45.8165 45.9415 46.0468 45.7689 46.2868L45.0114 46.6474ZM42.7597 47.0495C42.2653 46.8789 42.2249 46.818 41.9924 46.3574C42.2347 46.1467 42.4672 46.2868 42.7095 46.4768C42.7193 46.7376 42.7291 46.7875 42.9016 46.9788C42.8906 47.0397 42.8099 47.0495 42.7597 47.0495ZM28.2666 47.8694C27.8738 47.5185 27.5703 47.3175 27.3879 46.8265C27.4295 46.8362 27.4295 46.8362 27.6608 46.9873C27.7318 46.9374 27.8126 46.9666 27.9031 46.9776C27.9337 46.9471 27.9337 46.9471 27.9545 46.8972C27.9949 46.8874 28.0353 46.8874 28.0757 46.8874C28.1161 46.9276 28.1161 46.9276 28.2776 47.1981C28.1552 47.3979 28.2972 47.6403 28.2666 47.8694ZM22.2273 39.0475C22.3897 39.3707 22.5614 39.6883 22.7425 40.0002C23.1672 41.143 23.6212 42.2249 24.2074 43.2872C24.3285 43.6186 24.4595 43.9391 24.6112 44.2497C24.5916 44.1791 24.5806 44.1096 24.561 44.039C23.9033 42.3133 23.1994 40.6054 22.45 38.9171C22.45 38.978 22.5602 39.3679 22.5602 39.4288C22.366 39.0571 22.1911 38.6757 22.0364 38.286C21.5055 35.7429 21.5691 33.1123 22.2223 30.5975C22.8754 28.0828 24.1006 25.7512 25.8032 23.783C28.0353 22.589 31.0751 22.8108 33.4982 22.9411C33.5208 22.9662 33.5413 22.9931 33.5594 23.0216C33.5998 22.9911 33.5998 22.9911 33.6206 22.9606C33.9437 22.9826 34.2667 23.0094 34.5898 23.0411C34.6192 23.091 34.6192 23.091 34.6302 23.1909C34.7 23.2019 34.7 23.2409 34.6914 23.3127C34.7917 23.3006 34.7917 23.3006 34.9227 23.2518C34.9435 23.2616 34.9631 23.2811 34.9839 23.292V23.3822C35.1858 23.3822 35.2861 23.1507 35.3473 23.4419C35.5896 23.292 35.7916 23.4821 36.0326 23.5917C36.0434 23.5699 36.0575 23.5498 36.0742 23.532H36.1648C36.2358 23.6527 36.2554 23.7331 36.3973 23.7928C36.4169 23.7526 36.4279 23.7123 36.4377 23.6831C36.3361 23.6222 36.1746 23.532 36.2456 23.4029C36.3557 23.4029 36.4279 23.4321 36.5283 23.4723C36.5491 23.3919 36.5491 23.3919 36.5686 23.3724C36.7008 23.3822 36.822 23.3615 36.9627 23.3822L36.9321 23.5527C37.3568 23.3919 37.67 23.5125 38.1338 23.5917C38.1547 23.5527 38.1742 23.5223 38.195 23.4821C38.1644 23.4516 38.1644 23.4516 37.1242 23.2506C37.1242 23.1812 37.1854 23.1714 37.2466 23.1519C37.1854 23.1117 37.134 23.0813 37.0839 23.0508C37.0839 22.8315 37.4375 22.9899 37.5783 22.7206C37.5495 22.672 37.5355 22.6162 37.5379 22.5598C37.7202 22.5598 38.255 23.1007 38.4569 23.2713C38.498 23.2429 38.5424 23.2196 38.5891 23.2019C38.4067 23.0411 38.2146 22.8912 38.0335 22.7401C38.1143 22.7206 38.1852 22.7097 38.266 22.6902C38.255 22.6707 38.255 22.65 38.255 22.6293C38.3064 22.5805 38.3358 22.5903 38.4067 22.5903C38.4165 22.5501 38.4165 22.5099 38.4165 22.4697C38.5083 22.4392 38.5793 22.4904 38.6588 22.5196C38.6588 22.5099 38.6796 22.5099 38.6796 22.5001C38.6393 22.4904 38.6185 22.4599 38.5891 22.4197C38.5377 22.41 38.4777 22.41 38.4178 22.41C38.397 22.3697 38.3872 22.3088 38.4276 22.2796C38.3162 22.0993 38.2758 22.1285 38.2954 21.908C38.326 21.8885 38.3664 21.8593 38.4067 21.8386C38.4067 21.7984 38.4067 21.7984 38.3566 21.7082C38.2954 21.7776 38.2146 21.7691 38.1241 21.7691C38.0935 21.8178 38.0739 21.8678 38.0433 21.908C38.1045 21.9385 38.1534 21.9689 38.2146 21.9884C38.2146 22.0286 38.2146 22.0591 38.2256 22.0981C38.0237 22.1785 37.9931 22.1894 37.9123 22.3698C38.0433 22.41 38.0225 22.5001 38.0225 22.6305C37.8512 22.7499 37.2552 22.3088 37.6186 21.9787C37.4975 21.9482 37.347 21.9689 37.2356 21.908V21.8081C37.276 21.7776 37.3164 21.7679 37.3665 21.7472C37.1646 21.6875 36.9933 21.8178 36.8012 21.8288C35.0842 20.7762 33.2363 19.6724 31.1657 19.6029C33.545 18.4156 36.17 17.7982 38.8314 17.7998H39.0639V18.1604C38.9623 18.1604 38.8718 18.1604 38.78 18.1702L41.9924 18.6819C44.971 19.9246 44.971 19.9246 45.0114 19.9246C44.9821 19.8941 44.9502 19.8636 44.9307 19.8332C45.0224 19.7942 45.1228 19.743 45.2133 19.754C45.2941 19.5725 45.6992 19.6736 45.8399 19.6626C45.7946 19.6365 45.7475 19.6133 45.6992 19.5932C45.8901 19.5323 46.103 19.503 46.2939 19.4933C48.3743 20.4947 50.2222 21.8983 51.7275 23.6112C51.5867 23.5722 51.2624 23.4614 50.8696 23.3615C49.5161 23.0605 48.1834 22.9716 46.8091 22.9009C45.638 22.5196 45.638 22.5196 45.5976 22.4904C45.5878 22.4599 45.5878 22.4392 45.5878 22.41C45.638 22.36 45.6882 22.36 45.709 22.2893C45.6184 22.1992 45.6074 22.0688 45.578 21.9482C45.4667 21.8178 45.3553 21.6777 45.2439 21.5474C45.2342 21.5973 45.2342 21.657 45.2342 21.7082C44.9307 21.908 43.7595 21.9982 43.598 22.2589C43.7399 22.4835 43.8584 22.7219 43.9516 22.9704C42.638 23.0683 41.3302 23.2322 40.0331 23.4614C40.0233 23.4723 40.0123 23.4821 40.0123 23.4918C40.0331 23.5125 40.0527 23.5527 40.0735 23.582C41.356 23.3919 42.6581 23.2019 43.9614 23.1312C44.1842 23.3517 44.5672 23.6429 44.8609 23.7623C44.9221 23.7136 44.9821 23.6527 45.042 23.6027C45.0518 23.2518 45.0518 23.2518 45.0824 23.2214H45.184L45.6074 23.8525C45.6478 23.8123 45.6686 23.8123 45.7298 23.8123C45.7188 23.7526 45.7188 23.7526 45.567 23.4516C45.5878 22.9704 46.4053 23.7623 46.4971 23.833C46.5478 23.8343 46.5982 23.8408 46.6476 23.8525C46.6476 23.783 46.6586 23.7623 46.699 23.7123C46.5974 23.6222 46.5974 23.6222 46.557 23.5625C46.5674 23.5403 46.581 23.5198 46.5974 23.5016C46.7394 23.5016 46.8703 23.5515 47.0111 23.582C46.9205 23.4419 46.7394 23.2409 46.7394 23.0703C46.9413 23.0703 47.0918 23.2409 47.2534 23.2409C47.1726 23.1812 47.0931 23.1312 47.0319 23.0703C48.7084 23.141 50.3752 23.2713 51.9502 23.8732C54.5583 26.9367 55.9898 30.8223 55.9899 34.8381C55.9882 35.5886 55.9413 36.3237 55.8491 37.0433C55.4343 38.4761 54.7881 39.6688 53.9094 40.9115C53.8886 40.8518 53.8189 40.2 53.6977 39.3679C52.879 35.4899 51.0422 32.1115 48.274 29.2558C48.1125 28.7441 48.0623 28.543 47.6584 28.1934C47.6584 28.1532 47.6682 28.102 47.678 28.063C47.5973 28.0118 47.5263 27.9728 47.4565 27.9326C46.8299 28.0423 46.9205 27.2102 46.8495 26.8495C46.8801 26.8093 46.8801 26.8093 47.0417 26.6997C46.8801 26.439 46.4555 25.937 46.4555 25.6276C46.4861 25.5971 46.5069 25.5874 46.4861 25.5472C46.3147 25.5362 46.1434 25.5264 45.9819 25.5264C45.9513 25.4972 45.9513 25.4972 45.8595 25.2365C45.7494 25.1658 45.6478 25.0854 45.5364 25.016C45.5364 24.9855 45.5266 24.9453 45.5266 24.9148C45.578 24.8661 45.6882 24.9051 45.7494 24.9148C45.8105 24.7845 45.8705 24.6748 45.9611 24.5737C45.8705 24.5043 45.6588 24.2935 45.5474 24.2935C45.5164 24.3317 45.4858 24.3751 45.4557 24.4239C45.4765 24.4738 45.5474 24.4738 45.5976 24.4848C45.6184 24.5238 45.6184 24.5847 45.5878 24.6151C45.0824 24.6846 44.7287 25.016 44.5782 25.4862C44.6769 25.548 44.781 25.615 44.8903 25.6873C44.8805 25.7165 44.8805 25.7482 44.8805 25.7774C44.8193 25.8079 44.8193 25.8079 44.5782 25.8578C44.5672 25.9187 44.5672 25.9772 44.5574 26.0381C43.144 25.1061 41.6791 24.4239 40.0735 23.8829C40.0527 23.9247 40.0359 23.9683 40.0233 24.0133C41.6179 24.5445 43.1134 25.2255 44.5072 26.188C44.5268 26.5194 44.2649 26.3793 44.0018 26.3683L43.7595 26.7899C43.4768 26.8593 43.4768 26.8593 43.3251 26.8703C43.2847 26.8398 43.2541 26.8093 43.2247 26.7899C43.1232 26.8508 42.8503 26.9799 42.8001 27.0798C42.8906 27.2211 42.9714 27.2711 42.9824 27.4307C42.8209 27.5818 42.7291 27.7414 42.4966 27.7219C42.5272 27.8218 42.5676 27.9217 42.5578 28.0228C42.2641 28.1727 41.8908 27.7219 41.7195 27.572C41.1443 26.4487 40.437 25.3559 39.7407 24.2947C39.6293 24.3544 39.6293 24.3544 39.6183 24.3739C40.295 25.4265 40.9522 26.4987 41.5677 27.5818C41.5482 27.6719 41.5775 27.7219 41.5775 27.812C41.2851 28.052 41.0232 27.7511 40.8004 28.1032H40.7099C40.6585 28.052 40.6291 28.0021 40.5875 27.9521C40.5386 28.2628 40.3256 28.2835 40.1237 28.1532C40.306 27.8315 40.6291 27.5513 40.2338 27.321C40.0833 27.321 39.9022 27.5525 39.83 27.3308C39.7101 27.3308 39.7101 27.3308 39.699 27.321C39.6795 27.4015 39.6501 27.4709 39.5681 27.5014C39.5681 27.7121 39.3662 27.6415 39.1851 27.6512C39.1741 26.5888 39.174 25.5264 39.1643 24.4543H39.0333C39.0235 25.5264 39.0235 26.6095 39.0125 27.6817C38.8914 27.7523 38.7702 27.812 38.6601 27.8827C38.5989 28.3128 38.5793 28.2238 38.1449 28.3335C38.1338 28.3432 38.1241 28.353 38.1241 28.3737C38.2464 28.6137 38.4569 28.9646 38.1852 29.235C37.8818 29.235 38.0335 28.9244 38.0935 28.7635C37.9833 28.6941 37.801 28.5235 37.67 28.6441C37.7104 28.7246 37.7508 28.794 37.7912 28.8744C37.7704 28.9146 37.7704 28.9146 37.7104 28.9548C37.4375 28.8147 37.4167 28.8342 37.4167 28.543C37.2858 28.7038 37.2258 28.9938 37.2454 29.2155C37.3555 29.2765 37.4681 29.3252 37.5783 29.3861L37.5489 29.6968C37.5685 29.7065 37.5978 29.7163 37.6297 29.737C37.6297 29.9465 37.4473 29.8674 37.347 29.7565V29.4556C37.2356 29.4556 36.8624 29.9575 36.7816 30.0672C36.6298 30.0672 36.4573 29.9368 36.4573 29.776C36.5797 29.7065 36.8819 29.5859 36.9125 29.5567C37.0227 29.1449 37.134 28.7343 37.2356 28.3335C37.1952 28.3128 37.145 28.2933 37.1132 28.2726C36.8819 28.4334 36.6298 28.6844 36.6298 28.9853C36.6841 29.0728 36.7153 29.1725 36.7204 29.2752C36.6396 29.3557 36.5895 29.4361 36.4573 29.4153C36.155 28.995 36.155 28.995 36.0033 28.8245C35.8821 28.9244 35.7818 29.0559 35.63 29.0742C35.4477 28.8038 37.4975 25.8676 37.801 25.4168C38.0433 25.0562 38.2954 24.7053 38.5475 24.3447C38.5377 24.3045 38.4471 24.274 38.4067 24.2837C37.3568 25.7774 36.4071 27.3003 35.4685 28.8647C35.3669 28.8939 35.2763 28.8939 35.1748 28.8939C35.1136 28.8452 35.1454 28.7843 35.1748 28.7233C35.0842 28.7136 34.4895 28.7843 34.2056 28.794C34.1847 28.7745 34.1847 28.7745 34.1652 28.4931C34.0844 28.6027 34.0036 28.7038 33.9229 28.8147C33.7809 28.8147 33.8005 28.6929 33.8005 28.5735C33.6292 28.5735 33.6292 28.5735 33.5288 28.5942C33.4786 28.6941 33.4187 28.794 33.3673 28.8939H33.2767C33.2253 28.7856 33.178 28.6755 33.1348 28.5637C33.0736 28.6344 33.0136 28.7136 32.9634 28.7843H32.8729C32.8068 28.6399 32.7754 28.4822 32.7811 28.3237C33.0944 28.052 33.0944 28.0435 33.1653 27.6512C32.8924 27.9217 32.6391 28.1934 32.3772 28.4736C32.1863 28.4736 31.9636 28.353 31.7923 28.2835C31.8119 28.5138 31.9636 28.995 31.7005 29.1753C31.3982 29.2558 31.0947 29.3557 30.7925 29.4458C30.7717 29.7662 30.8328 30.5789 30.3372 30.3778C30.3274 30.418 30.2968 30.4582 30.287 30.4984C30.489 30.7689 30.358 30.9395 30.3176 31.2794C30.8426 32.3223 30.8022 32.0226 30.0044 32.2723C29.8024 32.3929 29.8428 32.5928 29.7217 32.7536H29.5907C29.6605 33.5747 30.0349 34.0669 30.4486 34.7675C30.489 34.7675 30.5294 34.7577 30.571 34.7577C30.5795 34.4678 30.5905 34.1863 30.5905 33.8964C30.6395 33.766 30.9234 33.4943 31.0641 33.4943C31.1057 33.5552 31.1057 33.5552 31.1449 33.565C31.2159 33.3457 31.1755 33.0642 31.1755 32.823C31.3077 32.7438 31.5904 32.4124 31.7311 32.5635C31.8926 32.4831 32.1753 32.5233 32.3577 32.5233C32.5192 32.7231 32.6807 32.9339 32.8521 33.1447C33.2461 33.1836 33.3269 33.1142 33.4786 33.4748C33.5398 33.4748 33.6096 33.4846 33.6708 33.4955C33.6597 33.3859 33.6402 33.2848 33.6304 33.1836C33.681 33.1582 33.7356 33.1417 33.7919 33.1349C33.8115 32.9838 33.8727 33.0131 34.0342 32.9936C34.0342 32.9241 34.0232 32.823 34.0636 32.7633C35.5187 32.7938 35.5187 32.7938 35.5896 32.8133C35.619 32.8535 35.619 32.8535 35.7206 33.1739C35.8723 33.2238 36.1146 33.2238 36.1244 33.4151C36.5589 33.325 36.5589 33.325 36.6298 33.325C36.7706 33.4651 36.9223 34.1059 36.9933 34.3167C37.0643 34.2875 37.0839 34.2765 37.1646 34.2765C37.3066 34.4775 37.4779 34.3971 37.7006 34.4775C37.9026 34.6773 37.9331 34.7577 38.2048 34.7577C38.266 34.8186 38.315 34.8783 38.3762 34.949C38.6185 34.8381 38.8914 34.6371 39.1545 34.5981C39.5179 34.6676 39.8312 34.6773 40.2045 34.6773C40.2045 34.3971 40.1739 34.1766 40.3966 33.9658C40.831 34.056 40.9314 34.0864 41.2349 34.3971C41.2753 34.3874 41.2753 34.3874 41.4466 34.2875C42.2947 34.257 42.3864 34.4775 43.1134 33.9768C43.4071 33.8964 43.7191 33.9658 43.9516 33.766C43.9211 33.4955 43.7999 33.1642 43.7999 32.9132C44.2539 32.5331 44.2539 32.583 44.8499 32.583C45.0322 32.7536 45.2048 32.9436 45.3859 33.1239H45.9917C46.0321 33.1642 46.0626 33.2044 46.1128 33.2446C46.234 33.0642 46.3551 32.873 46.4763 32.6927H46.5779C46.7492 33.0435 46.8899 33.515 46.9107 33.9061C46.5876 34.2472 46.617 34.1668 46.8495 34.5774C46.9107 34.3069 46.9511 34.3764 47.2338 34.3764C47.5165 33.755 47.3354 32.9741 47.284 32.293C47.1224 31.9921 46.9707 31.6912 46.8091 31.4L46.4457 31.3099C46.3955 31.2294 46.4763 31.1892 46.4763 31.1198C46.4261 31.1198 46.3857 31.11 46.3355 31.11C46.2841 31.2294 46.234 31.3903 46.1532 31.4902H45.9917C45.9398 31.4412 45.8923 31.3878 45.8497 31.3306C45.7689 31.3403 45.6588 31.3793 45.5878 31.3306C45.578 30.7385 45.578 30.1573 45.567 29.5762C45.7188 29.4056 45.8803 29.235 46.0321 29.0742C46.0223 29.0048 46.0223 28.9341 46.0223 28.8647C46.1434 28.794 46.3037 28.6332 46.4457 28.6539C46.4591 28.6029 46.4759 28.5529 46.4959 28.504C46.163 28.4236 45.9819 27.7523 46.163 27.4709C46.6378 27.9022 47.0514 28.1824 47.3048 28.7538C47.6474 29.0048 47.9901 29.2655 48.3352 29.5153C51.3444 32.5026 53.2939 36.7326 53.6977 40.9225C53.6867 40.9822 53.6867 41.0321 53.6867 41.093C51.9698 43.0972 50.0619 44.6311 47.6878 45.8238V45.6435C48.214 45.3718 48.214 45.3718 48.203 45.3633C48.0317 45.4425 47.8604 45.5217 47.678 45.613C47.6278 42.5855 46.8091 39.6286 45.9207 36.7619C45.7591 36.3318 45.7396 36.4122 46.0308 36.0613C46.1838 35.7007 46.0223 35.3182 46.4359 35.239C46.4457 35.0684 46.4971 34.6676 46.6684 34.5981C46.4359 34.1473 46.3955 34.2168 46.7492 33.8464C46.5069 32.9936 46.5069 32.9936 46.4763 32.9449C46.3661 33.1032 46.2646 33.2641 46.1532 33.4346H46.0724C46.0214 33.3752 45.9675 33.3183 45.9109 33.2641H45.2941C45.113 33.0837 44.9417 32.9034 44.7691 32.7231H44.2343C44.0018 32.9339 44.0018 32.9339 43.9406 32.9741C43.9406 33.3445 44.3249 33.8757 43.7803 34.0365C43.8207 34.3374 43.8207 34.3374 43.8415 34.3666C44.3053 34.2168 44.2135 34.2363 44.5574 34.5872C44.5574 34.6578 43.7595 35.4595 43.6787 35.5496C43.5686 35.5594 43.4462 35.5898 43.3361 35.6106C43.3251 35.6703 43.4266 35.8201 43.4364 35.92C43.1329 36.2514 42.477 36.9032 42.012 36.9032C41.7501 36.8228 41.498 36.7521 41.2349 36.6717C40.9412 36.7119 40.6597 36.7631 40.366 36.8021L39.8214 36.3513C39.0027 36.1113 39.0027 36.3026 38.8216 35.5399C38.6992 35.3998 38.5793 35.2694 38.4569 35.1293C38.3566 35.1293 38.2452 35.1988 38.1644 35.2487C38.0935 35.6605 37.9625 35.5399 37.5379 35.5704C37.4167 36.0699 37.4681 35.9907 36.9529 36.1113C36.9027 36.8021 36.9027 36.8021 36.8819 36.8423C36.5283 36.8922 36.2456 37.1834 35.9127 37.2931C35.4575 37.354 35.3167 37.2334 35.2458 37.6452C35.3053 37.7045 35.3694 37.7646 35.4379 37.8255V38.085C35.7389 38.2759 36.0449 38.4667 36.3557 38.6576C36.5686 38.8976 36.4071 38.9378 36.1954 39.1571C36.215 39.3179 36.3055 39.4788 36.3055 39.6396C36.2664 39.6591 36.2664 39.6591 36.0339 39.6493C36.0339 39.7395 36.0339 39.7395 36.084 39.96L36.4781 40.2C37.276 40.2609 37.801 41.3123 38.6796 40.8421C38.9317 40.7921 39.316 40.9919 39.316 41.2734C39.2756 41.2928 38.6796 41.3026 38.6087 41.3221C38.6393 41.3331 38.6699 41.333 38.6894 41.3428L38.8118 41.6133C38.9831 41.634 39.2646 41.6437 39.4066 41.7436V41.7936C39.1545 42.0141 39.1545 42.0141 39.1447 42.0348C39.2059 42.0957 39.3062 42.0848 39.387 42.0957C39.4066 42.1347 39.4066 42.1347 39.4482 42.5258H39.5889C39.5889 42.1359 39.4775 42.1359 39.7908 41.9654C40.0025 41.5146 40.1445 41.2624 40.5178 40.9225C40.508 40.8616 40.2657 40.6715 40.2143 40.5606C40.2852 40.3608 40.437 40.652 40.4872 40.7117C40.6891 40.8019 40.8812 40.8823 41.0733 40.9724C41.1737 41.1917 40.9926 41.5938 40.9314 41.8131C41.2141 41.8338 41.2043 41.9836 41.3462 42.2553C41.4772 42.2651 41.6277 42.2651 41.7599 42.2846C41.7599 42.2553 41.7697 42.2151 41.7697 42.1847C42.0973 42.0705 42.4177 41.9367 42.7291 41.7838C42.9824 41.824 43.2847 42.0945 43.5074 42.2346C43.6885 42.1859 43.8807 42.0945 44.0728 42.0945L44.134 42.1847C44.2245 41.9849 44.5782 41.874 44.7703 41.7741C44.8401 41.5938 44.8401 41.5938 44.9111 41.4829C44.9918 41.4829 45.0114 41.4939 45.0824 41.5329C45.2439 41.4216 45.4157 41.3148 45.5976 41.2124C45.78 40.9115 45.9709 40.6215 46.1532 40.3304C46.0822 39.8491 46.3955 39.5787 46.4151 39.0877H46.4359C46.5375 39.4982 46.6476 39.91 46.7492 40.3206C46.6586 40.4108 46.6072 40.6215 46.5668 40.7422C46.5974 40.7909 46.6378 40.8323 46.6782 40.892L46.7394 40.3706C46.9303 40.6021 47.082 41.7741 47.082 41.9349C47.0413 41.9463 47.0009 41.9625 46.9609 41.9836C46.9609 42.075 47.0833 42.566 46.9107 42.605C46.9303 42.6464 46.9413 42.6866 46.9609 42.7268C47.1628 42.7366 47.1628 42.7061 47.2032 42.8864H47.2644C47.3953 43.8989 47.4859 44.8906 47.4969 45.914C46.9511 46.1735 46.9511 46.1735 46.3551 46.4342C46.4457 46.2246 46.5473 46.0443 46.7394 45.9225C46.5876 45.8031 46.4053 45.5826 46.2132 45.7032C45.9011 46.154 45.1938 47.0555 44.5574 46.7144H44.4962C44.4473 46.7851 44.3959 46.8655 44.3457 46.9459C44.3861 46.9958 44.4155 47.0458 44.446 47.0957C43.8611 47.2663 43.2541 47.3967 42.6691 47.5465C42.6691 47.4978 42.6581 47.4466 42.6581 47.4076C42.5774 47.4271 42.5774 47.4271 42.4868 47.4174C42.4562 47.3772 42.4562 47.3163 42.4868 47.2663C42.406 47.1859 42.0022 47.1664 41.881 47.1469C41.4062 46.8862 41.1137 46.6754 40.5679 46.6352C41.0117 46.9747 41.4564 47.3187 41.9018 47.6671C40.9926 47.789 40.0931 47.8779 39.1851 47.9181V42.4758C39.2952 42.5063 39.4066 42.8572 39.4567 42.9668C39.9426 43.4676 40.0833 43.4883 40.0637 44.1486C40.3562 44.19 40.5483 44.0499 40.5985 43.7782C40.7601 43.6186 40.9926 44.0792 41.0636 44.0999C41.1247 43.6783 40.8408 43.548 40.9216 43.0972C41.1235 42.9473 41.5482 42.7073 41.5885 42.4356C41.1847 42.4149 41.2459 42.3747 41.0623 41.9946C40.9718 41.9849 40.891 41.9849 40.8102 41.9751C40.7197 41.824 40.9718 41.3123 40.962 41.0735C40.8102 41.0126 40.8102 41.0126 40.6891 40.9822C40.5483 41.1028 40.3954 41.2331 40.2546 41.3635C40.1139 41.6632 40.0221 42.0044 39.7296 42.1749C39.7199 42.3248 39.7199 42.4758 39.7199 42.6257C39.4164 42.9364 39.2854 42.4259 39.2756 42.2456C39.1337 42.2456 38.9721 42.1359 38.9721 41.9849C39.0333 41.9239 39.0945 41.8752 39.1435 41.8143C38.7702 41.7534 38.72 41.8045 38.5891 41.4732C38.5289 41.4621 38.4679 41.4556 38.4067 41.4537C38.4067 41.5633 38.3872 41.673 38.3358 41.7741C38.397 42.1043 38.4679 42.4259 38.5279 42.7561L38.78 42.7268C38.8314 42.6257 38.8914 42.5258 38.9428 42.4344C38.9721 42.4344 39.0039 42.4259 39.0333 42.4259C39.0333 44.2497 39.0431 46.0833 39.0529 47.9181C35.7916 47.8877 32.7113 47.2773 29.7523 45.864C29.7926 44.2899 30.1255 42.7366 30.4792 41.2027C30.5893 41.132 30.7117 41.0626 30.8328 40.9919C30.5795 40.5911 30.6713 40.4705 30.7814 40.0002C30.9638 40.0002 31.408 40.3511 31.5793 40.451C31.873 40.0904 31.7115 40.2902 32.064 40.2902C31.9734 40.0806 31.8021 39.4885 31.6112 39.3788C31.6112 39.2278 31.8216 39.0779 31.9134 38.9768C31.5585 38.6064 31.6907 38.5772 31.862 38.0752C32.0542 37.9156 32.0542 37.9156 32.2769 37.7646C32.1753 36.8727 31.2563 36.3111 30.9638 35.4899C30.5795 35.2487 30.0239 35.4497 29.6715 35.1293C29.4292 35.4595 29.4586 35.5801 29.4586 35.9907C29.368 36.1113 29.2872 36.2222 29.2065 36.3416C29.2273 36.7826 29.2566 37.2334 29.2872 37.6842C29.5295 38.035 29.5295 38.2763 29.5809 38.727C29.6813 38.8976 29.7816 39.0682 29.8832 39.2278C30.3776 39.3886 30.6505 39.3179 30.6505 39.8991L30.4988 40.4412H30.4718C30.3943 40.3264 30.32 40.2094 30.2491 40.0904C30.1879 40.1513 30.139 40.2207 30.0876 40.2804C30.1488 40.7312 30.1488 40.6313 29.7939 41.0224C29.7033 41.0321 29.7033 41.0321 29.1991 40.9615L29.2603 41.6242C29.5222 41.7144 29.7743 41.7534 29.9762 41.5231C30.057 41.5231 30.1377 41.5329 30.2295 41.5329C29.9358 42.9571 29.6837 44.3204 29.603 45.7629C28.4102 45.1718 27.2799 44.4633 26.229 43.6479L26.4615 43.6186C26.3824 43.2572 26.2984 42.8962 26.2094 42.5355C25.9157 42.0945 25.4923 41.7034 25.1289 41.3233C25.179 41.6535 25.2696 41.6535 25.0187 41.835C24.8963 42.3857 25.6844 43.2276 25.9671 43.6881C26.0075 43.699 26.0381 43.699 26.0773 43.7088C27.1689 44.5702 28.3608 45.2817 29.5932 45.9335C29.5932 47.3065 29.7437 48.6698 30.6028 49.742C26.5521 47.5575 23.4315 43.6783 22.2298 39.0475M46.1153 50.2634C46.267 50.1233 46.4481 49.9929 46.5595 49.8735C48.0843 48.9708 49.3864 48.1289 50.6897 46.9459C51.0532 46.5353 52.0126 45.7641 52.1741 45.2719C52.1142 45.211 52.2158 45.0819 52.1741 45.0319C52.0236 45.1318 52.0432 44.9917 52.0236 44.8918C51.7103 45.4522 51.3261 46.5244 50.4988 46.5244C50.407 46.3952 50.6298 46.2441 50.6298 46.1235C50.4584 46.2246 50.2957 46.3343 50.1353 46.4342C50.1048 46.6352 49.7315 46.8655 49.5687 46.9861C49.4072 47.2968 49.1037 47.8182 48.7611 47.6172C48.1553 47.9181 47.6303 48.559 47.1457 49.011C47.1457 48.8806 47.3476 48.4798 47.3978 48.3397C47.5287 47.8889 47.5997 46.7753 47.8824 46.5146C47.7306 46.3745 47.7417 46.2344 47.782 46.0334C48.6359 45.5883 49.4682 45.1032 50.2761 44.5799C50.2259 44.6506 50.2259 44.6506 50.2357 44.6603C50.4878 44.5409 50.4878 44.5409 50.5686 44.4897C50.5588 44.4702 50.549 44.4605 50.549 44.441C50.4474 44.4897 50.4474 44.4897 50.407 44.4897C51.6472 43.5785 52.7791 42.5296 53.781 41.3635C53.7907 41.3635 53.8005 41.3525 53.8115 41.3525C53.8005 42.1152 53.7504 42.8962 53.5484 43.6284C51.7799 46.5195 49.1944 48.8274 46.1153 50.2634ZM39.2683 51.857C39.409 51.366 39.2781 48.4895 39.2781 48.0984C40.2571 48.0485 41.2165 47.9681 42.187 47.8377C42.5602 48.1289 42.9237 48.3384 43.4083 48.2398C43.4291 48.1082 43.4487 47.9888 43.4585 47.8584C43.3079 47.7975 43.1464 47.7488 42.9934 47.6976V47.6671C43.5294 47.5575 44.0655 47.4174 44.5905 47.2773C44.681 47.2773 44.7006 47.3467 44.752 47.4174C45.7714 47.1859 45.7714 47.1859 45.8424 47.1859C46.0541 47.2968 46.2866 46.9154 46.2866 46.7254C46.3478 46.6048 47.0845 46.3648 47.246 46.2941C47.0747 46.7558 47.2362 46.5853 47.2668 46.9654C47.2766 46.9556 47.2864 46.9556 47.2974 46.9459C47.2974 46.6657 47.3072 46.6157 47.4382 46.3855H47.5605C47.6303 46.5244 47.5189 47.1165 47.4993 47.2566C47.3672 47.8779 47.2154 48.6601 46.8324 49.1706C46.307 49.4435 45.7816 49.7111 45.2562 49.9734C45.0751 50.1733 45.146 50.1136 45.1252 50.3146C45.0938 50.3346 45.0601 50.3509 45.0249 50.3633C45.4593 50.5741 45.9843 49.9028 46.2266 50.0222C46.0615 50.1779 45.8857 50.322 45.7004 50.4535C43.7216 51.3063 41.5506 51.807 39.2683 51.857ZM31.0666 50.0027C30.1182 48.9708 29.7033 47.4564 29.8453 46.0638C32.4605 47.1969 34.9043 47.8377 37.763 48.0789C38.2158 48.0806 38.6735 48.0871 39.1361 48.0984C39.1361 48.5005 39.0052 51.3757 39.1875 51.857H38.8632C36.1529 51.8706 33.4779 51.2346 31.0666 50.0027Z" fill="var(--fill-0, #F28A01)"/>
<path id="Vector_4" fill-rule="evenodd" clip-rule="evenodd" d="M85.293 11.8288V30.2865H93.7615L98.5599 19.9501H98.67V30.2852H105.921V11.83H97.4426L92.654 22.3783H92.5438V11.8288H85.293ZM119.967 18.214H115.115V11.83H107.864V30.2877H115.115V23.4845H119.967V30.2865H127.218V11.83H119.967V18.214ZM128.802 11.8288V17.2844H135.19V30.2852H142.441V17.2844H148.829V11.8288H128.802ZM150.435 11.8288V30.2865H167.164V25.937H157.686V23.0593H166.565V18.8439H157.686V16.177H166.973V11.83L150.435 11.8288ZM175.681 16.0978H177.252C178.597 16.1246 179.506 16.3719 179.969 16.841C180.432 17.3112 180.65 17.8242 180.614 18.3919C180.586 19.127 180.362 19.6582 179.942 19.9855C179.535 20.3087 179.049 20.5167 178.533 20.5873C178.119 20.6555 177.699 20.6881 177.279 20.6848H175.681V16.0978ZM168.619 11.8288V30.2865H175.87V24.9538H179.851C181.804 24.9254 183.376 24.583 184.566 23.9268C185.748 23.2628 186.611 22.4392 187.139 21.4475C187.667 20.4549 187.928 19.4539 187.919 18.4443C187.93 17.3157 187.635 16.2051 187.065 15.2291C186.494 14.2289 185.594 13.4138 184.385 12.7937C183.176 12.165 181.623 11.847 179.724 11.8288H168.619ZM201.623 16.0966H203.195C204.539 16.1234 205.449 16.3719 205.913 16.8397C206.375 17.31 206.593 17.8242 206.557 18.3992C206.529 19.1351 206.311 19.6663 205.884 19.994C205.477 20.3168 204.991 20.5273 204.476 20.6044C204.062 20.6725 203.642 20.7051 203.223 20.7019H201.623V16.0966ZM194.562 11.8275V30.2852H201.814V24.9538H205.794C207.747 24.9262 209.319 24.581 210.51 23.9182C211.691 23.253 212.554 22.4294 213.081 21.4377C213.61 20.446 213.871 19.4449 213.863 18.4345C213.868 17.3057 213.57 16.1961 212.999 15.2206C212.427 14.2191 211.537 13.4053 210.319 12.7839C209.11 12.1553 207.556 11.8373 205.658 11.819H194.562V11.8275ZM222.73 16.2038L224.701 21.9872H220.667L222.612 16.2038H222.73ZM217.932 11.8288L211.298 30.295H218.549L219.822 26.3098H225.51L226.81 30.2938H234.442L227.7 11.83L217.932 11.8288ZM243.985 15.9382C244.883 15.965 245.54 16.2659 245.958 16.841C246.374 17.4095 246.64 18.0885 246.757 18.878C246.876 19.6663 246.921 20.3924 246.911 21.0661C246.928 21.737 246.877 22.4664 246.757 23.2543C246.638 24.0413 246.375 24.715 245.958 25.2913C245.539 25.8664 244.876 26.1685 243.985 26.1929C243.086 26.1685 242.432 25.8664 242.014 25.2913C241.595 24.7236 241.332 24.0413 241.215 23.2543C241.108 22.5298 241.056 21.7984 241.059 21.0661C241.047 20.3337 241.099 19.6015 241.215 18.878C241.332 18.0898 241.595 17.4172 242.014 16.841C242.432 16.2647 243.086 15.9638 243.985 15.9382ZM243.985 11.5096C240.623 11.5364 238.024 12.3953 236.198 14.0778C234.371 15.7615 233.453 18.0898 233.426 21.0576C233.445 24.0328 234.371 26.3537 236.198 28.0362C238.024 29.7187 240.615 30.5776 243.985 30.6044C247.357 30.5776 249.946 29.7187 251.773 28.0362C253.6 26.3537 254.517 24.0242 254.544 21.0576C254.517 18.0812 253.599 15.7615 251.773 14.0778C249.946 12.3965 247.348 11.5364 243.985 11.5096Z" fill="var(--fill-0, #004781)"/>
<path id="Vector_5" d="M85.293 37.7012H253.895V39.6859H85.293V37.7012Z" fill="var(--fill-0, #F28A01)"/>
</g>
<defs>
<clipPath id="clip0_2025_320">
<rect width="254.544" height="73.0998" fill="white"/>
</clipPath>
</defs>
</svg>
