<svg preserveAspectRatio="none" width="100%" height="100%" overflow="visible" style="display: block;" viewBox="0 0 242.296 75.8704" fill="none" xmlns="http://www.w3.org/2000/svg">
<g id="logo_rosseti_ural 1" style="mix-blend-mode:luminosity" clip-path="url(#clip0_2025_288)">
<path id="Vector" d="M101.148 24.8117C100.531 25.3816 99.8073 25.6543 99.0069 25.6543H96.084V18.3203H98.961C99.9279 18.3203 100.686 18.5984 101.242 19.1561C101.79 19.704 102.075 20.6157 102.075 21.8918C102.075 23.2747 101.766 24.2372 101.148 24.8117ZM106.887 25.8181C107.259 24.6693 107.453 23.3816 107.453 21.9759C107.453 20.3618 107.241 18.9758 106.828 17.7928C106.416 16.6175 105.826 15.6558 105.079 14.892C104.342 14.1273 103.441 13.5628 102.394 13.1968C101.339 12.8209 100.201 12.6451 98.9602 12.6451H90.5976V42.1502H96.0834V31.3848H99.2703C100.531 31.3848 101.667 31.1598 102.677 30.7005C103.681 30.2497 104.551 29.6183 105.261 28.8061C105.953 27.98 106.506 26.982 106.887 25.8181Z" fill="var(--fill-0, #005A99)"/>
<path id="Vector_2" d="M117.816 35.2268C117.346 34.5019 117.116 33.5859 117.116 32.4664V21.6994C117.116 21.3674 117.17 21.0117 117.28 20.638C117.402 20.2599 117.577 19.9138 117.816 19.5915C118.055 19.2775 118.364 19.0165 118.743 18.8054C119.12 18.5905 119.593 18.4831 120.141 18.4831C120.687 18.4831 121.151 18.6144 121.515 18.8382C121.885 19.0866 122.178 19.3588 122.407 19.6937C122.62 20.0346 122.788 20.3852 122.876 20.7454C122.965 21.1004 123.002 21.4279 123.002 21.6987V33.175C123.002 34.152 122.726 34.9084 122.155 35.4686C121.589 36.025 120.912 36.3055 120.141 36.3055C119.055 36.3055 118.286 35.9512 117.816 35.2268ZM123.519 41.5036C124.541 41.0739 125.425 40.4526 126.154 39.6292C126.912 38.8064 127.482 37.818 127.892 36.6568C128.31 35.5074 128.522 34.2072 128.522 32.7632V21.9575C128.522 20.8126 128.35 19.6907 128.013 18.5727C127.668 17.462 127.169 16.4603 126.482 15.5861C125.805 14.7164 124.938 14.0056 123.877 13.464C122.815 12.9166 121.571 12.6451 120.141 12.6451C118.598 12.6451 117.293 12.9255 116.231 13.4961C115.162 14.066 114.285 14.8022 113.613 15.6958C112.927 16.5856 112.427 17.5769 112.126 18.6801C111.836 19.7691 111.667 20.8715 111.667 21.9575V32.297C111.667 33.6194 111.836 34.8673 112.148 36.057C112.472 37.261 112.967 38.3051 113.639 39.2098C114.329 40.1116 115.197 40.8269 116.269 41.3551C117.338 41.8885 118.64 42.1502 120.142 42.1502C121.373 42.1502 122.495 41.934 123.519 41.5036Z" fill="var(--fill-0, #005A99)"/>
<path id="Vector_3" d="M137.063 39.2052C137.817 40.107 138.813 40.8225 140.024 41.3468C141.229 41.8838 142.706 42.1502 144.425 42.1502C146.844 42.1502 148.904 41.5057 150.586 40.2294C152.266 38.9455 153.332 37.179 153.764 34.9272L147.847 33.2538C147.727 34.2028 147.346 34.9413 146.684 35.488C146.03 36.0258 145.262 36.3019 144.425 36.3019C143.178 36.3019 142.323 35.9512 141.819 35.2218C141.321 34.4966 141.069 33.5807 141.069 32.4639V21.6937C141.069 21.3617 141.119 21.0058 141.249 20.6321C141.358 20.2539 141.542 19.9078 141.808 19.5855C142.061 19.2715 142.406 19.0059 142.821 18.7955C143.254 18.5844 143.78 18.4815 144.425 18.4815C145.012 18.4815 145.529 18.5941 145.959 18.8097C146.381 19.038 146.743 19.3103 147.024 19.6049C147.307 19.913 147.517 20.2539 147.657 20.6329C147.777 21.0066 147.868 21.3438 147.929 21.61L153.805 19.8996C153.608 18.9597 153.25 18.0481 152.78 17.1649C152.277 16.2914 151.65 15.5245 150.882 14.8598C150.118 14.1825 149.183 13.6454 148.1 13.2456C147.014 12.8375 145.791 12.6451 144.426 12.6451C142.67 12.6451 141.194 12.9196 139.974 13.4902C138.764 14.0646 137.785 14.7964 137.022 15.6879C136.267 16.58 135.706 17.5714 135.371 18.6769C135.022 19.7631 134.843 20.8663 134.843 21.9525V32.2968C134.843 33.6156 135.034 34.8584 135.395 36.0534C135.753 37.2522 136.308 38.2973 137.063 39.2052Z" fill="var(--fill-0, #005A99)"/>
<path id="Vector_4" d="M163.7 20.6317C163.808 20.2535 163.974 19.9074 164.191 19.5852C164.424 19.2711 164.732 19.0056 165.108 18.7952C165.491 18.5841 165.967 18.4812 166.524 18.4812C167.055 18.4812 167.505 18.5938 167.893 18.8094C168.276 19.0377 168.59 19.3099 168.848 19.6046C169.103 19.9126 169.29 20.2535 169.397 20.6325C169.506 21.0062 169.594 21.3434 169.647 21.6096L174.874 19.8992C174.694 18.9593 174.394 18.0478 173.957 17.1646C173.535 16.2912 172.965 15.5243 172.278 14.8597C171.59 14.1824 170.76 13.6454 169.806 13.2455C168.831 12.8375 167.734 12.6451 166.524 12.6451C164.968 12.6451 163.655 12.9196 162.577 13.4902C161.488 14.0646 160.612 14.7963 159.941 15.6877C159.27 16.5798 158.779 17.5712 158.471 18.6766C158.17 19.7627 158.019 20.8659 158.019 21.952V32.2957C158.019 33.6146 158.17 34.8574 158.492 36.0524C158.804 37.2509 159.296 38.2975 159.977 39.2054C160.651 40.1072 161.538 40.8225 162.614 41.3468C163.687 41.8838 164.992 42.1502 166.525 42.1502C168.684 42.1502 170.511 41.5057 172.013 40.2294C173.511 38.9458 174.449 37.1794 174.833 34.9274L169.578 33.2542C169.479 34.203 169.122 34.9415 168.541 35.4884C167.959 36.0262 167.288 36.3021 166.525 36.3021C165.426 36.3021 164.657 35.9516 164.214 35.222C163.766 34.497 163.544 33.5811 163.544 32.4643V21.6947C163.544 21.3628 163.597 21.0054 163.7 20.6317Z" fill="var(--fill-0, #005A99)"/>
<path id="Vector_5" d="M181.195 42.1502H195.944V36.3476H186.474V30.0742H194.63V24.4269H186.474V18.3272H195.944V12.6451H181.195V42.1502Z" fill="var(--fill-0, #005A99)"/>
<path id="Vector_6" d="M200.157 18.2393H206.551V42.1502H212.734V18.2393H219.12V12.6451H200.157V18.2393Z" fill="var(--fill-0, #005A99)"/>
<path id="Vector_7" d="M237.096 12.6451L229.161 29.7749H229.081V12.6451H223.334V42.1502H228.757L236.498 26.0897H236.535V42.1502H242.296V12.6451H237.096Z" fill="var(--fill-0, #005A99)"/>
<path id="Vector_8" d="M45.974 23.1826L23.1761 73.0459C27.7667 74.858 32.79 75.8704 38.0819 75.8704C43.2407 75.8704 48.1566 74.902 52.673 73.1458L47.0123 23.3314C46.6518 23.3167 46.3059 23.2669 45.974 23.1826Z" fill="var(--fill-0, #005A99)"/>
<path id="Vector_9" d="M43.4858 21.0751L2.10692 48.9225C4.94224 58.6674 11.4391 66.7948 19.9629 71.6554L44.2453 21.7797C43.9767 21.5788 43.711 21.3392 43.4858 21.0751Z" fill="var(--fill-0, #005A99)"/>
<path id="Vector_10" d="M48.4598 23.7565L56.0731 71.6554C64.5295 66.9107 70.9705 58.9541 73.7422 49.3809L49.6599 23.1826C49.2983 23.4296 48.8829 23.6223 48.4598 23.7565Z" fill="var(--fill-0, #005A99)"/>
<path id="Vector_11" d="M44.2447 14.2457L36.3671 0C26.1197 0.609128 16.9735 5.45944 10.5346 12.892L42.5625 16.8601C42.8556 15.819 43.4443 14.9178 44.2447 14.2457Z" fill="var(--fill-0, #005A99)"/>
<path id="Vector_12" d="M51.4554 18.8743C51.4116 19.8539 51.0941 20.761 50.5661 21.5097L75.3845 44.2577C75.6831 42.369 75.8491 40.4259 75.8491 38.4364C75.8491 30.3966 73.2172 22.9554 68.7659 16.8601L51.4554 18.8743Z" fill="var(--fill-0, #005A99)"/>
<path id="Vector_13" d="M41.8548 18.6943L6.55265 16.8601C2.41466 22.8964 0 30.1842 0 38.0427C0 40.1569 0.176404 42.2421 0.521355 44.2577L42.1384 19.9719C41.9856 19.5748 41.8978 19.136 41.8548 18.6943Z" fill="var(--fill-0, #005A99)"/>
<path id="Vector_14" d="M46.549 13.496C48.6018 13.5543 50.3406 14.9234 51.0939 16.8601L65.3145 13.1997C58.9965 5.62887 50.0486 0.678888 40.0315 0L45.288 13.6611C45.6873 13.5649 46.107 13.4914 46.549 13.496Z" fill="var(--fill-0, #005A99)"/>
<path id="Vector_15" d="M101.906 54.8229H99.1411C99.0179 55.3829 98.8205 56.1039 98.5731 57.0373C98.3258 57.9707 98.079 58.9572 97.8075 59.9446C97.5359 60.9581 97.2891 61.9185 97.0669 62.8258C96.8201 63.7322 96.6227 64.4262 96.4986 64.9331H96.3754L95.1407 60.5585L93.511 54.8229H90.5976L95.0666 68.8014C95.0415 68.9348 94.9924 69.068 94.9431 69.1751C94.894 69.3083 94.8441 69.4153 94.8198 69.5224C94.5974 70.0823 94.3508 70.4828 94.1035 70.6691C93.8319 70.8562 93.5352 70.9626 93.1903 70.9626H92.178V73.4702H93.561C94.0051 73.4432 94.425 73.3901 94.7956 73.31C95.1656 73.2299 95.5362 73.0436 95.8571 72.75C96.1786 72.4828 96.4993 72.0832 96.7953 71.5494C97.0911 71.0427 97.3633 70.3487 97.6349 69.4684C98.3757 67.014 99.0914 64.5602 99.7827 62.1326C100.474 59.7052 101.19 57.2775 101.906 54.8229ZM114.376 57.9707C114.128 57.2505 113.783 56.6636 113.314 56.1831C112.845 55.7296 112.301 55.3829 111.659 55.1426C111.017 54.9024 110.301 54.7961 109.486 54.7961H104.301V73.3631H107.115V66.2399H109.634C110.498 66.2399 111.239 66.0806 111.881 65.7864C112.522 65.4928 113.066 65.0924 113.485 64.5855C113.905 64.0789 114.202 63.465 114.423 62.7718C114.646 62.078 114.745 61.3317 114.745 60.5307C114.745 59.5441 114.622 58.6908 114.376 57.9707ZM111.363 62.5855C110.943 63.0924 110.326 63.3596 109.486 63.3596H107.116V57.624H109.462C110.301 57.624 110.918 57.8645 111.338 58.345C111.758 58.8516 111.956 59.5456 111.956 60.4521C111.956 61.3593 111.758 62.0519 111.363 62.5855ZM124.642 73.3631H127.63L122.642 54.7961H119.926L114.963 73.3631H117.902C117.951 73.2029 118.025 72.9365 118.124 72.5629C118.198 72.1894 118.297 71.789 118.42 71.3622C118.519 70.9357 118.618 70.535 118.717 70.1616C118.816 69.7881 118.89 69.5215 118.914 69.3614H123.679L124.642 73.3631ZM121.235 59.0112H121.358C121.383 59.1705 121.433 59.4377 121.507 59.7844C121.581 60.1579 121.679 60.5585 121.778 60.9581C121.852 61.3579 121.951 61.7583 122.026 62.132C122.1 62.5054 122.149 62.7718 122.173 62.932L123.037 66.6397H119.531L120.42 62.9052L121.235 59.0112ZM134.472 57.6234H138.373V73.3625H141.164V54.7953H131.879V64.9322C131.879 65.9997 131.83 66.88 131.756 67.6001C131.657 68.3203 131.509 68.907 131.287 69.3877C131.065 69.8674 130.793 70.2678 130.447 70.5614C130.077 70.8817 129.632 71.1481 129.114 71.3886L129.879 73.7629C130.768 73.5766 131.509 73.256 132.102 72.8025C132.694 72.3757 133.163 71.789 133.534 71.0419C133.88 70.3218 134.126 69.4145 134.275 68.3209C134.398 67.2543 134.472 65.9735 134.472 64.5063V57.6234Z" fill="var(--fill-0, #005A99)"/>
</g>
<defs>
<clipPath id="clip0_2025_288">
<rect width="242.296" height="75.8704" fill="white"/>
</clipPath>
</defs>
</svg>
