<svg preserveAspectRatio="none" width="100%" height="100%" overflow="visible" style="display: block;" viewBox="0 0 33.6 11.7823" fill="none" xmlns="http://www.w3.org/2000/svg">
<path id="arrow" d="M0.8 5.09117C0.358172 5.09117 0 5.44934 0 5.89117C0 6.333 0.358172 6.69117 0.8 6.69117V5.89117V5.09117ZM33.3657 6.45685C33.6781 6.14443 33.6781 5.6379 33.3657 5.32548L28.2745 0.234314C27.9621 -0.078105 27.4556 -0.078105 27.1431 0.234314C26.8307 0.546734 26.8307 1.05327 27.1431 1.36568L31.6686 5.89117L27.1431 10.4167C26.8307 10.7291 26.8307 11.2356 27.1431 11.548C27.4556 11.8604 27.9621 11.8604 28.2745 11.548L33.3657 6.45685ZM0.8 5.89117V6.69117H32.8V5.89117V5.09117H0.8V5.89117Z" fill="var(--stroke-0, white)"/>
</svg>
