<svg preserveAspectRatio="none" width="100%" height="100%" overflow="visible" style="display: block;" viewBox="0 0 44.55 38.05" fill="none" xmlns="http://www.w3.org/2000/svg">
<g id="SVGRepo_iconCarrier">
<path id="Vector" d="M1.15 10.9H43.4" stroke="var(--stroke-0, #00CB62)" stroke-width="2.3" stroke-miterlimit="10" stroke-linecap="round" stroke-linejoin="round"/>
<g id="Group">
<path id="Vector_2" d="M7.65 7.65C7.1625 7.65 6.8375 7.4875 6.5125 7.1625C6.1875 6.8375 6.025 6.5125 6.025 6.025C6.025 5.5375 6.1875 5.2125 6.5125 4.8875L6.675 4.725C6.8375 4.725 6.8375 4.5625 7 4.5625C7.1625 4.4 7.1625 4.4 7.325 4.4C7.4875 4.4 7.8125 4.4 7.975 4.4C8.1375 4.4 8.1375 4.4 8.3 4.5625C8.4625 4.5625 8.4625 4.725 8.625 4.725L8.7875 4.8875C8.95 5.05 9.1125 5.2125 9.1125 5.375C9.275 5.5375 9.275 5.8625 9.275 6.025C9.275 6.1875 9.275 6.5125 9.1125 6.675C9.1125 6.8375 8.95 7 8.7875 7.1625C8.4625 7.4875 8.1375 7.65 7.65 7.65Z" fill="var(--fill-0, #00CB62)"/>
</g>
<g id="Group_2">
<path id="Vector_3" d="M12.525 7.65C12.0375 7.65 11.7125 7.4875 11.3875 7.1625C11.0625 6.8375 10.9 6.5125 10.9 6.025C10.9 5.8625 10.9 5.5375 11.0625 5.375C11.225 5.2125 11.225 5.05 11.3875 4.8875C11.55 4.725 11.7125 4.5625 11.875 4.5625C12.525 4.2375 13.175 4.4 13.6625 4.8875C13.825 5.05 13.9875 5.2125 13.9875 5.375C14.15 5.5375 14.15 5.8625 14.15 6.025C14.15 6.5125 13.9875 6.8375 13.6625 7.1625C13.3375 7.4875 13.0125 7.65 12.525 7.65Z" fill="var(--fill-0, #00CB62)"/>
</g>
<g id="Group_3">
<path id="Vector_4" d="M17.4 7.65C17.2375 7.65 16.9125 7.65 16.75 7.4875C16.5875 7.325 16.425 7.325 16.2625 7.1625C16.1 7 15.9375 6.8375 15.9375 6.675C15.775 6.5125 15.775 6.1875 15.775 6.025C15.775 5.8625 15.775 5.5375 15.9375 5.375C16.1 5.2125 16.1 5.05 16.2625 4.8875C16.9125 4.2375 17.8875 4.2375 18.5375 4.8875C18.7 5.05 18.8625 5.2125 18.8625 5.375C19.025 5.5375 19.025 5.8625 19.025 6.025C19.025 6.1875 19.025 6.5125 18.8625 6.675C18.7 6.8375 18.7 7 18.5375 7.1625C18.2125 7.4875 17.8875 7.65 17.4 7.65Z" fill="var(--fill-0, #00CB62)"/>
</g>
<path id="Vector_5" d="M40.15 1.15H4.4C2.6125 1.15 1.15 2.6125 1.15 4.4V33.65C1.15 35.4375 2.6125 36.9 4.4 36.9H40.15C41.9375 36.9 43.4 35.4375 43.4 33.65V4.4C43.4 2.6125 41.9375 1.15 40.15 1.15Z" stroke="var(--stroke-0, #00CB62)" stroke-width="2.3" stroke-miterlimit="10" stroke-linecap="round" stroke-linejoin="round"/>
<path id="Vector_6" d="M14.15 19.025L9.275 23.9L14.15 28.775" stroke="var(--stroke-0, #00CB62)" stroke-width="2.3" stroke-miterlimit="10" stroke-linecap="round" stroke-linejoin="round"/>
<path id="Vector_7" d="M30.4 19.025L35.275 23.9L30.4 28.775" stroke="var(--stroke-0, #00CB62)" stroke-width="2.3" stroke-miterlimit="10" stroke-linecap="round" stroke-linejoin="round"/>
<path id="Vector_8" d="M25.525 17.4L19.025 30.4" stroke="var(--stroke-0, #00CB62)" stroke-width="2.3" stroke-miterlimit="10" stroke-linecap="round" stroke-linejoin="round"/>
</g>
</svg>
