<svg preserveAspectRatio="none" width="100%" height="100%" overflow="visible" style="display: block;" viewBox="0 0 1004.8 1039.09" fill="none" xmlns="http://www.w3.org/2000/svg">
<g id="Group">
<path id="Vector" d="M826.423 1038.9C826.423 1038.9 470.544 376.918 352.508 156.528C236.1 -60.7642 43.5377 -10.4814 0.355829 64.957" stroke="var(--stroke-0, #00CB62)" stroke-width="0.82" stroke-miterlimit="10"/>
<path id="Vector_2" d="M835.277 1026.61C835.277 1026.61 484.11 373.292 368.116 156.771C248.98 -65.6323 54.0334 -5.42723 10.7944 72.6524" stroke="var(--stroke-0, #00CB62)" stroke-width="0.95" stroke-miterlimit="10"/>
<path id="Vector_3" d="M844.116 1014.33C844.116 1014.33 497.661 369.68 383.738 157C261.875 -70.5007 64.5288 -0.358951 21.2327 80.3619" stroke="var(--stroke-0, #00CB62)" stroke-width="1.07" stroke-miterlimit="10"/>
<path id="Vector_4" d="M852.969 1002.04C852.969 1002.04 511.212 366.054 399.345 157.228C274.754 -75.3692 75.0239 4.69492 31.6707 88.0569" stroke="var(--stroke-0, #00CB62)" stroke-width="1.2" stroke-miterlimit="10"/>
<path id="Vector_5" d="M861.808 989.763C861.808 989.763 524.764 362.442 414.967 157.471C287.635 -80.2372 85.5201 9.74917 42.1097 95.7666" stroke="var(--stroke-0, #00CB62)" stroke-width="1.32" stroke-miterlimit="10"/>
<path id="Vector_6" d="M870.66 977.471C870.66 977.471 538.314 358.83 430.588 157.699C300.514 -85.1055 96.0002 14.8033 52.547 103.462" stroke="var(--stroke-0, #00CB62)" stroke-width="1.44" stroke-miterlimit="10"/>
<path id="Vector_7" d="M879.501 965.178C879.501 965.178 551.867 355.204 446.197 157.942C313.396 -89.9886 106.497 19.8568 62.9869 111.171" stroke="var(--stroke-0, #00CB62)" stroke-width="1.57" stroke-miterlimit="10"/>
<path id="Vector_8" d="M888.354 952.9C888.354 952.9 565.418 351.592 461.819 158.17C326.29 -94.8567 116.992 24.9253 73.4245 118.866" stroke="var(--stroke-0, #00CB62)" stroke-width="1.69" stroke-miterlimit="10"/>
<path id="Vector_9" d="M897.193 940.608C897.193 940.608 578.969 347.965 477.426 158.399C339.17 -99.7252 127.488 29.9792 83.8631 126.576" stroke="var(--stroke-0, #00CB62)" stroke-width="1.81" stroke-miterlimit="10"/>
<path id="Vector_10" d="M906.047 928.33C906.047 928.33 592.536 344.353 493.049 158.641C352.051 -104.594 137.984 35.0331 94.302 134.271" stroke="var(--stroke-0, #00CB62)" stroke-width="1.94" stroke-miterlimit="10"/>
<path id="Vector_11" d="M914.886 916.038C914.886 916.038 606.087 340.727 508.67 158.87C364.931 -109.462 148.465 40.0871 104.74 141.966" stroke="var(--stroke-0, #00CB62)" stroke-width="2.06" stroke-miterlimit="10"/>
<path id="Vector_12" d="M923.739 903.76C923.739 903.76 619.638 337.115 524.278 159.098C377.811 -114.33 158.96 45.1553 115.178 149.675" stroke="var(--stroke-0, #00CB62)" stroke-width="2.19" stroke-miterlimit="10"/>
<path id="Vector_13" d="M932.578 891.467C932.578 891.467 633.19 333.503 539.901 159.341C390.706 -119.199 169.456 50.2093 125.617 157.371" stroke="var(--stroke-0, #00CB62)" stroke-width="2.31" stroke-miterlimit="10"/>
<path id="Vector_14" d="M941.431 879.175C941.431 879.175 646.74 329.877 555.507 159.569C403.585 -124.067 179.951 55.2633 136.055 165.08" stroke="var(--stroke-0, #00CB62)" stroke-width="2.43" stroke-miterlimit="10"/>
<path id="Vector_15" d="M950.271 866.897C950.271 866.897 660.293 326.265 571.13 159.798C416.467 -128.935 190.447 60.3174 146.494 172.775" stroke="var(--stroke-0, #00CB62)" stroke-width="2.56" stroke-miterlimit="10"/>
<path id="Vector_16" d="M959.124 854.605C959.124 854.605 673.844 322.638 586.752 160.04C429.346 -133.804 200.928 65.3711 156.932 180.485" stroke="var(--stroke-0, #00CB62)" stroke-width="2.68" stroke-miterlimit="10"/>
<path id="Vector_17" d="M967.964 842.327C967.964 842.327 687.396 319.026 602.36 160.269C442.227 -138.672 211.424 70.4395 167.386 188.18" stroke="var(--stroke-0, #00CB62)" stroke-width="2.8" stroke-miterlimit="10"/>
<path id="Vector_18" d="M976.817 830.034C976.817 830.034 700.961 315.4 617.982 160.497C455.122 -143.541 221.92 75.4934 177.824 195.889" stroke="var(--stroke-0, #00CB62)" stroke-width="2.93" stroke-miterlimit="10"/>
<path id="Vector_19" d="M985.656 817.742C985.656 817.742 714.513 311.788 633.59 160.74C468.002 -148.409 232.416 80.5475 188.263 203.585" stroke="var(--stroke-0, #00CB62)" stroke-width="3.05" stroke-miterlimit="10"/>
<path id="Vector_20" d="M994.509 805.464C994.509 805.464 728.064 308.176 649.212 160.968C480.882 -153.277 242.911 85.6014 198.701 211.28" stroke="var(--stroke-0, #00CB62)" stroke-width="3.18" stroke-miterlimit="10"/>
<path id="Vector_21" d="M1003.35 793.172C1003.35 793.172 741.616 304.55 664.834 161.197C493.763 -158.146 253.407 90.6554 209.14 218.989" stroke="var(--stroke-0, #00CB62)" stroke-width="3.3" stroke-miterlimit="10"/>
</g>
</svg>
