<svg preserveAspectRatio="none" width="100%" height="100%" overflow="visible" style="display: block;" viewBox="0 0 342.056 58.4928" fill="none" xmlns="http://www.w3.org/2000/svg">
<g id="mosenegrosbit 1" style="mix-blend-mode:luminosity" clip-path="url(#clip0_2025_262)">
<path id="Vector" d="M8.48312 8.54779C3.67625 13.3933 0.708546 19.7899 0.0985112 26.6199C-0.511525 33.4501 1.2749 40.2794 5.14566 45.9149C9.01642 51.5503 14.7254 55.6337 21.2752 57.4513C27.825 59.2689 34.7991 58.7053 40.9792 55.859L37.1831 48.8503L54.5748 55.0973L8.48312 8.54779Z" fill="var(--fill-0, #DF8844)"/>
<path id="Vector_2" d="M49.4549 49.9442C54.2674 45.1009 57.2402 38.7034 57.8529 31.8709C58.4657 25.0384 56.6795 18.2059 52.8068 12.5686C48.9342 6.93133 43.2215 2.84815 36.6682 1.03334C30.115 -0.781464 23.1384 -0.212349 16.9587 2.64113L20.7549 9.6418L3.36321 3.37847L49.4549 49.9442Z" fill="var(--fill-0, #304673)"/>
<path id="Vector_3" d="M49.0213 30.7896H45.7467C45.3696 32.3048 44.4466 33.1312 43.1143 33.1312C41.5894 33.1312 40.7067 32.0211 40.7067 30.0928C40.7067 28.0104 41.7018 25.1664 44.1496 25.1664C45.6023 25.1664 46.2363 25.9118 46.2765 27.3297H49.4867V27.0462C49.4867 24.2507 47.4482 22.4601 44.2941 22.4601C39.9843 22.4601 37.4321 25.8794 37.4321 30.1252C37.4321 33.7227 39.4545 35.797 42.9136 35.797C44.3669 35.8819 45.7992 35.4154 46.9292 34.4889C48.0592 33.5624 48.8054 32.243 49.0213 30.7896ZM37.0389 28.14C37.0389 24.5343 35.0243 22.4682 31.5654 22.4682C28.4915 22.4682 26.3165 24.0887 25.538 26.9489H28.8928C29.0438 26.4218 29.3602 25.9583 29.7943 25.6282C30.2284 25.298 30.7569 25.1188 31.3005 25.1177C32.6648 25.1177 33.5316 26.0171 33.7081 27.6133H29.6953L29.1416 30.1899H33.4354C32.9939 31.7294 31.9987 33.0906 30.2972 33.0906C28.8446 33.0906 28.2026 32.3371 28.1704 30.9192H24.9601V31.2109C24.9601 34.0063 26.9987 35.7888 30.1528 35.7888C34.4626 35.7888 37.0148 32.3695 37.0148 28.1319L37.0389 28.14ZM25.6022 22.7518H20.8671L18.7082 26.7382C17.803 28.3419 17.0943 30.0505 16.5973 31.8267C16.6722 30.4544 16.6427 29.0783 16.5091 27.7106L16.0998 22.7518H11.485L8.8285 35.4972H11.9505L13.042 30.0928C13.3631 28.529 13.652 26.957 13.8446 25.377C13.8446 26.7949 13.9168 28.1886 14.0533 29.6066L14.6391 35.4972H17.1753L20.1768 29.6956C20.9152 28.2616 21.5573 26.8112 22.1753 25.3284C21.7499 26.8436 21.3726 28.3911 21.0437 29.9469L19.8397 35.4972H22.9537L25.6022 22.7518Z" fill="var(--fill-0, white)"/>
<path id="Vector_4" d="M333.364 37.5468H337.16L337.545 35.3592H327.328L326.944 37.5468H330.748L328.91 48.0802H331.526L333.364 37.5468ZM316.735 35.3592L314.512 48.0721H324.087L324.472 45.8763H317.513L318.131 42.3597H324.24L324.624 40.1721H318.501L318.957 37.5468H325.636L326.021 35.3592H316.735ZM306.519 37.5468H309.52C310.715 37.5468 311.381 37.8791 311.206 38.908C311.029 39.9371 310.138 40.326 309.103 40.326H306.029L306.519 37.5468ZM305.659 42.4651H308.991C309.937 42.4651 310.804 42.9027 310.595 44.0046C310.562 44.284 310.476 44.5542 310.339 44.7996C310.203 45.0451 310.019 45.261 309.801 45.4348C309.581 45.6087 309.33 45.7372 309.062 45.813C308.794 45.8888 308.513 45.9102 308.235 45.8763H305.026L305.659 42.4651ZM302.056 48.0721H307.474C312.12 48.0721 312.995 45.3577 313.179 44.2719C313.397 43.0241 313.228 41.8412 311.791 41.2253C312.331 41.0112 312.804 40.6533 313.159 40.1896C313.514 39.7259 313.736 39.1738 313.805 38.592C314.03 37.2956 313.589 35.351 310.523 35.351H304.311L302.056 48.0721ZM301.663 39.5238C301.847 37.6521 300.78 35.0269 297.016 35.0269C293.806 35.0269 290.844 37.2794 290.073 41.7278C289.303 46.1761 291.302 48.4043 294.649 48.4043C297.802 48.4043 299.929 46.4758 300.933 43.7048H298.308C298.098 44.4018 297.674 45.0133 297.096 45.4503C296.519 45.8874 295.82 46.1274 295.097 46.1356C292.875 46.1356 292.296 44.0208 292.69 41.7439C293.316 38.1545 295.386 37.2389 296.655 37.2389C296.967 37.1933 297.285 37.2188 297.586 37.3138C297.887 37.4088 298.163 37.5706 298.395 37.7875C298.625 38.0043 298.805 38.2707 298.921 38.567C299.037 38.8633 299.085 39.1819 299.062 39.4996L301.663 39.5238ZM281.109 37.5468H284.913L285.299 35.3592H275.074L274.689 37.5468H278.492L276.654 48.0802H279.295L281.109 37.5468ZM265.651 35.3592H263.034L260.836 48.0721H263.645L270.363 39.0134L268.758 48.0721H271.381L273.596 35.3592H270.651L264.086 44.2152L265.651 35.3592ZM250.965 45.8924C252.353 44.0937 252.819 42.6029 253.372 39.3294L253.677 37.5631H257.111L255.652 45.8924H250.965ZM251.622 35.3592L250.956 39.1349C250.395 42.376 249.841 44.0775 248.355 45.8763H247.192L246.341 50.7378H248.75L249.215 48.064H256.622L256.157 50.7378H258.565L259.416 45.8763H258.187L260.025 35.3429L251.622 35.3592ZM237.272 41.7116C237.898 38.1545 240.049 37.2632 241.47 37.2632C242.89 37.2632 244.729 38.1545 244.111 41.7116C243.493 45.2686 241.325 46.1841 239.897 46.1841C238.469 46.1841 236.639 45.2929 237.257 41.7359L237.272 41.7116ZM234.64 41.7359C233.605 47.6912 237.851 48.4286 239.511 48.4286C241.173 48.4286 245.675 47.6912 246.734 41.7359C247.795 35.7804 243.525 35.0512 241.872 35.0512C240.217 35.0512 235.707 35.7804 234.648 41.7359H234.64ZM224.415 35.3834L227.128 41.5738L221.936 48.0559H225.009L228.3 43.7129L229.905 48.0559H233.115L230.178 41.4523L235.074 35.3429H232.04L229.037 39.4509L227.513 35.3429L224.415 35.3834ZM214.784 35.3834H212.167L209.945 48.0965H212.681L219.399 39.0377L217.794 48.0965H220.419L222.634 35.3834H219.688L213.131 44.2395L214.784 35.3834ZM202.746 37.5711H204.841C206.445 37.5711 207.056 38.0978 206.839 39.3374C206.818 39.6223 206.74 39.9001 206.612 40.1545C206.483 40.4091 206.307 40.6352 206.09 40.82C205.874 41.0047 205.625 41.1442 205.356 41.2306C205.085 41.3168 204.801 41.3482 204.52 41.3226H202.071L202.746 37.5711ZM201.702 43.5022H204.72C205.853 43.4954 206.948 43.0853 207.811 42.3443C208.674 41.6034 209.25 40.5787 209.44 39.4509C209.881 36.9472 208.693 35.3996 206.229 35.3996H200.474L198.236 48.0721H200.859L201.702 43.5022ZM187.93 35.3996L185.707 48.1126H188.332L190.169 37.5792H195.025L193.188 48.1126H195.828L198.043 35.3996H187.93ZM172.681 35.3996H170.065L167.843 48.1126H170.651L177.368 39.0539L175.763 48.1126H178.388L180.579 35.3592H177.634L171.108 44.2152L172.681 35.3996ZM155.459 35.3996L153.244 48.1126H155.651L157.513 37.4819L157.946 48.1126H160.514L164.728 37.4819L162.923 48.0721H165.371L167.586 35.3592H163.789L159.776 45.3739L159.254 35.3592L155.459 35.3996ZM147.432 38.2679L148.235 43.2915H144.873L147.432 38.2679ZM146.461 35.3996L139.648 48.0721H142.408L143.749 45.4387H148.38L148.733 48.0721H151.582L149.375 35.3592L146.461 35.3996ZM132.882 35.3996H130.177L127.954 48.1126H130.571L131.573 42.4407H136.478L135.482 48.1126H138.099L140.322 35.3996H137.706L136.863 40.2125H131.951L132.882 35.3996ZM122.77 39.5644C122.962 37.6926 121.895 35.0675 118.131 35.0675C114.92 35.0675 111.959 37.3199 111.18 41.7683C110.402 46.2166 112.408 48.4448 115.755 48.4448C118.917 48.4448 121.036 46.5164 122.039 43.7452H119.423C119.211 44.4411 118.786 45.051 118.209 45.4877C117.632 45.9245 116.933 46.1654 116.213 46.1761C113.989 46.1761 113.404 44.0614 113.805 41.7845C114.431 38.195 116.493 37.2794 117.762 37.2794C118.073 37.2354 118.391 37.2621 118.692 37.3576C118.992 37.4531 119.267 37.6149 119.498 37.8315C119.729 38.048 119.909 38.3137 120.025 38.6093C120.141 38.9048 120.19 39.2229 120.169 39.54L122.77 39.5644Z" fill="var(--fill-0, #DF8844)"/>
<path id="Vector_5" d="M113.893 6.35201C107.28 6.35201 103.211 11.4324 103.211 17.8983C103.211 23.3838 106.341 26.5275 111.67 26.5275C118.451 26.5275 122.36 21.0907 122.36 14.568C122.36 9.29326 118.933 6.35201 113.893 6.35201ZM111.999 22.4681C109.591 22.4681 108.187 20.8476 108.187 18.0846C108.187 14.7626 109.792 10.4033 113.652 10.4033C116.284 10.4033 117.296 12.3236 117.296 14.7301C117.296 17.8253 115.667 22.4681 111.999 22.4681ZM325.844 6.78145L324.961 10.9705H330.66L327.449 26.0414H332.465L335.675 10.9705H341.197L342.08 6.78145H325.844ZM314.439 26.0414H319.423L323.436 6.78145H318.477L314.439 26.0414ZM134.832 6.35201C128.323 6.35201 124.471 11.5134 124.471 17.9226C124.471 23.3593 127.521 26.4951 132.746 26.4951C137.649 26.4951 141.076 23.7645 142.04 18.9273H137.055C136.493 21.2203 135.104 22.4681 133.09 22.4681C130.787 22.4681 129.447 20.7909 129.447 17.8739C129.447 14.7301 130.948 10.4357 134.648 10.4357C136.846 10.4357 137.809 11.5701 137.857 13.6768H142.673V13.2473C142.689 9.05018 139.648 6.35201 134.832 6.35201ZM92.0068 12.8341C90.6404 15.2578 89.5629 17.8361 88.7964 20.5153C88.9115 18.4434 88.8658 16.3655 88.6601 14.3007L88.0501 6.80576H81.0837L77.0468 26.0414H81.7579L83.4674 17.8739C83.9489 15.5161 84.3743 13.1339 84.6472 10.7598C84.6472 12.8908 84.7515 15.0056 84.9682 17.1366L85.851 26.0495H89.6793L94.2058 17.2825C95.3374 15.119 96.3005 12.9314 97.2394 10.6869C96.5974 12.9826 96.0249 15.3081 95.522 17.6633L93.7001 26.0495H98.4192L102.432 6.78955H95.2572L92.0068 12.8341ZM295.635 10.8895L296.486 6.83818H281.703L277.649 26.0981H287.168C289.014 26.0981 291.181 25.9361 292.786 24.907C293.738 24.2431 294.511 23.352 295.04 22.313C295.568 21.274 295.832 20.1191 295.812 18.9515C295.812 14.7626 293.074 13.2798 289.223 13.2798H285.258L285.74 10.93L295.635 10.8895ZM287.89 17.2176C289.448 17.2176 290.859 17.4364 290.859 19.3C290.859 21.3824 289.391 22.0305 287.465 22.0305H283.412L284.431 17.2176H287.89ZM269.166 6.35201C262.657 6.35201 258.798 11.5134 258.798 17.9226C258.798 23.3593 261.854 26.4951 267.072 26.4951C271.975 26.4951 275.411 23.7645 276.373 18.9273H271.389C270.828 21.2203 269.431 22.4681 267.425 22.4681C265.121 22.4681 263.781 20.7909 263.781 17.8739C263.781 14.7301 265.281 10.4357 268.982 10.4357C271.173 10.4357 272.135 11.5701 272.192 13.6768H277.008V13.2473C277.016 9.05018 273.933 6.35201 269.166 6.35201ZM307.385 13.2149H304.872L306.205 6.78145H301.229L297.216 26.0414H305.337C307.184 26.0414 309.351 25.8794 310.957 24.8503C311.908 24.1864 312.682 23.2953 313.21 22.2563C313.738 21.2171 314.003 20.0624 313.982 18.8948C313.982 14.7058 311.253 13.2149 307.385 13.2149ZM305.667 22.0063H303.018L304.038 17.1933H306.1C307.658 17.1933 309.07 17.412 309.07 19.2757C309.079 21.358 307.61 22.0063 305.676 22.0063H305.667ZM154.431 6.35201C149.792 6.35201 146.502 8.7828 145.322 13.1096H150.362C150.599 12.3027 151.093 11.5975 151.767 11.1037C152.442 10.6098 153.26 10.3551 154.094 10.379C156.157 10.379 157.464 11.7322 157.705 14.1386H151.622L150.819 18.036H157.304C156.63 20.3615 155.129 22.4114 152.561 22.4114C150.362 22.4114 149.398 21.277 149.35 19.1704H144.534V19.6079C144.534 23.8293 147.609 26.5275 152.384 26.5275C158.893 26.5275 162.745 21.3661 162.745 14.957C162.705 9.48772 159.655 6.35201 154.431 6.35201ZM248.219 6.35201C241.574 6.35201 237.561 11.4324 237.561 17.8983C237.561 23.3838 240.699 26.5275 246.028 26.5275C252.81 26.5275 256.687 21.0663 256.687 14.5843C256.687 9.29326 253.26 6.35201 248.219 6.35201ZM246.317 22.4681C243.91 22.4681 242.512 20.8476 242.512 18.0846C242.512 14.7626 244.118 10.4033 247.979 10.4033C250.602 10.4033 251.622 12.3236 251.622 14.7301C251.622 17.8253 249.984 22.4681 246.317 22.4681ZM239.359 6.78145H225.266L221.253 26.0414H226.26L229.423 10.9705H238.501L239.359 6.78145ZM214.768 6.78145H206.654L202.641 26.0414H207.625L208.966 19.5998H212.681C214.552 19.5998 216.694 19.4378 218.299 18.4087C219.255 17.7513 220.033 16.8627 220.562 15.8238C221.09 14.7849 221.353 13.6289 221.325 12.4614C221.357 8.27233 218.628 6.78145 214.768 6.78145ZM213.107 15.6944H209.76L210.747 10.8814H213.541C215.089 10.8814 216.51 11.1002 216.51 12.9638C216.51 15.03 215.032 15.6781 213.107 15.6781V15.6944ZM179.11 6.78145L177.641 13.774H170.996L172.465 6.76525H167.456L163.444 26.0252H168.452L170.145 18.0846H176.758L175.097 26.0414H180.104L184.118 6.78145H179.11ZM202.313 10.8328L203.115 6.78145H188.002L183.989 26.0414H199.366L200.25 21.8443H189.815L190.619 18.0603H200.073L200.876 14.1629H191.405L192.103 10.8409L202.313 10.8328Z" fill="var(--fill-0, #304673)"/>
</g>
<defs>
<clipPath id="clip0_2025_262">
<rect width="342.056" height="58.4928" fill="white"/>
</clipPath>
</defs>
</svg>
