<svg preserveAspectRatio="none" width="100%" height="100%" overflow="visible" style="display: block;" viewBox="0 0 254.355 73.1412" fill="none" xmlns="http://www.w3.org/2000/svg">
<g id="Group">
<path id="Vector" d="M105.23 23.8067C104.358 23.0896 103.341 22.516 102.178 22.0857C101.015 21.6554 99.7071 21.5121 98.2536 21.5121H88.6609V51.4854H95.0561V40.586H98.6897C100.143 40.586 101.451 40.2992 102.614 39.8689C103.777 39.4386 104.794 38.7216 105.521 38.0046C106.393 37.1441 106.974 36.1402 107.41 34.9929C107.846 33.8456 108.137 32.5549 108.137 31.1208C108.137 29.5432 107.846 28.1091 107.41 26.8184C106.829 25.5277 106.102 24.6671 105.23 23.8067ZM100.725 33.8456C99.9978 34.4192 99.1258 34.7061 98.2536 34.7061H94.9107V27.2485H98.2536C99.4165 27.2485 100.288 27.5354 100.87 28.1091C101.451 28.6827 101.887 29.5432 101.887 30.8339C101.742 32.2681 101.451 33.2719 100.725 33.8456Z" fill="var(--fill-0, #005B9C)"/>
<path id="Vector_2" d="M129.649 24.3799C128.921 23.5193 127.904 22.8023 126.597 22.2286C125.434 21.655 123.98 21.3682 122.236 21.3682C120.492 21.3682 118.893 21.655 117.73 22.2286C116.422 22.8023 115.55 23.5193 114.678 24.5233C113.951 25.3837 113.37 26.531 112.934 27.5349C112.643 28.6823 112.352 29.8296 112.352 30.9769V41.5894C112.352 42.8801 112.498 44.1708 112.934 45.4615C113.225 46.7523 113.806 47.7562 114.678 48.7601C115.405 49.764 116.422 50.4811 117.73 50.9112C118.893 51.4849 120.492 51.7718 122.236 51.7718C123.69 51.7718 124.997 51.4849 126.16 51.0547C127.323 50.6245 128.34 49.9074 129.212 49.1904C130.084 48.3298 130.666 47.326 131.247 46.1787C131.684 45.0314 131.974 43.5972 131.974 42.1631V30.9769C131.974 29.8296 131.829 28.6823 131.393 27.5349C131.102 26.2442 130.521 25.2403 129.649 24.3799ZM125.725 42.4498C125.725 43.4538 125.434 44.1708 124.707 44.8879C123.98 45.4615 123.253 45.7484 122.381 45.7484C121.073 45.7484 120.201 45.3181 119.765 44.6011C119.184 43.884 118.893 42.8801 118.893 41.7328V30.69C118.893 30.4032 118.893 29.973 119.038 29.5427C119.184 29.1125 119.329 28.8256 119.62 28.3954C119.91 28.1086 120.201 27.8217 120.638 27.5349C121.073 27.3915 121.655 27.248 122.236 27.248C122.817 27.248 123.399 27.3915 123.834 27.6783C124.271 27.9652 124.562 28.252 124.852 28.5389C125.143 28.8256 125.288 29.2559 125.434 29.6861C125.579 30.1163 125.579 30.4032 125.579 30.69V42.4498H125.725Z" fill="var(--fill-0, #005B9C)"/>
<path id="Vector_3" d="M144.619 29.5426C144.765 29.1123 144.91 28.8255 145.2 28.3953C145.491 28.1085 145.782 27.8216 146.217 27.5348C146.654 27.3914 147.235 27.2479 147.817 27.2479C148.398 27.2479 148.98 27.3914 149.415 27.5348C149.852 27.8216 150.142 28.1085 150.578 28.3953C150.869 28.6821 151.015 29.1123 151.159 29.3992C151.305 29.8295 151.45 30.1162 151.45 30.4031L157.409 28.6821C157.265 27.6782 156.828 26.8178 156.392 25.8138C155.956 24.9534 155.23 24.0929 154.502 23.3758C153.776 22.6588 152.759 22.0851 151.741 21.6548C150.578 21.2246 149.415 21.0812 147.962 21.0812C146.217 21.0812 144.619 21.3681 143.456 21.9417C142.148 22.5154 141.276 23.2324 140.404 24.2363C139.678 25.0968 139.096 26.2441 138.66 27.2479C138.369 28.3953 138.078 29.5426 138.078 30.6899V41.5893C138.078 42.88 138.224 44.1707 138.66 45.4614C138.951 46.7521 139.532 47.756 140.404 48.76C141.13 49.7638 142.148 50.481 143.456 50.9111C144.765 51.4848 146.217 51.7717 147.962 51.7717C150.433 51.7717 152.468 51.0546 154.211 49.7638C155.956 48.4731 156.974 46.6087 157.409 44.3141L151.45 42.5932C151.305 43.597 150.869 44.3141 150.287 44.8878C149.561 45.4614 148.834 45.7483 147.962 45.7483C146.654 45.7483 145.782 45.318 145.346 44.601C144.91 43.8839 144.619 42.88 144.619 41.7327V30.6899C144.474 30.2596 144.619 29.9728 144.619 29.5426Z" fill="var(--fill-0, #005B9C)"/>
<path id="Vector_4" d="M169.328 29.5426C169.474 29.1123 169.618 28.8255 169.909 28.3953C170.2 28.1085 170.491 27.8216 170.927 27.5348C171.363 27.3914 171.944 27.2479 172.526 27.2479C173.107 27.2479 173.688 27.3914 174.124 27.5348C174.561 27.8216 174.851 28.1085 175.287 28.3953C175.578 28.6821 175.723 29.1123 175.868 29.3992C176.014 29.8295 176.159 30.1162 176.159 30.4031L182.118 28.6821C181.973 27.6782 181.537 26.8178 181.101 25.8138C180.665 24.9534 179.938 24.0929 179.211 23.3758C178.485 22.6588 177.468 22.0851 176.45 21.6548C175.287 21.2246 174.124 21.0812 172.67 21.0812C170.927 21.0812 169.328 21.3681 168.165 21.9417C166.857 22.5154 165.985 23.2324 165.113 24.2363C164.387 25.0968 163.805 26.2441 163.369 27.2479C163.078 28.3953 162.787 29.5426 162.787 30.6899V41.5893C162.787 42.88 162.933 44.1707 163.369 45.4614C163.659 46.7521 164.241 47.756 165.113 48.76C165.839 49.7638 166.857 50.481 168.165 50.9111C169.328 51.4848 170.927 51.7717 172.67 51.7717C175.142 51.7717 177.177 51.0546 178.92 49.7638C180.665 48.4731 181.683 46.6087 182.118 44.3141L176.159 42.5932C176.014 43.597 175.723 44.3141 174.996 44.8878C174.27 45.4614 173.543 45.7483 172.67 45.7483C171.363 45.7483 170.491 45.318 170.055 44.601C169.618 43.8839 169.328 42.88 169.328 41.7327V30.6899C169.037 30.2596 169.183 29.9728 169.328 29.5426Z" fill="var(--fill-0, #005B9C)"/>
<path id="Vector_5" d="M188.077 51.4854H205.664V45.6055H194.327V39.2953H204.21V33.5588H194.327V27.2485H205.664V21.5121H188.077V51.4854Z" fill="var(--fill-0, #005B9C)"/>
<path id="Vector_6" d="M209.153 27.2485H215.693V51.4854H221.943V27.2485H228.484V21.5121H209.153V27.2485Z" fill="var(--fill-0, #005B9C)"/>
<path id="Vector_7" d="M248.687 21.5121L239.966 38.865V21.5121H233.57V51.4854H239.53L247.96 35.1363H248.105V51.4854H254.355V21.5121H248.687Z" fill="var(--fill-0, #005B9C)"/>
<path id="Vector_8" d="M40.8422 17.7837L6.39521 15.9193C2.32553 21.7993 0 28.97 0 36.5708C0 38.5786 0.145346 40.5865 0.581384 42.5942L41.2782 19.0744C40.9875 18.6443 40.9875 18.214 40.8422 17.7837Z" fill="var(--fill-0, #005B9C)"/>
<path id="Vector_9" d="M49.9991 19.9341L73.8358 42.1632C74.1265 40.2989 74.2719 38.4344 74.2719 36.4266C74.2719 28.5389 71.8009 21.3682 67.4406 15.3448L50.8712 17.4961C50.8712 18.3565 50.4351 19.2171 49.9991 19.9341Z" fill="var(--fill-0, #005B9C)"/>
<path id="Vector_10" d="M42.1501 20.5079L1.45333 46.8959C4.2149 56.0743 10.6101 63.8187 19.0401 68.4078L42.8769 21.0816C42.5862 21.0816 42.4408 20.7947 42.1501 20.5079Z" fill="var(--fill-0, #005B9C)"/>
<path id="Vector_11" d="M44.6211 21.9424L22.9646 70.4161C27.325 72.1371 32.1214 73.141 37.0631 73.141C42.0049 73.141 46.656 72.1371 50.871 70.5595L45.4931 22.2293C45.2025 22.0859 44.9118 22.0859 44.6211 21.9424Z" fill="var(--fill-0, #005B9C)"/>
<path id="Vector_12" d="M47.3829 21.9418L54.9409 68.6944C63.371 64.1053 69.7662 56.3609 72.6731 47.0391L48.691 21.3682C48.2551 21.655 47.819 21.7983 47.3829 21.9418Z" fill="var(--fill-0, #005B9C)"/>
<path id="Vector_13" d="M42.7316 13.3374L34.8829 0C24.7087 0.573652 15.6973 5.16287 9.4474 12.1901L40.9874 15.9188C41.2781 14.915 41.8594 14.0545 42.7316 13.3374Z" fill="var(--fill-0, #005B9C)"/>
<path id="Vector_14" d="M45.9293 12.3335C47.9641 12.3335 49.7083 13.6242 50.4351 15.3452L64.5337 12.0467C58.2837 5.16288 49.4176 0.573652 39.5341 0L44.7666 12.477C45.0573 12.3335 45.4934 12.3335 45.9293 12.3335Z" fill="var(--fill-0, #005B9C)"/>
</g>
</svg>
