<svg width="48" height="48" viewBox="0 0 48 48" fill="none" xmlns="http://www.w3.org/2000/svg">
<g clip-path="url(#clip0_411_4527)">
<path d="M12.3079 15.1363C16.4709 15.1363 19.8578 11.7411 19.8578 7.56773C19.8578 3.39485 16.4709 0 12.3079 0C8.14477 0 4.75781 3.39485 4.75781 7.56773C4.75764 11.7411 8.1446 15.1363 12.3079 15.1363ZM12.3079 2.52006C15.0815 2.52006 17.3378 4.78458 17.3378 7.56773C17.3378 10.3514 15.0813 12.6162 12.3079 12.6162C9.53449 12.6162 7.27787 10.3514 7.27787 7.56773C7.2777 4.78458 9.53433 2.52006 12.3079 2.52006Z" fill="#00CB62"/>
<path d="M35.6907 15.1363C39.8537 15.1363 43.2406 11.7411 43.2406 7.56773C43.2408 3.39485 39.8537 0 35.6907 0C31.5276 0 28.1406 3.39485 28.1406 7.56773C28.1406 11.7411 31.5276 15.1363 35.6907 15.1363ZM35.6907 2.52006C38.4643 2.52006 40.7206 4.78458 40.7206 7.56773C40.7206 10.3514 38.4641 12.6162 35.6907 12.6162C32.9171 12.6162 30.6607 10.3514 30.6607 7.56773C30.6607 4.78458 32.9171 2.52006 35.6907 2.52006Z" fill="#00CB62"/>
<path d="M47.7118 24.8842L46.4273 18.4426C46.0263 16.4331 44.11 14.859 42.0647 14.859H39.2873C38.9525 14.859 38.6314 14.9922 38.395 15.2292L35.6932 17.939L32.9914 15.2292C32.7551 14.9922 32.4341 14.859 32.0991 14.859H29.3213C28.5594 14.859 27.8165 15.0792 27.1625 15.4575C26.0913 15.028 24.9245 14.7891 23.7021 14.7891C22.6119 14.7891 21.5654 14.9791 20.5918 15.3245C20.0006 15.028 19.3479 14.859 18.6803 14.859H15.9029C15.568 14.859 15.247 14.9922 15.0106 15.2292L12.3089 17.939L9.60709 15.2292C9.37088 14.9922 9.04982 14.859 8.71483 14.859H5.93705C3.89161 14.859 1.97553 16.4331 1.57467 18.4428L0.289944 24.8842C0.21619 25.2543 0.31212 25.6379 0.551526 25.9299C0.790931 26.2215 1.14844 26.3907 1.52578 26.3907H14.625C15.6265 30.4836 19.3154 33.53 23.7023 33.53C28.0892 33.53 31.778 30.4836 32.7795 26.3907H46.476C46.8533 26.3907 47.2109 26.2215 47.4503 25.9299C47.6897 25.6381 47.7858 25.2543 47.7118 24.8842ZM4.04617 18.9357C4.21149 18.1065 5.09502 17.379 5.93705 17.379H8.19183L11.4165 20.6132C11.6529 20.8503 11.9739 20.9835 12.3088 20.9835C12.6436 20.9835 12.9646 20.8503 13.201 20.6132L16.4259 17.379H17.2608C15.5376 19.0248 14.4399 21.3205 14.3624 23.8707H3.06201L4.04617 18.9357ZM23.7023 31.01C19.9378 31.01 16.8751 27.9367 16.8751 24.1593C16.8751 20.3822 19.9376 17.3093 23.7023 17.3093C27.4667 17.3093 30.5294 20.3822 30.5294 24.1593C30.5294 27.9367 27.4667 31.01 23.7023 31.01ZM33.0421 23.8707C32.9647 21.3205 31.8669 19.0248 30.1437 17.379H31.5761L34.8008 20.6132C35.0371 20.8503 35.3582 20.9835 35.6932 20.9835C36.028 20.9835 36.3491 20.8503 36.5855 20.6132L39.8103 17.379H42.0647C42.9068 17.379 43.7903 18.1065 43.9558 18.9357L44.94 23.8707H33.0421Z" fill="#00CB62"/>
<path d="M37.1496 38.2116C36.6665 35.7903 34.3581 33.8936 31.8941 33.8936H28.3229C27.9881 33.8936 27.667 34.0268 27.4306 34.2638L23.7019 38.0034L19.9733 34.2638C19.7371 34.0268 19.416 33.8936 19.081 33.8936H15.5096C13.0456 33.8936 10.7371 35.7903 10.2539 38.2118L8.60244 46.4935C8.52869 46.8636 8.62462 47.2472 8.86403 47.5392C9.10343 47.8308 9.46094 48 9.83828 48H37.5658C37.9431 48 38.3006 47.8308 38.54 47.5392C38.7794 47.2473 38.8754 46.8636 38.8016 46.4935L37.1496 38.2116ZM11.3743 45.4799L12.7254 38.7048C12.9689 37.4841 14.2699 36.4136 15.5096 36.4136H18.558L22.8098 40.6777C23.0461 40.9148 23.3671 41.048 23.7021 41.048C24.0369 41.048 24.358 40.9148 24.5942 40.6777L28.8461 36.4136H31.8943C33.134 36.4136 34.4349 37.4841 34.6783 38.7047L36.0297 45.4799H11.3743Z" fill="#00CB62"/>
</g>
<defs>
<clipPath id="clip0_411_4527">
<rect width="48" height="48" fill="white"/>
</clipPath>
</defs>
</svg>
