<svg preserveAspectRatio="none" width="100%" height="100%" overflow="visible" style="display: block;" viewBox="0 0 22 14" fill="none" xmlns="http://www.w3.org/2000/svg">
<g id="Vector" opacity="0.5">
<path d="M0 14H2.88449L7.33345 9.10009H4.44896L0 14Z" fill="var(--fill-0, #646464)"/>
<path d="M15.3007 9.73895L19.5659 4.17384C19.9679 3.60863 20.2806 3.13037 20.2806 2.45647C20.2806 1.10867 19.164 0 17.7795 0H13.5589L9.51708 5.28251H12.1521L15.6134 0.760852H16.8862C17.6232 0.804332 18.1145 1.39128 18.1145 2.13039C18.1145 2.21735 18.1145 2.3043 18.0921 2.39126C18.0474 2.5869 17.9581 2.76082 17.8241 2.91299L12.0851 10.3911L6.30142 2.9782H3.66639L9.51708 10.4998H21.4194L22 9.76068H15.3007V9.73895Z" fill="var(--fill-0, #646464)"/>
</g>
</svg>
