<svg preserveAspectRatio="none" width="100%" height="100%" overflow="visible" style="display: block;" viewBox="0 0 266 68" fill="none" xmlns="http://www.w3.org/2000/svg">
<g id="Vector">
<path d="M33.991 68C15.2455 68 0 52.7563 0 34.013C0 15.2695 15.2455 0 33.991 0C52.7368 0 67.9821 15.2435 67.9821 33.987C67.9821 52.7304 52.7368 68 33.991 68ZM33.991 0.803654C15.9455 0.803654 2.12606 15.9696 2.12606 33.987C2.12606 52.0045 15.9455 66.0296 33.991 66.0296C52.0367 66.0296 65.8561 52.0304 65.8561 34.013C65.8561 15.9954 52.0367 0.803654 33.991 0.803654Z" fill="#00CB62"/>
<path d="M33.9913 64.8113C16.3606 64.8113 1.99668 50.9935 1.99668 34.013C1.99668 17.0324 16.3606 3.18874 33.9913 3.18874C51.6221 3.18874 65.986 17.0065 65.986 33.987C65.986 50.9676 51.6221 64.8113 33.9913 64.8113ZM33.9913 3.9924C17.0606 3.9924 4.14868 17.7324 4.14868 34.013C4.14868 50.2935 17.0606 62.841 33.9913 62.841C50.9221 62.841 63.834 50.2935 63.834 33.987C63.834 17.6805 50.9221 3.9924 33.9913 3.9924Z" fill="#00CB62"/>
<path d="M33.9912 61.6485C17.4753 61.6485 4.01889 49.2566 4.01889 34.013C4.01889 18.7694 17.4494 6.37747 33.9912 6.37747C50.533 6.37747 63.9634 18.7694 63.9634 34.013C63.9634 49.2566 50.5071 61.6226 33.9912 61.6485ZM33.9912 7.15525C18.1754 7.15525 6.14495 19.4693 6.14495 33.9871C6.14495 48.5048 18.1754 59.6523 33.9912 59.6523C49.807 59.6523 61.8374 48.5048 61.8374 33.9871C61.8374 19.4693 49.807 7.15525 33.9912 7.15525Z" fill="#00CB62"/>
<path d="M33.9912 58.46C18.5642 58.46 6.01524 47.4939 6.01524 34.0131C6.01524 20.5324 18.5642 9.54043 33.9912 9.54043C49.418 9.54043 61.967 20.5065 61.967 33.9873C61.967 47.4679 49.418 58.46 33.9912 58.46ZM33.9912 10.3441C19.2643 10.3441 8.14131 21.2324 8.14131 34.0131C8.14131 46.7939 19.2643 56.5156 33.9912 56.5156C48.7179 56.5156 59.8409 46.7939 59.8409 34.0131C59.8409 21.2324 48.692 10.3441 33.9912 10.3441Z" fill="#00CB62"/>
<path d="M33.991 55.2708C19.6789 55.2708 8.03745 45.7307 8.03745 33.9868C8.03745 22.2431 19.6789 12.7288 33.991 12.7288C48.303 12.7288 59.9445 22.269 59.9445 34.0129C59.9445 45.7565 48.303 55.2708 33.991 55.2708ZM33.991 13.5065C20.379 13.5065 10.1635 22.969 10.1635 33.9868C10.1635 45.0048 20.379 53.3006 33.991 53.3006C47.6029 53.3006 57.8185 45.0048 57.8185 33.9868C57.8185 22.969 47.6029 13.5065 33.991 13.5065Z" fill="#00CB62"/>
<path d="M33.9912 52.1082C20.794 52.1082 10.0341 43.9937 10.0341 34.0129C10.0341 24.0318 20.7681 15.9175 33.9912 15.9175C47.2144 15.9175 57.9484 24.0318 57.9484 34.0129C57.9484 43.9937 47.1884 52.1082 33.9912 52.1082ZM33.9912 16.6953C21.4941 16.6953 12.1602 24.7318 12.1602 34.0129C12.1602 43.2937 21.4941 50.1638 33.9912 50.1638C46.4884 50.1638 55.8222 43.2937 55.8222 34.0129C55.8222 24.7318 46.4884 16.6953 33.9912 16.6953Z" fill="#00CB62"/>
<path d="M33.991 48.9194C21.883 48.9194 12.0564 42.2308 12.0564 33.9868C12.0564 25.7429 21.9089 19.0543 33.991 19.0543C46.0733 19.0543 55.9259 25.7429 55.9259 33.9868C55.9259 42.2308 46.0992 48.9194 33.991 48.9194ZM33.991 19.858C22.5829 19.858 14.1825 26.4688 14.1825 33.9868C14.1825 41.5049 22.6088 46.949 33.991 46.949C45.3733 46.949 53.7998 41.5049 53.7998 33.9868C53.7998 26.4688 45.3733 19.858 33.991 19.858Z" fill="#00CB62"/>
<path d="M33.991 45.7564C22.9977 45.7564 14.0527 40.4937 14.0527 34.0127C14.0527 27.5316 22.9977 22.2689 33.991 22.2689C44.9843 22.2689 53.9294 27.5316 53.9294 34.0127C53.9294 40.4937 44.9843 45.7564 33.991 45.7564ZM33.991 23.0466C23.6978 23.0466 16.1787 28.2314 16.1787 33.9867C16.1787 39.742 23.6978 43.7603 33.991 43.7603C44.2843 43.7603 51.8032 39.742 51.8032 33.9867C51.8032 28.2314 44.2843 23.0466 33.991 23.0466Z" fill="#00CB62"/>
<path d="M33.9913 42.5681C23.9313 42.5681 16.0494 38.8091 16.0494 34.013C16.0494 29.217 23.9313 25.458 33.9913 25.458C44.0512 25.458 51.9331 29.217 51.9331 34.013C51.9331 38.8091 44.0512 42.5681 33.9913 42.5681ZM33.9913 26.2356C24.9684 26.2356 18.1755 30.0465 18.1755 34.013C18.1755 37.9794 24.9425 40.6238 33.9913 40.6238C43.04 40.6238 49.8071 37.9794 49.8071 34.013C49.8071 30.0465 43.0141 26.2356 33.9913 26.2356Z" fill="#00CB62"/>
<path d="M33.9912 39.4055C26.2647 39.4055 18.0715 37.513 18.0715 34.0131C18.0715 30.5134 26.2647 28.6208 33.9912 28.6208C41.7176 28.6208 49.9107 30.5134 49.9107 34.0131C49.9107 37.513 41.7176 39.4055 33.9912 39.4055ZM33.9912 29.3986C25.6165 29.3986 20.1977 32.0429 20.1977 33.9873C20.1977 35.9316 25.6165 37.4092 33.9912 37.4092C42.3657 37.4092 47.7845 35.9316 47.7845 33.9873C47.7845 32.0429 42.3657 29.3986 33.9912 29.3986Z" fill="#00CB62"/>
<path d="M33.991 31.7835C28.8055 31.7835 20.0938 32.0686 20.0938 33.987C20.0938 35.9054 28.8055 36.1906 33.991 36.1906C39.1766 36.1906 47.8882 35.9054 47.8882 33.987C47.8882 32.0686 39.1766 31.7835 33.991 31.7835ZM33.991 34.5833C29.6093 34.5833 22.2717 34.5054 22.2717 33.987C22.2717 33.4685 29.6093 33.3908 33.991 33.3908C38.3728 33.3908 45.7103 33.4685 45.7103 33.987C45.7103 34.5054 38.3728 34.5833 33.991 34.5833Z" fill="#00CB62"/>
<path d="M101.136 30.3288H85.9694V19.8498H80.5277V46.249H85.9694V35.7698H101.136V46.249H106.552V19.8498H101.136V30.3288Z" fill="var(--fill-0, white)"/>
<path d="M160.34 19.8246L153.889 30.3288H145.753V19.8246H140.31V46.249H145.753V35.77H153.889L160.34 46.249H167.041L158.929 33.0494L167.041 19.8246H160.34Z" fill="var(--fill-0, white)"/>
<path d="M124.137 19.8246H110.23V25.2656H124.137C127.336 25.2656 130.158 27.2054 131.342 30.1777L131.418 30.3793H115.47V35.6944H131.418L131.342 35.8958C130.158 38.8684 127.336 40.808 124.137 40.808H110.23V46.249H124.137C131.418 46.249 137.338 40.3293 137.338 33.0494C137.338 25.7695 131.443 19.8246 124.137 19.8246Z" fill="var(--fill-0, white)"/>
<path d="M213.144 35.77H227.378V30.3288H213.144V25.2908H232.594V19.8246H207.703V46.249H232.971V40.808H213.144V35.77Z" fill="var(--fill-0, white)"/>
<path d="M177.345 19.8246V25.2656H187.825V46.249H193.267V25.2656H203.747V19.8246H177.345Z" fill="var(--fill-0, white)"/>
<path d="M266 19.8246H259.298L252.849 30.3288H248.339L241.915 19.8246H235.189L243.325 33.0494L235.189 46.249H241.915L248.339 35.77H252.849L259.298 46.249H266L257.887 33.0494L266 19.8246Z" fill="var(--fill-0, white)"/>
<path d="M177.345 40.808H171.903V46.249H177.345V40.808Z" fill="var(--fill-0, white)"/>
</g>
</svg>
