<svg preserveAspectRatio="none" width="100%" height="100%" overflow="visible" style="display: block;" viewBox="0 0 188 48" fill="none" xmlns="http://www.w3.org/2000/svg">
<g id="Vector">
<path d="M24.0237 48C10.775 48 0 37.2397 0 24.0092C0 10.7785 10.775 0 24.0237 0C37.2726 0 48.0475 10.7601 48.0475 23.9908C48.0475 37.2215 37.2726 48 24.0237 48ZM24.0237 0.567285C11.2698 0.567285 1.50263 11.2726 1.50263 23.9908C1.50263 36.7091 11.2698 46.6092 24.0237 46.6092C36.7778 46.6092 46.5449 36.7274 46.5449 24.0092C46.5449 11.2909 36.7778 0.567285 24.0237 0.567285Z" fill="#00CB62"/>
<path d="M24.0239 45.7492C11.5631 45.7492 1.41119 35.9954 1.41119 24.0092C1.41119 12.0228 11.5631 2.25088 24.0239 2.25088C36.4848 2.25088 46.6367 12.0046 46.6367 23.9908C46.6367 35.9771 36.4848 45.7492 24.0239 45.7492ZM24.0239 2.81816C12.0579 2.81816 2.93215 12.517 2.93215 24.0092C2.93215 35.5013 12.0579 44.3583 24.0239 44.3583C35.9901 44.3583 45.1157 35.5013 45.1157 23.9908C45.1157 12.4803 35.9901 2.81816 24.0239 2.81816Z" fill="#00CB62"/>
<path d="M24.0238 43.5166C12.351 43.5166 2.84042 34.7693 2.84042 24.0092C2.84042 13.249 12.3326 4.50174 24.0238 4.50174C35.715 4.50174 45.2072 13.249 45.2072 24.0092C45.2072 34.7693 35.6967 43.4983 24.0238 43.5166ZM24.0238 5.05076C12.8457 5.05076 4.34305 13.743 4.34305 23.9909C4.34305 34.2387 12.8457 42.1075 24.0238 42.1075C35.2019 42.1075 43.7047 34.2387 43.7047 23.9909C43.7047 13.743 35.2019 5.05076 24.0238 5.05076Z" fill="#00CB62"/>
<path d="M24.0238 41.2659C13.1206 41.2659 4.25137 33.5251 4.25137 24.0093C4.25137 14.4934 13.1206 6.73442 24.0238 6.73442C34.927 6.73442 43.7963 14.4752 43.7963 23.991C43.7963 33.5067 34.927 41.2659 24.0238 41.2659ZM24.0238 7.3017C13.6154 7.3017 5.75401 14.9876 5.75401 24.0093C5.75401 33.031 13.6154 39.8934 24.0238 39.8934C34.4322 39.8934 42.2936 33.031 42.2936 24.0093C42.2936 14.9876 34.4139 7.3017 24.0238 7.3017Z" fill="#00CB62"/>
<path d="M24.0237 39.0147C13.9084 39.0147 5.6806 32.2805 5.6806 23.9907C5.6806 15.701 13.9084 8.98506 24.0237 8.98506C34.139 8.98506 42.3668 15.7193 42.3668 24.0091C42.3668 32.2987 34.139 39.0147 24.0237 39.0147ZM24.0237 9.53398C14.4032 9.53398 7.18323 16.2134 7.18323 23.9907C7.18323 31.7681 14.4032 37.624 24.0237 37.624C33.6442 37.624 40.8642 31.7681 40.8642 23.9907C40.8642 16.2134 33.6442 9.53398 24.0237 9.53398Z" fill="#00CB62"/>
<path d="M24.0238 36.7822C14.6965 36.7822 7.0918 31.0544 7.0918 24.0091C7.0918 16.9636 14.6782 11.2359 24.0238 11.2359C33.3696 11.2359 40.956 16.9636 40.956 24.0091C40.956 31.0544 33.3512 36.7822 24.0238 36.7822ZM24.0238 11.7849C15.1913 11.7849 8.59443 17.4578 8.59443 24.0091C8.59443 30.5603 15.1913 35.4098 24.0238 35.4098C32.8564 35.4098 39.4533 30.5603 39.4533 24.0091C39.4533 17.4578 32.8564 11.7849 24.0238 11.7849Z" fill="#00CB62"/>
<path d="M24.0237 34.5313C15.4662 34.5313 8.52103 29.81 8.52103 23.9907C8.52103 18.1714 15.4845 13.4501 24.0237 13.4501C32.5631 13.4501 39.5266 18.1714 39.5266 23.9907C39.5266 29.81 32.5814 34.5313 24.0237 34.5313ZM24.0237 14.0174C15.9609 14.0174 10.0237 18.6838 10.0237 23.9907C10.0237 29.2976 15.9792 33.1405 24.0237 33.1405C32.0683 33.1405 38.0239 29.2976 38.0239 23.9907C38.0239 18.6838 32.0683 14.0174 24.0237 14.0174Z" fill="#00CB62"/>
<path d="M24.0237 32.2986C16.254 32.2986 9.93198 28.5838 9.93198 24.009C9.93198 19.434 16.254 15.7192 24.0237 15.7192C31.7934 15.7192 38.1155 19.434 38.1155 24.009C38.1155 28.5838 31.7934 32.2986 24.0237 32.2986ZM24.0237 16.2682C16.7488 16.2682 11.4346 19.9281 11.4346 23.9906C11.4346 28.0532 16.7488 30.8896 24.0237 30.8896C31.2987 30.8896 36.6128 28.0532 36.6128 23.9906C36.6128 19.9281 31.2987 16.2682 24.0237 16.2682Z" fill="#00CB62"/>
<path d="M24.0239 30.0481C16.9139 30.0481 11.3432 27.3947 11.3432 24.0092C11.3432 20.6238 16.9139 17.9703 24.0239 17.9703C31.1339 17.9703 36.7046 20.6238 36.7046 24.0092C36.7046 27.3947 31.1339 30.0481 24.0239 30.0481ZM24.0239 18.5193C17.6469 18.5193 12.8458 21.2093 12.8458 24.0092C12.8458 26.809 17.6285 28.6756 24.0239 28.6756C30.4192 28.6756 35.202 26.809 35.202 24.0092C35.202 21.2093 30.4009 18.5193 24.0239 18.5193Z" fill="#00CB62"/>
<path d="M24.0238 27.8156C18.563 27.8156 12.7724 26.4798 12.7724 24.0093C12.7724 21.5389 18.563 20.2029 24.0238 20.2029C29.4846 20.2029 35.2752 21.5389 35.2752 24.0093C35.2752 26.4798 29.4846 27.8156 24.0238 27.8156ZM24.0238 20.7519C18.1049 20.7519 14.275 22.6185 14.275 23.991C14.275 25.3635 18.1049 26.4065 24.0238 26.4065C29.9427 26.4065 33.7725 25.3635 33.7725 23.991C33.7725 22.6185 29.9427 20.7519 24.0238 20.7519Z" fill="#00CB62"/>
<path d="M24.0237 22.4354C20.3588 22.4354 14.2017 22.6367 14.2017 23.9908C14.2017 25.345 20.3588 25.5463 24.0237 25.5463C27.6887 25.5463 33.8458 25.345 33.8458 23.9908C33.8458 22.6367 27.6887 22.4354 24.0237 22.4354ZM24.0237 24.4118C20.9269 24.4118 15.7409 24.3568 15.7409 23.9908C15.7409 23.6248 20.9269 23.5699 24.0237 23.5699C27.1206 23.5699 32.3065 23.6248 32.3065 23.9908C32.3065 24.3568 27.1206 24.4118 24.0237 24.4118Z" fill="#00CB62"/>
<path d="M71.4793 21.4086H60.7603V14.0116H56.9143V32.6463H60.7603V25.2493H71.4793V32.6463H75.3076V14.0116H71.4793V21.4086Z" fill="var(--fill-0, white)"/>
<path d="M113.323 13.9938L108.764 21.4086H103.013V13.9938H99.1666V32.6463H103.013V25.2494H108.764L113.323 32.6463H118.059L112.326 23.329L118.059 13.9938H113.323Z" fill="var(--fill-0, white)"/>
<path d="M87.7358 13.9938H77.9071V17.8345H87.7358C89.9972 17.8345 91.9914 19.2038 92.8283 21.3019L92.8817 21.4442H81.6107V25.1961H92.8817L92.8283 25.3382C91.9914 27.4365 89.9972 28.8056 87.7358 28.8056H77.9071V32.6463H87.7358C92.8817 32.6463 97.066 28.4677 97.066 23.329C97.066 18.1902 92.8995 13.9938 87.7358 13.9938Z" fill="var(--fill-0, white)"/>
<path d="M150.643 25.2494H160.703V21.4086H150.643V17.8523H164.389V13.9938H146.798V32.6463H164.656V28.8056H150.643V25.2494Z" fill="var(--fill-0, white)"/>
<path d="M125.341 13.9938V17.8345H132.749V32.6463H136.594V17.8345H144.002V13.9938H125.341Z" fill="var(--fill-0, white)"/>
<path d="M188 13.9938H183.263L178.705 21.4086H175.517L170.977 13.9938H166.224L171.974 23.329L166.224 32.6463H170.977L175.517 25.2494H178.705L183.263 32.6463H188L182.266 23.329L188 13.9938Z" fill="var(--fill-0, white)"/>
<path d="M125.341 28.8056H121.496V32.6463H125.341V28.8056Z" fill="var(--fill-0, white)"/>
</g>
</svg>
