<svg preserveAspectRatio="none" width="100%" height="100%" overflow="visible" style="display: block;" viewBox="0 0 19.2287 19.2402" fill="none" xmlns="http://www.w3.org/2000/svg">
<g id="Group">
<path id="Vector" d="M9.62875 4.59985C10.9549 4.59985 12.2267 5.12665 13.1644 6.06436C14.1021 7.00207 14.6289 8.27388 14.6289 9.60001M8.62891 0.660009C8.96064 0.619553 9.29455 0.599516 9.62875 0.600009C12.0157 0.600009 14.3049 1.54822 15.9927 3.23605C17.6805 4.92388 18.6287 7.21306 18.6287 9.60001C18.6287 9.93441 18.6087 10.2677 18.5687 10.5998" stroke="var(--stroke-0, #00CB62)" stroke-width="1.2" stroke-linecap="round" stroke-linejoin="round"/>
<path id="Vector_2" d="M12.6287 18.6C11.0786 18.2304 9.60812 17.5832 8.28859 16.6896L10.1087 14.0803C10.408 13.672 10.851 13.3923 11.3483 13.2977C11.8456 13.2031 12.3603 13.3006 12.7886 13.5706C13.1188 13.7803 13.4587 13.9704 13.7889 14.1605C14.0373 14.282 14.2578 14.4536 14.4365 14.6646C14.6152 14.8756 14.7482 15.1213 14.8272 15.3863C14.9061 15.6513 14.9292 15.9298 14.8951 16.2042C14.861 16.4786 14.7703 16.7429 14.6289 16.9805L14.0087 17.9309C13.8977 18.1898 13.6971 18.4 13.4436 18.523C13.1901 18.646 12.9008 18.673 12.6287 18.6ZM1.29883 5.27041L2.29867 4.64977C2.53059 4.49926 2.79119 4.39846 3.06403 4.35375C3.33686 4.30903 3.61601 4.32136 3.88384 4.38997C4.15167 4.45857 4.40237 4.58196 4.62011 4.75233C4.83785 4.92271 5.01791 5.13638 5.14891 5.37985C5.33899 5.73985 5.52859 6.08017 5.73883 6.38017C6.00872 6.8085 6.10615 7.32324 6.01145 7.82057C5.91676 8.31791 5.637 8.76083 5.22859 9.06001L2.56891 10.9099C1.66815 9.60172 1.0109 8.14168 0.628747 6.60001C0.568942 6.33507 0.603079 6.05757 0.725316 5.81503C0.847553 5.57248 1.05029 5.37996 1.29883 5.27041Z" stroke="var(--stroke-0, #00CB62)" stroke-width="1.2" stroke-linecap="round" stroke-linejoin="round"/>
<path id="Vector_3" d="M2.56891 10.9104C3.30408 12.0626 4.16981 13.1262 5.14891 14.0798C6.10274 15.059 7.16642 15.9247 8.31883 16.6598" stroke="var(--stroke-0, #00CB62)" stroke-width="1.2" stroke-linecap="round" stroke-linejoin="round"/>
</g>
</svg>
